<svg version="1.1" xmlns="http://www.w3.org/2000/svg" viewBox="0 0 1200.6844344854355 922.5419921875" width="2401.368868970871" height="1845.083984375">
  <!-- svg-source:excalidraw -->
  
  <defs>
    <style class="style-fonts">
      @font-face {
        font-family: "Virgil";
        src: url("https://excalidraw.com/Virgil.woff2");
      }
      @font-face {
        font-family: "Cascadia";
        src: url("https://excalidraw.com/Cascadia.woff2");
      }
    </style>
  </defs>
  <rect x="0" y="0" width="1200.6844344854355" height="922.5419921875" fill="#ffffff"></rect><g stroke-linecap="round" transform="translate(208.54234447404747 275.203857421875) rotate(0 338.220703125 38.51953125)"><path d="M19.26 0 M19.26 0 C207.67 -1.74, 396.4 -1.87, 657.18 0 M19.26 0 C257.38 1.23, 495.51 1.72, 657.18 0 M657.18 0 C668.83 1.55, 677.68 8.02, 676.44 19.26 M657.18 0 C668.53 -0.65, 678.08 7.06, 676.44 19.26 M676.44 19.26 C675.35 27.08, 675.59 38.37, 676.44 57.78 M676.44 19.26 C675.87 27.14, 677.05 33.76, 676.44 57.78 M676.44 57.78 C675 71.34, 670.32 78.4, 657.18 77.04 M676.44 57.78 C678.38 69.29, 668.17 77.19, 657.18 77.04 M657.18 77.04 C524.68 77.87, 392.57 77.06, 19.26 77.04 M657.18 77.04 C477.33 74.79, 298.13 74.87, 19.26 77.04 M19.26 77.04 C7.3 75.2, -1.24 68.99, 0 57.78 M19.26 77.04 C5.12 75.66, -1.46 72.37, 0 57.78 M0 57.78 C-1 45.87, -1.22 32.07, 0 19.26 M0 57.78 C-0.12 45.28, -0.86 35.26, 0 19.26 M0 19.26 C-1.97 7.05, 5.79 0.34, 19.26 0 M0 19.26 C-0.42 8.54, 4.78 -0.07, 19.26 0" stroke="#862e9c" stroke-width="1" fill="none"></path></g><g transform="translate(440.7330564491451 301.223388671875) rotate(0 106.02999114990234 12)"><text x="106.02999114990234" y="0" font-family="Virgil, Segoe UI Emoji" font-size="20px" fill="#862e9c" text-anchor="middle" style="white-space: pre;" direction="ltr" dominant-baseline="text-before-edge">Virtual kubelet (Knoc)</text></g><g mask="url(#mask-KLeNBPPeRIu-cD0QDD5N5)" stroke-linecap="round"><g transform="translate(447.29548486588317 119.289794921875) rotate(0 0.5204403232371533 73.03705651373599)"><path d="M0.74 0.38 C1.12 24.55, 1.28 120.71, 1.37 144.97 M-0.32 -0.46 C0.04 23.92, 0.64 122.43, 0.84 146.53" stroke="#000000" stroke-width="1" fill="none"></path></g><g transform="translate(447.29548486588317 119.289794921875) rotate(0 0.5204403232371533 73.03705651373599)"><path d="M-8.98 119.76 C-7.18 125.85, -3.16 129.81, 0.95 145.94 M-10.23 119.06 C-7.93 126.09, -3.99 134.49, 1.42 145.7" stroke="#000000" stroke-width="1" fill="none"></path></g><g transform="translate(447.29548486588317 119.289794921875) rotate(0 0.5204403232371533 73.03705651373599)"><path d="M11.54 119.61 C8.71 125.87, 8.09 129.86, 0.95 145.94 M10.29 118.91 C7.09 125.98, 5.52 134.42, 1.42 145.7" stroke="#000000" stroke-width="1" fill="none"></path></g></g><mask id="mask-KLeNBPPeRIu-cD0QDD5N5"><rect x="0" y="0" fill="#fff" width="547.8568550126809" height="364.207763671875"></rect><rect x="419.05616757416954" y="179.748779296875" fill="#000" width="57.04000473022461" height="24" opacity="1"></rect></mask><g transform="translate(419.05616757416965 179.748779296875) rotate(0 28.759757614950672 12.57807213873599)"><text x="28.520002365112305" y="0" font-family="Virgil, Segoe UI Emoji" font-size="20px" fill="#000000" text-anchor="middle" style="white-space: pre;" direction="ltr" dominant-baseline="text-before-edge">v1.Pod</text></g><g mask="url(#mask-xnM7JdD3emuERk3a6VM2g)" stroke-linecap="round"><g transform="translate(620.135687733366 260.914794921875) rotate(0 -2.7657655406862887 -69.44723154896411)"><path d="M-0.13 -1.19 C-1.05 -24.42, -3.73 -116.66, -4.51 -139.69 M-1.66 0.8 C-2.82 -22.28, -4.72 -115.49, -5.4 -138.7" stroke="#000000" stroke-width="1" fill="none"></path></g><g transform="translate(620.135687733366 260.914794921875) rotate(0 -2.7657655406862887 -69.44723154896411)"><path d="M3.57 -110.57 C-0.29 -121.84, -4.01 -130.66, -5.87 -140.09 M5.04 -110.03 C2.43 -121, -2.64 -131.37, -5.55 -137.72" stroke="#000000" stroke-width="1" fill="none"></path></g><g transform="translate(620.135687733366 260.914794921875) rotate(0 -2.7657655406862887 -69.44723154896411)"><path d="M-16.94 -110.07 C-12.93 -121.51, -8.77 -130.52, -5.87 -140.09 M-15.48 -109.53 C-10.42 -120.87, -7.81 -131.43, -5.55 -137.72" stroke="#000000" stroke-width="1" fill="none"></path></g></g><mask id="mask-xnM7JdD3emuERk3a6VM2g"><rect x="0" y="0" fill="#fff" width="724.764532233751" height="499.578857421875"></rect><rect x="562.1512596848336" y="179.582763671875" fill="#000" width="111.34001159667969" height="24" opacity="1"></rect></mask><g transform="translate(562.1512596848336 179.582763671875) rotate(0 55.21866250784615 11.884799701035888)"><text x="55.670005798339844" y="0" font-family="Virgil, Segoe UI Emoji" font-size="20px" fill="#000000" text-anchor="middle" style="white-space: pre;" direction="ltr" dominant-baseline="text-before-edge">pod status</text></g><g stroke-linecap="round" transform="translate(346.09312572404747 10) rotate(0 183.38671875 49.03125)"><path d="M24.04 0.77 L342.59 -1.09 L351.8 1.77 L358.84 6.25 L364.15 9.19 L366 18.82 L368.08 75.23 L367.23 82.59 L361.67 88.4 L356.28 93.86 L342.57 96.54 L25.43 97.89 L15.7 96.74 L7.98 93.71 L1.69 82.92 L0.93 78.76 L-1.25 16.8 L1.53 13.74 L4.31 7.38 L13.27 0.53 L24.07 1.92" stroke="none" stroke-width="0" fill="#ced4da"></path><path d="M24.52 0 M24.52 0 C97.87 0.09, 170.22 -2.02, 342.26 0 M24.52 0 C110.47 1.03, 196.53 0.69, 342.26 0 M342.26 0 C359.02 1.08, 365.33 8.35, 366.77 24.52 M342.26 0 C360.56 -1.13, 367.8 8.1, 366.77 24.52 M366.77 24.52 C366.66 42.96, 368.6 56.65, 366.77 73.55 M366.77 24.52 C365.77 42.37, 367.47 58.27, 366.77 73.55 M366.77 73.55 C366.83 89.77, 359.15 99.39, 342.26 98.06 M366.77 73.55 C365.16 89.35, 359.68 98.09, 342.26 98.06 M342.26 98.06 C230.77 95.67, 117.39 96.26, 24.52 98.06 M342.26 98.06 C235.79 99.07, 128.79 99.93, 24.52 98.06 M24.52 98.06 C7.36 98.19, 1.85 90.46, 0 73.55 M24.52 98.06 C9.7 96.14, 0.52 89.67, 0 73.55 M0 73.55 C-1.32 52.69, 0.04 35.66, 0 24.52 M0 73.55 C1.14 63.04, -0.81 51.97, 0 24.52 M0 24.52 C0.07 9.65, 7.6 -1.78, 24.52 0 M0 24.52 C2.02 6.23, 6.24 -1.58, 24.52 0" stroke="#000000" stroke-width="1" fill="none"></path></g><g transform="translate(451.44983806535606 46.53125) rotate(0 78.0300064086914 12)"><text x="78.0300064086914" y="0" font-family="Virgil, Segoe UI Emoji" font-size="20px" fill="#000000" text-anchor="middle" style="white-space: pre;" direction="ltr" dominant-baseline="text-before-edge">K8s API server</text></g><g stroke-linecap="round"><g transform="translate(10.991563224047468 683.9290771484374) rotate(0 589.3506540186703 -0.4662730395207859)"><path d="M-0.99 -0.55 C195.5 -0.63, 983.18 -0.51, 1179.69 -0.36" stroke="#1864ab" stroke-width="4.5" fill="none" stroke-dasharray="1.5 10"></path></g></g><mask></mask><g stroke-linecap="round" transform="translate(225.90562572404747 350.9993896484375) rotate(0 88.197265625 29.69140625)"><path d="M2.09 5.79 C2.09 5.79, 2.09 5.79, 2.09 5.79 M2.09 5.79 C2.09 5.79, 2.09 5.79, 2.09 5.79 M1.83 12.19 C3.28 9.82, 5.32 8.12, 8.39 4.64 M1.83 12.19 C3.65 11.02, 4.38 9.3, 8.39 4.64 M1.57 18.59 C4.96 13.9, 9.13 7.58, 16.66 1.23 M1.57 18.59 C5.53 12.14, 10.76 7.71, 16.66 1.23 M1.31 24.99 C5.65 19.33, 13.79 13.86, 21.65 1.59 M1.31 24.99 C6.6 18.38, 14.75 10.67, 21.65 1.59 M1.7 30.63 C12.93 19.39, 20.14 7.12, 27.29 1.2 M1.7 30.63 C8.12 24.44, 13.78 17.3, 27.29 1.2 M1.44 37.03 C10.43 26.77, 16.92 18.62, 32.28 1.56 M1.44 37.03 C8.2 29.46, 14.74 21.6, 32.28 1.56 M1.84 42.67 C14.28 28.69, 28.67 13.75, 37.26 1.92 M1.84 42.67 C13.29 28.31, 26.43 15.15, 37.26 1.92 M1.57 49.07 C14.75 37.19, 24.5 21.92, 42.91 1.52 M1.57 49.07 C16.43 31.61, 31.26 14.5, 42.91 1.52 M2.62 53.96 C18.09 36.44, 33.13 19.28, 47.89 1.88 M2.62 53.96 C18.21 36.59, 33.47 18.54, 47.89 1.88 M5.64 56.58 C15.72 42.75, 26.08 34.26, 53.54 1.49 M5.64 56.58 C22.48 38.21, 38.55 18.61, 53.54 1.49 M8.66 59.21 C29.51 37.17, 48.5 13.95, 58.52 1.85 M8.66 59.21 C24.39 40.27, 41.38 22.27, 58.52 1.85 M14.31 58.81 C30.36 38.48, 49.33 17, 64.17 1.45 M14.31 58.81 C30.07 42.39, 44.34 23.3, 64.17 1.45 M19.29 59.17 C35.65 40.96, 48.92 25.47, 69.15 1.81 M19.29 59.17 C30.02 45.15, 42.64 33.15, 69.15 1.81 M24.94 58.78 C38.65 41.77, 54.89 24.02, 74.8 1.42 M24.94 58.78 C40.46 41.41, 55.7 22.15, 74.8 1.42 M29.92 59.14 C40.85 46.57, 53.95 30.1, 79.78 1.78 M29.92 59.14 C48.98 38.53, 67.55 15.91, 79.78 1.78 M35.57 58.74 C47.98 43.57, 62.78 26.31, 84.77 2.14 M35.57 58.74 C53.12 39.36, 69.03 18.96, 84.77 2.14 M40.55 59.1 C56.24 38.18, 74.28 18.05, 90.41 1.74 M40.55 59.1 C58.92 36.85, 77.43 15.11, 90.41 1.74 M45.54 59.46 C65.2 39.27, 81.63 15.48, 95.4 2.1 M45.54 59.46 C64.58 38.48, 81.81 18.21, 95.4 2.1 M51.18 59.07 C64.15 46.01, 73.64 31.33, 101.04 1.71 M51.18 59.07 C63.19 43.31, 75.98 28.18, 101.04 1.71 M56.17 59.43 C69.36 45.1, 77.98 33.31, 106.03 2.07 M56.17 59.43 C66.88 46.26, 77.37 33.91, 106.03 2.07 M61.81 59.03 C77.38 42.45, 91.91 27.1, 111.67 1.68 M61.81 59.03 C74.93 44.33, 89.38 27.29, 111.67 1.68 M66.8 59.39 C82 39.6, 100.23 22.29, 116.66 2.04 M66.8 59.39 C80.73 41.91, 96.26 25.16, 116.66 2.04 M72.44 59 C91.11 38.2, 108.96 18.85, 121.65 2.4 M72.44 59 C86.9 41.23, 103.94 23.77, 121.65 2.4 M77.43 59.36 C87.11 48, 100.02 34.23, 127.29 2 M77.43 59.36 C96.32 38.53, 116.08 16.33, 127.29 2 M82.42 59.72 C94.21 44.66, 105.11 30.58, 132.28 2.36 M82.42 59.72 C98.94 39.82, 116.68 21.44, 132.28 2.36 M88.06 59.32 C108.69 38.99, 125.59 16.19, 137.92 1.97 M88.06 59.32 C103.27 40.65, 117.6 24.56, 137.92 1.97 M93.05 59.68 C102.34 45.31, 113.74 32.36, 142.91 2.33 M93.05 59.68 C106.27 43.76, 119.38 28.53, 142.91 2.33 M98.69 59.29 C117.82 40.46, 133.24 20.86, 148.55 1.93 M98.69 59.29 C113.26 42.82, 127.29 24.79, 148.55 1.93 M103.68 59.65 C119.3 40.3, 137.14 24.21, 153.54 2.29 M103.68 59.65 C119.57 42.27, 136.86 23.35, 153.54 2.29 M109.32 59.26 C122.05 42.95, 140.17 26.49, 158.52 2.65 M109.32 59.26 C123.6 44.19, 136.83 29.03, 158.52 2.65 M114.31 59.62 C128.74 43.89, 145.05 26.8, 164.17 2.26 M114.31 59.62 C130.39 40.69, 147.35 20.58, 164.17 2.26 M119.29 59.98 C138.23 37.44, 156.71 19.74, 169.81 1.86 M119.29 59.98 C134.21 42.07, 151.14 21.67, 169.81 1.86 M124.94 59.58 C142.66 37.81, 162.5 17.56, 172.83 4.49 M124.94 59.58 C141.6 38.43, 160.34 19.35, 172.83 4.49 M129.92 59.94 C144.31 43.68, 161.47 24.28, 175.19 7.87 M129.92 59.94 C141.47 47.42, 152.3 34.52, 175.19 7.87 M135.57 59.55 C149.1 44.64, 160.64 28.32, 176.9 12 M135.57 59.55 C148.76 43.87, 162.94 28.07, 176.9 12 M140.55 59.91 C147.39 48.89, 156.2 38.83, 176.64 18.4 M140.55 59.91 C147.69 52.12, 155.74 43.78, 176.64 18.4 M146.2 59.51 C151.04 52.16, 157.57 45.4, 176.38 24.8 M146.2 59.51 C155.58 48.51, 167.15 35.77, 176.38 24.8 M151.18 59.87 C155.7 51.29, 164.85 46.98, 176.77 30.44 M151.18 59.87 C158.31 51.88, 164.85 43.61, 176.77 30.44 M156.83 59.48 C160.96 53.62, 168.43 48.77, 176.51 36.84 M156.83 59.48 C164.46 51.48, 171.86 41.92, 176.51 36.84 M161.81 59.84 C166.28 56.1, 166.81 55.02, 176.25 43.23 M161.81 59.84 C164.76 56.17, 167.8 52.36, 176.25 43.23 M168.77 57.93 C171.76 54.16, 173.71 51.6, 175.99 49.63 M168.77 57.93 C170.55 56.08, 172.65 54.23, 175.99 49.63" stroke="#ced4da" stroke-width="0.5" fill="none"></path><path d="M14.85 0 M14.85 0 C66.49 -0.75, 117.01 1.26, 161.55 0 M161.55 0 C170.4 -0.92, 174.97 3.31, 176.39 14.85 M176.39 14.85 C176.82 25.98, 176.72 35.6, 176.39 44.54 M176.39 44.54 C174.97 53.8, 173.06 60.99, 161.55 59.38 M161.55 59.38 C128.89 56.41, 99.13 59.03, 14.85 59.38 M14.85 59.38 C2.96 57.59, -0.64 55, 0 44.54 M0 44.54 C0.22 39.49, 1.5 32.75, 0 14.85 M0 14.85 C-1.35 4.51, 5.76 1.77, 14.85 0" stroke="#000000" stroke-width="1.5" fill="none" stroke-dasharray="1.5 7"></path></g><g transform="translate(281.52289333269005 368.1907958984375) rotate(0 32.57999801635742 12)"><text x="32.57999801635742" y="0" font-family="Virgil, Segoe UI Emoji" font-size="20px" fill="#000000" text-anchor="middle" style="white-space: pre;" direction="ltr" dominant-baseline="text-before-edge">create</text></g><g stroke-linecap="round" transform="translate(455.57554759904747 352.8001708984375) rotate(0 88.197265625 29.69140625)"><path d="M2.09 5.79 C2.09 5.79, 2.09 5.79, 2.09 5.79 M2.09 5.79 C2.09 5.79, 2.09 5.79, 2.09 5.79 M1.83 12.19 C4.68 9.27, 7.16 6.93, 8.39 4.64 M1.83 12.19 C3.45 10.76, 4.94 8.42, 8.39 4.64 M1.57 18.59 C7.89 12.48, 10.47 6.13, 16.66 1.23 M1.57 18.59 C7.34 11.23, 13.27 5.81, 16.66 1.23 M1.31 24.99 C8.21 16.6, 14.06 8.75, 21.65 1.59 M1.31 24.99 C6.68 18.63, 11.27 14.47, 21.65 1.59 M1.7 30.63 C10.27 21.45, 17.12 8.95, 27.29 1.2 M1.7 30.63 C6.83 25.27, 13.66 17.92, 27.29 1.2 M1.44 37.03 C11.17 25.56, 23.16 13.77, 32.28 1.56 M1.44 37.03 C8.46 28.77, 15.83 20.35, 32.28 1.56 M1.84 42.67 C10.05 34.32, 21.11 23.77, 37.26 1.92 M1.84 42.67 C10.27 32.63, 18.8 23.2, 37.26 1.92 M1.57 49.07 C10.4 35.52, 22.54 24.52, 42.91 1.52 M1.57 49.07 C11.4 37.72, 21.5 24.58, 42.91 1.52 M2.62 53.96 C20.59 35.65, 35.35 15.53, 47.89 1.88 M2.62 53.96 C18.4 35.92, 34.08 18.6, 47.89 1.88 M5.64 56.58 C24.29 33.34, 41.29 13.09, 53.54 1.49 M5.64 56.58 C23.26 35.72, 41.92 16.39, 53.54 1.49 M8.66 59.21 C23.49 42.05, 36.14 26.09, 58.52 1.85 M8.66 59.21 C28.2 36.55, 48.38 14.02, 58.52 1.85 M14.31 58.81 C24.03 43.92, 38.65 33.13, 64.17 1.45 M14.31 58.81 C26.81 44.12, 40.09 30.58, 64.17 1.45 M19.29 59.17 C37.2 36.55, 59.75 15.67, 69.15 1.81 M19.29 59.17 C35.54 38.7, 53 19.96, 69.15 1.81 M24.94 58.78 C42.73 38.86, 59.34 17.99, 74.8 1.42 M24.94 58.78 C43.35 36.29, 63.13 14.24, 74.8 1.42 M29.92 59.14 C47.62 36.17, 65.69 15.21, 79.78 1.78 M29.92 59.14 C42.08 44.17, 54.68 29.58, 79.78 1.78 M35.57 58.74 C52.59 37.7, 69.68 17.61, 84.77 2.14 M35.57 58.74 C50.73 42.13, 65.12 23.87, 84.77 2.14 M40.55 59.1 C53.94 42.84, 67.74 29.29, 90.41 1.74 M40.55 59.1 C58.64 39.72, 76.53 19.17, 90.41 1.74 M45.54 59.46 C55.46 48.41, 69.41 35.27, 95.4 2.1 M45.54 59.46 C61.63 41.78, 76.75 24.32, 95.4 2.1 M51.18 59.07 C63.09 48.26, 72.18 34.56, 101.04 1.71 M51.18 59.07 C68.34 39.97, 84.78 21.67, 101.04 1.71 M56.17 59.43 C69.11 46.82, 78.55 32.24, 106.03 2.07 M56.17 59.43 C73.82 38.08, 92.44 17.61, 106.03 2.07 M61.81 59.03 C80.96 39.45, 98.93 16.74, 111.67 1.68 M61.81 59.03 C80.99 36.05, 101.09 13.95, 111.67 1.68 M66.8 59.39 C79.11 44.97, 93.58 27.94, 116.66 2.04 M66.8 59.39 C86.68 35.95, 106.76 12.97, 116.66 2.04 M72.44 59 C85.41 41.84, 102.5 24.91, 121.65 2.4 M72.44 59 C86.8 42.19, 102.15 24.98, 121.65 2.4 M77.43 59.36 C91.7 40.48, 107.14 23.63, 127.29 2 M77.43 59.36 C87.97 48.9, 98.31 36.07, 127.29 2 M82.42 59.72 C94.13 48.64, 102.63 34.35, 132.28 2.36 M82.42 59.72 C99.38 41.94, 113.56 23.57, 132.28 2.36 M88.06 59.32 C99.6 46.98, 110.06 32.63, 137.92 1.97 M88.06 59.32 C106.45 39.25, 124.33 17.57, 137.92 1.97 M93.05 59.68 C111.69 36.86, 133.48 15.83, 142.91 2.33 M93.05 59.68 C112.23 39.36, 130.45 17.75, 142.91 2.33 M98.69 59.29 C112.03 41.69, 127.37 28.4, 148.55 1.93 M98.69 59.29 C112.93 43.82, 126.07 29.6, 148.55 1.93 M103.68 59.65 C119.38 44.13, 133.55 27.43, 153.54 2.29 M103.68 59.65 C123.91 36.79, 142.58 14.69, 153.54 2.29 M109.32 59.26 C121.17 46, 134.65 31.73, 158.52 2.65 M109.32 59.26 C125.82 39.05, 143.79 18.87, 158.52 2.65 M114.31 59.62 C128.9 42.42, 140.16 30.25, 164.17 2.26 M114.31 59.62 C132.21 38.45, 149.51 18.11, 164.17 2.26 M119.29 59.98 C132.43 46.67, 143.23 32.37, 169.81 1.86 M119.29 59.98 C131.11 46.42, 144.27 31.94, 169.81 1.86 M124.94 59.58 C138.49 44.51, 147.44 31.44, 172.83 4.49 M124.94 59.58 C144.89 38.94, 162.76 17.32, 172.83 4.49 M129.92 59.94 C146.75 40, 160.41 25.44, 175.19 7.87 M129.92 59.94 C148.46 40.33, 165.88 18.83, 175.19 7.87 M135.57 59.55 C146.04 46.16, 153.72 35.61, 176.9 12 M135.57 59.55 C148.4 44.9, 161.67 28.66, 176.9 12 M140.55 59.91 C150.18 47.84, 162.52 37.78, 176.64 18.4 M140.55 59.91 C149.53 49.11, 158.33 38.71, 176.64 18.4 M146.2 59.51 C155.12 51.76, 162.3 41.15, 176.38 24.8 M146.2 59.51 C155.08 49.44, 164.6 37.36, 176.38 24.8 M151.18 59.87 C155.28 52.67, 163.85 46.19, 176.77 30.44 M151.18 59.87 C159.56 51.12, 169.15 39.71, 176.77 30.44 M156.83 59.48 C162.79 51.61, 172.64 40.97, 176.51 36.84 M156.83 59.48 C160.25 55.01, 164.29 50.05, 176.51 36.84 M161.81 59.84 C165.74 53.08, 173.31 49.07, 176.25 43.23 M161.81 59.84 C166.98 54.66, 170.27 49.49, 176.25 43.23 M168.77 57.93 C170.66 56.58, 172.16 54.76, 175.99 49.63 M168.77 57.93 C171.86 54.12, 174.68 51.33, 175.99 49.63" stroke="#ced4da" stroke-width="0.5" fill="none"></path><path d="M14.85 0 M14.85 0 C65.91 2.25, 119.21 -0.59, 161.55 0 M161.55 0 C171.3 0.62, 175.13 6.71, 176.39 14.85 M176.39 14.85 C175.62 26.08, 177.36 35.25, 176.39 44.54 M176.39 44.54 C175.03 53.07, 170.5 60.92, 161.55 59.38 M161.55 59.38 C106.22 61.39, 50.77 59.58, 14.85 59.38 M14.85 59.38 C4.53 58.39, 1.88 56.4, 0 44.54 M0 44.54 C-1.19 35.33, -1.03 22.77, 0 14.85 M0 14.85 C0.25 6.59, 4.93 0.76, 14.85 0" stroke="#000000" stroke-width="1.5" fill="none" stroke-dasharray="1.5 7"></path></g><g stroke-linecap="round" transform="translate(681.5325788490475 351.2532958984375) rotate(0 88.197265625 29.69140625)"><path d="M2.09 5.79 C2.09 5.79, 2.09 5.79, 2.09 5.79 M2.09 5.79 C2.09 5.79, 2.09 5.79, 2.09 5.79 M1.83 12.19 C4.11 9.87, 6.16 6.42, 8.39 4.64 M1.83 12.19 C3.63 10.98, 4.87 8.82, 8.39 4.64 M1.57 18.59 C4.03 14.78, 7.74 9.74, 16.66 1.23 M1.57 18.59 C5.76 13.12, 11.2 6.97, 16.66 1.23 M1.31 24.99 C9.72 15.16, 14.83 9.45, 21.65 1.59 M1.31 24.99 C6.02 19.59, 9.82 14.79, 21.65 1.59 M1.7 30.63 C6.93 24.37, 13.5 19.45, 27.29 1.2 M1.7 30.63 C9.17 20.25, 18.17 11.66, 27.29 1.2 M1.44 37.03 C7.52 30.75, 16.1 21.01, 32.28 1.56 M1.44 37.03 C12.33 23.52, 23.91 11.44, 32.28 1.56 M1.84 42.67 C9.44 34.63, 16.93 23.27, 37.26 1.92 M1.84 42.67 C12.76 30.13, 25.74 15.81, 37.26 1.92 M1.57 49.07 C10.3 39.13, 21.66 27.78, 42.91 1.52 M1.57 49.07 C11.45 38.61, 22.17 26.81, 42.91 1.52 M2.62 53.96 C18.01 35.13, 36.61 15.09, 47.89 1.88 M2.62 53.96 C20.57 33.14, 38.05 14.46, 47.89 1.88 M5.64 56.58 C22.79 36.49, 40.51 19.17, 53.54 1.49 M5.64 56.58 C16.94 42.33, 29.05 28.98, 53.54 1.49 M8.66 59.21 C27.4 35.8, 47.26 16.64, 58.52 1.85 M8.66 59.21 C23.63 41.44, 38.85 23.89, 58.52 1.85 M14.31 58.81 C32 39.24, 46.36 20.07, 64.17 1.45 M14.31 58.81 C24.4 46.52, 36.12 34.01, 64.17 1.45 M19.29 59.17 C32.47 46.52, 43.34 31.92, 69.15 1.81 M19.29 59.17 C30.22 48.64, 40.05 36.66, 69.15 1.81 M24.94 58.78 C43.92 37.72, 63.46 14.56, 74.8 1.42 M24.94 58.78 C35.86 46.34, 45.38 35.92, 74.8 1.42 M29.92 59.14 C42.34 45.59, 56.11 27.75, 79.78 1.78 M29.92 59.14 C44.69 41.46, 58.77 25.97, 79.78 1.78 M35.57 58.74 C49.32 41.94, 65.09 24.74, 84.77 2.14 M35.57 58.74 C48.29 45.18, 59.28 31.37, 84.77 2.14 M40.55 59.1 C58.84 38.27, 78.54 16.64, 90.41 1.74 M40.55 59.1 C57.96 40.21, 73.77 23.49, 90.41 1.74 M45.54 59.46 C55.75 45.83, 67.17 33.09, 95.4 2.1 M45.54 59.46 C57.22 46.81, 68.81 32.8, 95.4 2.1 M51.18 59.07 C70.76 38.11, 89.26 17.16, 101.04 1.71 M51.18 59.07 C67.65 39.21, 85.23 17.75, 101.04 1.71 M56.17 59.43 C70.01 46.5, 79.3 30.66, 106.03 2.07 M56.17 59.43 C69.07 44.16, 80.61 29.56, 106.03 2.07 M61.81 59.03 C71.78 46.48, 80.56 33.98, 111.67 1.68 M61.81 59.03 C79.62 38.67, 96.41 19.07, 111.67 1.68 M66.8 59.39 C81.14 44.92, 91.91 30.95, 116.66 2.04 M66.8 59.39 C77.17 47.76, 88.7 35.42, 116.66 2.04 M72.44 59 C92.25 38.85, 109.74 17.52, 121.65 2.4 M72.44 59 C81.53 47.87, 92.99 34.8, 121.65 2.4 M77.43 59.36 C91.43 43.55, 108.19 25.21, 127.29 2 M77.43 59.36 C90.13 45.82, 101.94 32.65, 127.29 2 M82.42 59.72 C94.72 44.03, 108.16 29.54, 132.28 2.36 M82.42 59.72 C99.65 40.75, 116.52 21.74, 132.28 2.36 M88.06 59.32 C103.97 40.93, 119.83 20.8, 137.92 1.97 M88.06 59.32 C100.19 43.69, 114.67 30.24, 137.92 1.97 M93.05 59.68 C103.71 44.1, 116.28 31.13, 142.91 2.33 M93.05 59.68 C105.74 44.71, 118.12 30.84, 142.91 2.33 M98.69 59.29 C110.94 47.1, 121.36 32.06, 148.55 1.93 M98.69 59.29 C108.96 45.39, 120.36 33.98, 148.55 1.93 M103.68 59.65 C115.98 46.56, 126.56 36.41, 153.54 2.29 M103.68 59.65 C121.64 37.35, 142.21 17.09, 153.54 2.29 M109.32 59.26 C123.39 45.39, 133.67 27.94, 158.52 2.65 M109.32 59.26 C123.76 40.4, 139.73 23.94, 158.52 2.65 M114.31 59.62 C135.05 36.73, 152.64 16.43, 164.17 2.26 M114.31 59.62 C128.06 44.48, 142.83 27.58, 164.17 2.26 M119.29 59.98 C136.34 38.83, 154.28 18.97, 169.81 1.86 M119.29 59.98 C135.08 42.41, 149.54 24.28, 169.81 1.86 M124.94 59.58 C140.88 42.32, 152.83 25.46, 172.83 4.49 M124.94 59.58 C134.83 48.4, 145.4 36.34, 172.83 4.49 M129.92 59.94 C141.99 50.1, 148.73 38.26, 175.19 7.87 M129.92 59.94 C139.49 50.41, 147.39 38.54, 175.19 7.87 M135.57 59.55 C147.23 45.33, 157.93 35.87, 176.9 12 M135.57 59.55 C150.76 42.14, 167.59 23.7, 176.9 12 M140.55 59.91 C150.51 47.28, 160.38 35.29, 176.64 18.4 M140.55 59.91 C149.07 50.85, 156.95 43.12, 176.64 18.4 M146.2 59.51 C153.62 49.27, 164.8 39.28, 176.38 24.8 M146.2 59.51 C155.16 49.94, 161.67 41.47, 176.38 24.8 M151.18 59.87 C160.37 51.73, 166.86 39.11, 176.77 30.44 M151.18 59.87 C160.06 47.94, 169.94 38.28, 176.77 30.44 M156.83 59.48 C163.73 51.78, 170.72 41.47, 176.51 36.84 M156.83 59.48 C163.41 53.67, 167.15 45.87, 176.51 36.84 M161.81 59.84 C165.16 56.38, 169.92 52.3, 176.25 43.23 M161.81 59.84 C166.12 54.37, 172.17 49.26, 176.25 43.23 M168.77 57.93 C171.38 55.47, 174.99 52.56, 175.99 49.63 M168.77 57.93 C171.21 54.73, 174.24 51.63, 175.99 49.63" stroke="#ced4da" stroke-width="0.5" fill="none"></path><path d="M14.85 0 M14.85 0 C51.41 -3.08, 91.5 -2.26, 161.55 0 M161.55 0 C172.59 0.96, 175.4 3.88, 176.39 14.85 M176.39 14.85 C176.41 21.76, 176.04 28.54, 176.39 44.54 M176.39 44.54 C177.72 54.86, 170 60.32, 161.55 59.38 M161.55 59.38 C129.67 58.48, 97.92 59.8, 14.85 59.38 M14.85 59.38 C3.54 61.2, 0.22 53.76, 0 44.54 M0 44.54 C-1.16 38.99, 1.98 31.51, 0 14.85 M0 14.85 C1.24 5.3, 6.06 -1.32, 14.85 0" stroke="#000000" stroke-width="1.5" fill="none" stroke-dasharray="1.5 7"></path></g><g transform="translate(739.3498453132809 368.4447021484375) rotate(0 30.3799991607666 12)"><text x="30.3799991607666" y="0" font-family="Virgil, Segoe UI Emoji" font-size="20px" fill="#000000" text-anchor="middle" style="white-space: pre;" direction="ltr" dominant-baseline="text-before-edge">delete</text></g><g transform="translate(509.26281490251426 369.9915771484375) rotate(0 34.5099983215332 12)"><text x="34.5099983215332" y="0" font-family="Virgil, Segoe UI Emoji" font-size="20px" fill="#000000" text-anchor="middle" style="white-space: pre;" direction="ltr" dominant-baseline="text-before-edge">status</text></g><g stroke-linecap="round" transform="translate(215.21421947404747 688.7376708984375) rotate(0 337.673828125 29.697265625)"><path d="M14.85 0 M14.85 0 C208.95 -0.8, 404.71 -0.64, 660.5 0 M14.85 0 C249.44 -0.37, 484.65 -0.8, 660.5 0 M660.5 0 C669.14 -1.1, 673.37 3.4, 675.35 14.85 M660.5 0 C668.5 -0.88, 677.22 2.92, 675.35 14.85 M675.35 14.85 C675.28 23.48, 675.4 28.77, 675.35 44.55 M675.35 14.85 C674.14 23.64, 675.4 32.36, 675.35 44.55 M675.35 44.55 C676.03 55.73, 669.89 58.62, 660.5 59.39 M675.35 44.55 C674.44 52.63, 672.35 59.33, 660.5 59.39 M660.5 59.39 C496.25 59.43, 331.06 59.97, 14.85 59.39 M660.5 59.39 C403.3 61.13, 146.67 61.18, 14.85 59.39 M14.85 59.39 C6.55 60.56, 1.19 54.74, 0 44.55 M14.85 59.39 C6.52 58.88, 1.82 55.01, 0 44.55 M0 44.55 C-2.23 35.26, 0.04 27.33, 0 14.85 M0 44.55 C-0.55 38.71, 0.51 31.61, 0 14.85 M0 14.85 C1.68 5.57, 3.69 -0.16, 14.85 0 M0 14.85 C2.03 6.18, 6.59 -1.51, 14.85 0" stroke="#e67700" stroke-width="1" fill="none"></path></g><g transform="translate(407.88804759904747 705.9349365234375) rotate(0 145 12)"><text x="145" y="0" font-family="Virgil, Segoe UI Emoji" font-size="20px" fill="#e67700" text-anchor="middle" style="white-space: pre;" direction="ltr" dominant-baseline="text-before-edge">Remote server - InterLink (?)</text></g><g stroke-linecap="round" transform="translate(222.91148509904747 622.81640625) rotate(0 88.197265625 29.69140625)"><path d="M2.09 5.79 C2.09 5.79, 2.09 5.79, 2.09 5.79 M2.09 5.79 C2.09 5.79, 2.09 5.79, 2.09 5.79 M1.83 12.19 C4.65 10.31, 5.34 6.85, 8.39 4.64 M1.83 12.19 C3.76 9.87, 6.66 6.74, 8.39 4.64 M1.57 18.59 C5.71 11.16, 12.26 6.54, 16.66 1.23 M1.57 18.59 C5.18 13.94, 9.95 10.43, 16.66 1.23 M1.31 24.99 C6.55 18.65, 14.13 10.62, 21.65 1.59 M1.31 24.99 C5 20.65, 10.83 16, 21.65 1.59 M1.7 30.63 C8.37 21.18, 16.1 13.36, 27.29 1.2 M1.7 30.63 C9.79 21.44, 16.32 13.37, 27.29 1.2 M1.44 37.03 C10.61 23.01, 21.63 12.61, 32.28 1.56 M1.44 37.03 C11.37 25.07, 22.39 14.02, 32.28 1.56 M1.84 42.67 C12.29 30.35, 23.65 18.19, 37.26 1.92 M1.84 42.67 C16.08 26.7, 29.18 10.32, 37.26 1.92 M1.57 49.07 C17.18 34.03, 31.66 16.22, 42.91 1.52 M1.57 49.07 C17.07 30.76, 31.89 13.48, 42.91 1.52 M2.62 53.96 C14.32 38.26, 28.5 22.81, 47.89 1.88 M2.62 53.96 C15.2 37.7, 28.3 22.68, 47.89 1.88 M5.64 56.58 C15.98 45.4, 27.35 33.32, 53.54 1.49 M5.64 56.58 C25.28 35.33, 43.09 14.49, 53.54 1.49 M8.66 59.21 C23.22 46.2, 34.08 28.74, 58.52 1.85 M8.66 59.21 C20.37 44.87, 32.68 30.98, 58.52 1.85 M14.31 58.81 C27.47 44.25, 38.74 29.66, 64.17 1.45 M14.31 58.81 C30.9 39.31, 47.62 20.03, 64.17 1.45 M19.29 59.17 C33.25 41.11, 47.62 27.62, 69.15 1.81 M19.29 59.17 C35.06 40.87, 49.17 24.59, 69.15 1.81 M24.94 58.78 C37.5 45.83, 48.91 31.46, 74.8 1.42 M24.94 58.78 C40.82 41.73, 56.73 22.61, 74.8 1.42 M29.92 59.14 C49.31 38.13, 69.93 12.76, 79.78 1.78 M29.92 59.14 C46.73 38.11, 65.24 19.29, 79.78 1.78 M35.57 58.74 C50.85 43.19, 61.05 26.65, 84.77 2.14 M35.57 58.74 C53.52 38.28, 70.67 18.58, 84.77 2.14 M40.55 59.1 C56.69 40.22, 76.72 21.21, 90.41 1.74 M40.55 59.1 C55.64 42.03, 72.49 22.48, 90.41 1.74 M45.54 59.46 C66.08 38.81, 85.27 12.78, 95.4 2.1 M45.54 59.46 C57.06 47.36, 69.19 33.04, 95.4 2.1 M51.18 59.07 C70.92 39.02, 89.61 15.1, 101.04 1.71 M51.18 59.07 C69.19 38.3, 88.37 17.31, 101.04 1.71 M56.17 59.43 C73.63 40.49, 91.27 18.58, 106.03 2.07 M56.17 59.43 C67.48 45.22, 80.26 32.9, 106.03 2.07 M61.81 59.03 C73.01 46.18, 85.53 30.36, 111.67 1.68 M61.81 59.03 C76.1 42.22, 90.39 26.58, 111.67 1.68 M66.8 59.39 C85.37 39.33, 101.61 21.39, 116.66 2.04 M66.8 59.39 C78.24 47.21, 89.99 32.79, 116.66 2.04 M72.44 59 C85.96 45.22, 98.98 27.41, 121.65 2.4 M72.44 59 C88.27 41.08, 103.73 23.38, 121.65 2.4 M77.43 59.36 C87.79 47.68, 96.16 36.06, 127.29 2 M77.43 59.36 C95.22 39.15, 112.33 19.93, 127.29 2 M82.42 59.72 C93.22 46.59, 107.46 30.55, 132.28 2.36 M82.42 59.72 C96.79 41.64, 112.32 25.3, 132.28 2.36 M88.06 59.32 C105.74 36.32, 125.82 18.55, 137.92 1.97 M88.06 59.32 C103.87 41.78, 118.61 22.13, 137.92 1.97 M93.05 59.68 C107.31 41.86, 122.18 26.39, 142.91 2.33 M93.05 59.68 C111.2 40.02, 130.03 18.27, 142.91 2.33 M98.69 59.29 C114.03 45.2, 124.37 28.47, 148.55 1.93 M98.69 59.29 C117.93 37.31, 136.08 15.06, 148.55 1.93 M103.68 59.65 C123.8 37.1, 143.93 13.99, 153.54 2.29 M103.68 59.65 C113.76 48.34, 124.99 35.21, 153.54 2.29 M109.32 59.26 C130.07 37.09, 148.6 16.27, 158.52 2.65 M109.32 59.26 C125.07 41.12, 139.5 25.44, 158.52 2.65 M114.31 59.62 C130.23 40.41, 149.09 20.97, 164.17 2.26 M114.31 59.62 C125.71 47.44, 136.79 32.67, 164.17 2.26 M119.29 59.98 C128.62 49.32, 138.69 36.1, 169.81 1.86 M119.29 59.98 C129.57 47.21, 140.87 35.43, 169.81 1.86 M124.94 59.58 C135.03 49.43, 144.3 36.88, 172.83 4.49 M124.94 59.58 C134.34 48.79, 145.4 35.7, 172.83 4.49 M129.92 59.94 C139.91 48.01, 147.88 38.19, 175.19 7.87 M129.92 59.94 C145.58 44.44, 158.54 26.94, 175.19 7.87 M135.57 59.55 C148.99 42.52, 162.91 25.42, 176.9 12 M135.57 59.55 C152.08 40.53, 168.97 22.04, 176.9 12 M140.55 59.91 C153.67 45.16, 163.08 32.61, 176.64 18.4 M140.55 59.91 C148.6 51.49, 156.41 41.92, 176.64 18.4 M146.2 59.51 C153.37 51.33, 162.84 39.51, 176.38 24.8 M146.2 59.51 C153.44 52.19, 160.64 42.7, 176.38 24.8 M151.18 59.87 C158.31 50.23, 163.41 46.1, 176.77 30.44 M151.18 59.87 C156.38 52.27, 163.38 45.64, 176.77 30.44 M156.83 59.48 C165.93 52.96, 171.69 42.43, 176.51 36.84 M156.83 59.48 C162.15 53.85, 165.99 47.4, 176.51 36.84 M161.81 59.84 C165.33 51.83, 173.3 47.25, 176.25 43.23 M161.81 59.84 C167.3 53.47, 172.95 46.81, 176.25 43.23 M168.77 57.93 C169.42 55.7, 171.87 54.09, 175.99 49.63 M168.77 57.93 C171.23 55.06, 174.05 51.62, 175.99 49.63" stroke="#ced4da" stroke-width="0.5" fill="none"></path><path d="M14.85 0 M14.85 0 C48.14 0.54, 85.33 1.79, 161.55 0 M161.55 0 C171.06 -1.24, 178.23 3.42, 176.39 14.85 M176.39 14.85 C178.15 22.45, 176.49 27.21, 176.39 44.54 M176.39 44.54 C176.92 55.68, 172.87 57.61, 161.55 59.38 M161.55 59.38 C106.29 59.39, 50.78 61.49, 14.85 59.38 M14.85 59.38 C5.54 57.68, 0.44 52.77, 0 44.54 M0 44.54 C-0.49 35.3, -1.85 20.43, 0 14.85 M0 14.85 C-1.87 3.84, 4.53 -0.06, 14.85 0" stroke="#000000" stroke-width="1.5" fill="none" stroke-dasharray="1.5 7"></path></g><g transform="translate(283.11874904558067 640.0078125) rotate(0 27.990001678466797 12)"><text x="27.990001678466797" y="0" font-family="Virgil, Segoe UI Emoji" font-size="20px" fill="#000000" text-anchor="middle" style="white-space: pre;" direction="ltr" dominant-baseline="text-before-edge">POST</text></g><g stroke-linecap="round" transform="translate(461.82554759904747 618.171875) rotate(0 88.197265625 29.69140625)"><path d="M2.09 5.79 C2.09 5.79, 2.09 5.79, 2.09 5.79 M2.09 5.79 C2.09 5.79, 2.09 5.79, 2.09 5.79 M1.83 12.19 C4.83 10.12, 6.18 7.71, 8.39 4.64 M1.83 12.19 C4.19 9.88, 5.55 7.6, 8.39 4.64 M1.57 18.59 C8.46 13.19, 10.98 5.21, 16.66 1.23 M1.57 18.59 C7.34 12.91, 12.76 6.64, 16.66 1.23 M1.31 24.99 C4.76 20.23, 12.13 15.23, 21.65 1.59 M1.31 24.99 C5.35 19.2, 11.5 14.04, 21.65 1.59 M1.7 30.63 C8.04 21.68, 12.55 16.37, 27.29 1.2 M1.7 30.63 C10.95 20.75, 20.38 8.32, 27.29 1.2 M1.44 37.03 C9.99 27.6, 18.49 16.53, 32.28 1.56 M1.44 37.03 C11.1 26.12, 19.99 17.16, 32.28 1.56 M1.84 42.67 C13.87 24.83, 31.46 10.47, 37.26 1.92 M1.84 42.67 C10.62 32.55, 20.85 21.73, 37.26 1.92 M1.57 49.07 C9.73 38.12, 21.47 29.12, 42.91 1.52 M1.57 49.07 C12.63 37.28, 23.64 24.9, 42.91 1.52 M2.62 53.96 C16.19 39.56, 27.87 27.45, 47.89 1.88 M2.62 53.96 C20.85 33.79, 38.21 13.76, 47.89 1.88 M5.64 56.58 C17.04 41.1, 29.38 28.36, 53.54 1.49 M5.64 56.58 C22.08 36.15, 40.54 16.48, 53.54 1.49 M8.66 59.21 C26.52 40.02, 42.28 20.5, 58.52 1.85 M8.66 59.21 C29.22 36.91, 48.2 13.61, 58.52 1.85 M14.31 58.81 C36.28 36.49, 55.92 15.38, 64.17 1.45 M14.31 58.81 C24.46 46.09, 37.17 33.06, 64.17 1.45 M19.29 59.17 C34.03 41.95, 49.39 24.27, 69.15 1.81 M19.29 59.17 C33.16 42.94, 47.72 25.9, 69.15 1.81 M24.94 58.78 C40.19 43.43, 53.75 26.25, 74.8 1.42 M24.94 58.78 C42.91 38.38, 59.91 19.76, 74.8 1.42 M29.92 59.14 C44.54 40.51, 58.4 24.01, 79.78 1.78 M29.92 59.14 C47.92 38.41, 64.52 18.71, 79.78 1.78 M35.57 58.74 C53.16 38.4, 72.78 15.38, 84.77 2.14 M35.57 58.74 C47.97 45.99, 57.78 33.4, 84.77 2.14 M40.55 59.1 C51.42 45.28, 65.64 33.32, 90.41 1.74 M40.55 59.1 C55.18 43.01, 70.81 24.49, 90.41 1.74 M45.54 59.46 C60.83 42.34, 76.5 22.39, 95.4 2.1 M45.54 59.46 C57.62 45.36, 69.76 31.43, 95.4 2.1 M51.18 59.07 C63.56 42.22, 79.73 27.85, 101.04 1.71 M51.18 59.07 C64.6 43.91, 78.43 27.55, 101.04 1.71 M56.17 59.43 C74.42 38.27, 92.27 15.06, 106.03 2.07 M56.17 59.43 C74.45 37.3, 93.3 16.77, 106.03 2.07 M61.81 59.03 C79.73 38.57, 99.97 17.1, 111.67 1.68 M61.81 59.03 C73.41 44.72, 86.53 30.88, 111.67 1.68 M66.8 59.39 C82.75 41.39, 95.88 26.01, 116.66 2.04 M66.8 59.39 C77.82 46.87, 89.99 33.8, 116.66 2.04 M72.44 59 C87.22 41.12, 102.8 26.9, 121.65 2.4 M72.44 59 C84.68 45.69, 95.68 31.53, 121.65 2.4 M77.43 59.36 C92.72 42.05, 112.6 19.74, 127.29 2 M77.43 59.36 C89.53 44.35, 102.32 29.47, 127.29 2 M82.42 59.72 C94.38 46.46, 105.18 34.17, 132.28 2.36 M82.42 59.72 C94.74 45.03, 108.01 28.62, 132.28 2.36 M88.06 59.32 C103.55 43.65, 117.92 27.56, 137.92 1.97 M88.06 59.32 C106.42 38.15, 124.61 18.27, 137.92 1.97 M93.05 59.68 C104.24 46.47, 118.45 33.02, 142.91 2.33 M93.05 59.68 C105.84 44.72, 118.4 28.82, 142.91 2.33 M98.69 59.29 C120.65 35.22, 137.23 14.84, 148.55 1.93 M98.69 59.29 C109.95 45.81, 124.56 30.37, 148.55 1.93 M103.68 59.65 C120.18 43.33, 133.83 24.06, 153.54 2.29 M103.68 59.65 C117.24 41.72, 131.05 26.42, 153.54 2.29 M109.32 59.26 C125.34 41.54, 139.48 24.19, 158.52 2.65 M109.32 59.26 C124.27 41.44, 138.95 25.31, 158.52 2.65 M114.31 59.62 C126.76 43.93, 140.32 29.45, 164.17 2.26 M114.31 59.62 C131.07 39.37, 148.62 20.99, 164.17 2.26 M119.29 59.98 C138.32 39.12, 151.72 21.73, 169.81 1.86 M119.29 59.98 C133.41 42.83, 148.27 26.66, 169.81 1.86 M124.94 59.58 C141.32 38.97, 161.72 18.12, 172.83 4.49 M124.94 59.58 C140.83 39.78, 158.13 20.44, 172.83 4.49 M129.92 59.94 C146.96 41.35, 157.95 24.36, 175.19 7.87 M129.92 59.94 C141.47 47.33, 152.67 34.58, 175.19 7.87 M135.57 59.55 C149.08 45.07, 162.72 28.25, 176.9 12 M135.57 59.55 C143.64 49.77, 153.02 38.98, 176.9 12 M140.55 59.91 C149.8 51.81, 158.11 40.72, 176.64 18.4 M140.55 59.91 C149.49 49.47, 157.24 41.71, 176.64 18.4 M146.2 59.51 C157.01 44.71, 169.37 31.87, 176.38 24.8 M146.2 59.51 C155.85 48.91, 164.72 39.2, 176.38 24.8 M151.18 59.87 C157.95 51.15, 165.39 42.29, 176.77 30.44 M151.18 59.87 C160.21 51.1, 168.23 40.78, 176.77 30.44 M156.83 59.48 C164.38 54.63, 169.58 44.68, 176.51 36.84 M156.83 59.48 C163.08 50.86, 170.49 43.52, 176.51 36.84 M161.81 59.84 C168.23 52.25, 173.31 49.08, 176.25 43.23 M161.81 59.84 C166.71 54.54, 170.96 49.79, 176.25 43.23 M168.77 57.93 C171.87 55.86, 174.17 51.98, 175.99 49.63 M168.77 57.93 C170.12 55.94, 171.82 54.24, 175.99 49.63" stroke="#ced4da" stroke-width="0.5" fill="none"></path><path d="M14.85 0 M14.85 0 C53.47 0.37, 91.92 1.35, 161.55 0 M161.55 0 C170.75 -1.69, 176.33 3.65, 176.39 14.85 M176.39 14.85 C174.75 21.03, 176.46 29.46, 176.39 44.54 M176.39 44.54 C176.82 55.64, 170.49 61.01, 161.55 59.38 M161.55 59.38 C123.96 59.77, 88.68 59.86, 14.85 59.38 M14.85 59.38 C3.48 58.85, -0.17 55.89, 0 44.54 M0 44.54 C-0.29 37.48, 1.4 30.49, 0 14.85 M0 14.85 C-1.99 3.98, 6.05 -0.04, 14.85 0" stroke="#000000" stroke-width="1.5" fill="none" stroke-dasharray="1.5 7"></path></g><g transform="translate(527.3528150551022 635.36328125) rotate(0 22.669998168945312 12)"><text x="22.669998168945312" y="0" font-family="Virgil, Segoe UI Emoji" font-size="20px" fill="#000000" text-anchor="middle" style="white-space: pre;" direction="ltr" dominant-baseline="text-before-edge">GET</text></g><g stroke-linecap="round" transform="translate(697.9700788490475 617.0625) rotate(0 88.197265625 29.69140625)"><path d="M2.09 5.79 C2.09 5.79, 2.09 5.79, 2.09 5.79 M2.09 5.79 C2.09 5.79, 2.09 5.79, 2.09 5.79 M1.83 12.19 C3.23 10.74, 4.88 8.42, 8.39 4.64 M1.83 12.19 C4.5 9.31, 7.1 6.33, 8.39 4.64 M1.57 18.59 C6.57 12.22, 14.81 3.48, 16.66 1.23 M1.57 18.59 C6.55 11.26, 13.73 4.77, 16.66 1.23 M1.31 24.99 C7.17 18.57, 9.83 13.24, 21.65 1.59 M1.31 24.99 C8.79 16.45, 14.43 8.73, 21.65 1.59 M1.7 30.63 C9.4 22.28, 12.26 17.07, 27.29 1.2 M1.7 30.63 C7.62 23.86, 14.06 14.99, 27.29 1.2 M1.44 37.03 C14.5 22.32, 24.39 8.72, 32.28 1.56 M1.44 37.03 C11.06 26.39, 19.13 16.59, 32.28 1.56 M1.84 42.67 C14.39 28.51, 28.89 11.05, 37.26 1.92 M1.84 42.67 C14.05 28.15, 25.86 13.01, 37.26 1.92 M1.57 49.07 C13.2 35.5, 26.07 22.68, 42.91 1.52 M1.57 49.07 C16.19 32.12, 30.57 16.19, 42.91 1.52 M2.62 53.96 C18.84 36.75, 30.95 18.86, 47.89 1.88 M2.62 53.96 C18.28 34.86, 35.75 15.2, 47.89 1.88 M5.64 56.58 C23.83 37.11, 42.21 15.52, 53.54 1.49 M5.64 56.58 C20.79 38.61, 35.21 22.77, 53.54 1.49 M8.66 59.21 C29.97 38.32, 47.74 14.79, 58.52 1.85 M8.66 59.21 C22.97 41.93, 39.77 23.4, 58.52 1.85 M14.31 58.81 C29.46 40.53, 44.27 25.32, 64.17 1.45 M14.31 58.81 C31.39 38.14, 50.41 15.24, 64.17 1.45 M19.29 59.17 C37.19 39.65, 50.98 23.26, 69.15 1.81 M19.29 59.17 C35.36 39.8, 52.35 20.41, 69.15 1.81 M24.94 58.78 C41.96 36.99, 59.6 15.88, 74.8 1.42 M24.94 58.78 C44.67 37.08, 63.34 15.19, 74.8 1.42 M29.92 59.14 C43.93 44.02, 53.66 31.13, 79.78 1.78 M29.92 59.14 C45.5 39.04, 62.13 21.6, 79.78 1.78 M35.57 58.74 C46.31 44.9, 57.03 34.93, 84.77 2.14 M35.57 58.74 C46.17 47.53, 56.03 35.81, 84.77 2.14 M40.55 59.1 C57.74 38.93, 74.13 16.33, 90.41 1.74 M40.55 59.1 C56.71 41.33, 71.04 24.62, 90.41 1.74 M45.54 59.46 C65.07 38.1, 86.43 15.26, 95.4 2.1 M45.54 59.46 C64.37 37.46, 84.03 16.87, 95.4 2.1 M51.18 59.07 C64.08 44.17, 73.52 32.6, 101.04 1.71 M51.18 59.07 C64.43 46.32, 74.83 31.85, 101.04 1.71 M56.17 59.43 C74.06 38.55, 94.04 15.01, 106.03 2.07 M56.17 59.43 C66.85 47.02, 78.03 33.09, 106.03 2.07 M61.81 59.03 C73.84 42.46, 89.08 27.8, 111.67 1.68 M61.81 59.03 C73.83 46.09, 82.73 35.44, 111.67 1.68 M66.8 59.39 C84.43 40.02, 99.67 20.38, 116.66 2.04 M66.8 59.39 C84.54 38.88, 103.17 19.3, 116.66 2.04 M72.44 59 C87.66 41.01, 100.46 26.05, 121.65 2.4 M72.44 59 C83.45 44.85, 94.87 32.57, 121.65 2.4 M77.43 59.36 C94.44 38.76, 115.87 19.09, 127.29 2 M77.43 59.36 C96.8 39.18, 115.73 18.32, 127.29 2 M82.42 59.72 C98.38 42.25, 113.01 23.44, 132.28 2.36 M82.42 59.72 C96.15 42.78, 110.09 26.46, 132.28 2.36 M88.06 59.32 C103.49 42.57, 120.19 24.7, 137.92 1.97 M88.06 59.32 C105.27 40.8, 120.95 21.84, 137.92 1.97 M93.05 59.68 C112.08 38.52, 131.01 16.36, 142.91 2.33 M93.05 59.68 C104.23 45.82, 117.41 29.91, 142.91 2.33 M98.69 59.29 C112.37 43.38, 125.27 30.81, 148.55 1.93 M98.69 59.29 C111.97 43.33, 127.14 27.24, 148.55 1.93 M103.68 59.65 C123.5 37.86, 140.9 16.62, 153.54 2.29 M103.68 59.65 C121.49 38.42, 139.68 19.36, 153.54 2.29 M109.32 59.26 C124.82 43.38, 136.33 28.32, 158.52 2.65 M109.32 59.26 C119.43 46.69, 129.75 36.91, 158.52 2.65 M114.31 59.62 C134.82 38.11, 153.17 15.7, 164.17 2.26 M114.31 59.62 C130.93 38.37, 148.59 18.44, 164.17 2.26 M119.29 59.98 C135.44 41.54, 152.19 22.66, 169.81 1.86 M119.29 59.98 C130.83 46.99, 140.22 36.22, 169.81 1.86 M124.94 59.58 C140.35 45.06, 150.7 30.19, 172.83 4.49 M124.94 59.58 C142.02 39.26, 159.25 19.26, 172.83 4.49 M129.92 59.94 C144.65 44.43, 156 29.47, 175.19 7.87 M129.92 59.94 C144.35 45.4, 156.98 29.23, 175.19 7.87 M135.57 59.55 C151.13 42.36, 166.91 25.75, 176.9 12 M135.57 59.55 C150.98 42.06, 168.74 22.62, 176.9 12 M140.55 59.91 C153.72 44.73, 164.1 31.41, 176.64 18.4 M140.55 59.91 C152.14 47.38, 161.95 35.66, 176.64 18.4 M146.2 59.51 C158.24 48.23, 169.92 36.08, 176.38 24.8 M146.2 59.51 C152.24 51.95, 158.95 44.16, 176.38 24.8 M151.18 59.87 C162.25 47.41, 171.12 37.57, 176.77 30.44 M151.18 59.87 C158.59 50.97, 165.14 43.95, 176.77 30.44 M156.83 59.48 C161.77 52.48, 167.02 49.87, 176.51 36.84 M156.83 59.48 C163.18 52.17, 170.09 44.37, 176.51 36.84 M161.81 59.84 C164.59 56.11, 170.19 51.72, 176.25 43.23 M161.81 59.84 C166.29 54.22, 169.91 49.76, 176.25 43.23 M168.77 57.93 C171.27 54.48, 173.19 53.48, 175.99 49.63 M168.77 57.93 C171.17 54.43, 174.75 51.55, 175.99 49.63" stroke="#ced4da" stroke-width="0.5" fill="none"></path><path d="M14.85 0 M14.85 0 C62.42 -2.31, 113.88 0.94, 161.55 0 M161.55 0 C171.26 0.83, 175.56 5.87, 176.39 14.85 M176.39 14.85 C174.63 21.02, 176.6 28.44, 176.39 44.54 M176.39 44.54 C175.37 54.92, 170.28 59.69, 161.55 59.38 M161.55 59.38 C127.52 57.16, 94.38 56.35, 14.85 59.38 M14.85 59.38 C6.9 60.21, 0.93 53.21, 0 44.54 M0 44.54 C0.37 37.35, 1.24 32.9, 0 14.85 M0 14.85 C-1.05 5.15, 4.6 0.19, 14.85 0" stroke="#000000" stroke-width="1.5" fill="none" stroke-dasharray="1.5 7"></path></g><g transform="translate(744.1173490516842 634.25390625) rotate(0 42.04999542236328 12)"><text x="42.04999542236328" y="0" font-family="Virgil, Segoe UI Emoji" font-size="20px" fill="#000000" text-anchor="middle" style="white-space: pre;" direction="ltr" dominant-baseline="text-before-edge">DELETE</text></g><g mask="url(#mask-xZSZSMhYvi8zI5EKAvQm_)" stroke-linecap="round"><g transform="translate(312.9225999951907 418.07421875) rotate(0 0.3285547315911117 100.85005962979983)"><path d="M0.39 1 C0.26 34.25, -0.58 166.49, -0.77 199.7 M-0.87 0.48 C-0.61 33.91, 1.09 168.28, 1.53 201.22" stroke="#000000" stroke-width="1" fill="none"></path></g><g transform="translate(312.9225999951907 418.07421875) rotate(0 0.3285547315911117 100.85005962979983)"><path d="M-7.43 171.85 C-5.93 180.16, -1.92 187.83, 2.88 202.54 M-9.91 173.01 C-4.48 183.01, -0.99 195.06, 1.36 201.94" stroke="#000000" stroke-width="1" fill="none"></path></g><g transform="translate(312.9225999951907 418.07421875) rotate(0 0.3285547315911117 100.85005962979983)"><path d="M13.09 171.58 C8.5 180.05, 6.42 187.79, 2.88 202.54 M10.61 172.75 C8.29 182.82, 4.02 194.96, 1.36 201.94" stroke="#000000" stroke-width="1" fill="none"></path></g></g><mask id="mask-xZSZSMhYvi8zI5EKAvQm_"><rect x="0" y="0" fill="#fff" width="412.9445081704514" height="717.79296875"></rect><rect x="253.29355087847534" y="505.93359375" fill="#000" width="119.2800064086914" height="24" opacity="1"></rect></mask><g transform="translate(253.29355087847534 505.93359375) rotate(0 59.95760384830646 12.99068462979983)"><text x="59.6400032043457" y="0" font-family="Virgil, Segoe UI Emoji" font-size="20px" fill="#000000" text-anchor="middle" style="white-space: pre;" direction="ltr" dominant-baseline="text-before-edge">v1.Pod JSON</text></g><g mask="url(#mask-QwMKYvgDa3eDmhqRfTrHQ)" stroke-linecap="round"><g transform="translate(500.91734447404747 416.8984375) rotate(0 1.038007497042372 94.96881476373409)"><path d="M-0.57 -0.51 C-0.18 31.34, 2.11 158.65, 2.64 190.51 M1.33 -1.82 C1.56 30.24, 1.76 159.5, 1.89 191.76" stroke="#000000" stroke-width="1" fill="none"></path></g><g transform="translate(500.91734447404747 416.8984375) rotate(0 1.038007497042372 94.96881476373409)"><path d="M-9.3 164.2 C-6.12 173.47, -2.52 182.05, 3.49 192.24 M-7.93 164.4 C-5.69 171.56, -3.06 180.02, 1.9 192.16" stroke="#000000" stroke-width="1" fill="none"></path></g><g transform="translate(500.91734447404747 416.8984375) rotate(0 1.038007497042372 94.96881476373409)"><path d="M11.22 164.14 C7.68 173.33, 4.55 181.93, 3.49 192.24 M12.59 164.34 C8.97 171.72, 5.74 180.19, 1.9 192.16" stroke="#000000" stroke-width="1" fill="none"></path></g></g><mask id="mask-QwMKYvgDa3eDmhqRfTrHQ"><rect x="0" y="0" fill="#fff" width="603.2025007240475" height="707.95703125"></rect><rect x="467.33992137834434" y="488.427734375" fill="#000" width="69.44000244140625" height="48" opacity="1"></rect></mask><g transform="translate(467.33992137834434 488.427734375) rotate(0 34.6154305927455 23.439517888734088)"><text x="34.720001220703125" y="0" font-family="Virgil, Segoe UI Emoji" font-size="20px" fill="#000000" text-anchor="middle" style="white-space: pre;" direction="ltr" dominant-baseline="text-before-edge">Json:</text><text x="34.720001220703125" y="24" font-family="Virgil, Segoe UI Emoji" font-size="20px" fill="#000000" text-anchor="middle" style="white-space: pre;" direction="ltr" dominant-baseline="text-before-edge">pod uid</text></g><g mask="url(#mask-FAS6qkahkYVoGGftWGqbM)" stroke-linecap="round"><g transform="translate(604.4583600990475 415.34759148626597) rotate(0 1.6824864954454597 95.63140242696272)"><path d="M-0.62 0.54 C-0.37 32.28, 1.05 159.66, 1.62 191.49 M1.25 -0.23 C1.89 31.67, 3.81 157.99, 3.99 189.6" stroke="#000000" stroke-width="1" fill="none"></path></g><g transform="translate(604.4583600990475 415.34759148626597) rotate(0 1.6824864954454597 95.63140242696272)"><path d="M10.84 27.51 C7.16 20.74, 3.91 10.39, -0.64 1.57 M9.58 29.17 C6.9 20.66, 3.86 12.75, -0.71 -0.45" stroke="#000000" stroke-width="1" fill="none"></path></g><g transform="translate(604.4583600990475 415.34759148626597) rotate(0 1.6824864954454597 95.63140242696272)"><path d="M-9.68 27.73 C-7 21, -3.88 10.58, -0.64 1.57 M-10.94 29.39 C-8.05 20.74, -5.51 12.77, -0.71 -0.45" stroke="#000000" stroke-width="1" fill="none"></path></g></g><mask id="mask-FAS6qkahkYVoGGftWGqbM"><rect x="0" y="0" fill="#fff" width="706.7435163490475" height="706.406185236266"></rect><rect x="568.3109373085201" y="474.87688836126597" fill="#000" width="74.58000183105469" height="72" opacity="1"></rect></mask><g transform="translate(568.3109373085201 474.87688836126597) rotate(0 37.8299092859728 36.10210555196272)"><text x="37.290000915527344" y="0" font-family="Virgil, Segoe UI Emoji" font-size="20px" fill="#000000" text-anchor="middle" style="white-space: pre;" direction="ltr" dominant-baseline="text-before-edge">Json:</text><text x="37.290000915527344" y="24" font-family="Virgil, Segoe UI Emoji" font-size="20px" fill="#000000" text-anchor="middle" style="white-space: pre;" direction="ltr" dominant-baseline="text-before-edge">pod uid,</text><text x="37.290000915527344" y="48" font-family="Virgil, Segoe UI Emoji" font-size="20px" fill="#000000" text-anchor="middle" style="white-space: pre;" direction="ltr" dominant-baseline="text-before-edge">status</text></g><g mask="url(#mask-05w760_IYEWSqvqigs7C4)" stroke-linecap="round"><g transform="translate(726.6409772865475 419.28509148626597) rotate(0 1.5230121280393405 95.40096896422097)"><path d="M0.91 0.41 C1.29 32.21, 2.84 158.34, 3.12 190.16 M-0.07 -0.42 C0.15 31.56, 2.26 159.03, 2.61 191.22" stroke="#000000" stroke-width="1" fill="none"></path></g><g transform="translate(726.6409772865475 419.28509148626597) rotate(0 1.5230121280393405 95.40096896422097)"><path d="M-7.36 164.57 C-5.78 173.96, 0.06 182.19, 1.38 192.38 M-7.34 162.51 C-4.4 174.54, -0.04 184.69, 3.41 191.75" stroke="#000000" stroke-width="1" fill="none"></path></g><g transform="translate(726.6409772865475 419.28509148626597) rotate(0 1.5230121280393405 95.40096896422097)"><path d="M13.16 164.28 C7.19 173.94, 5.48 182.27, 1.38 192.38 M13.18 162.22 C8.4 174.33, 5.03 184.59, 3.41 191.75" stroke="#000000" stroke-width="1" fill="none"></path></g></g><mask id="mask-05w760_IYEWSqvqigs7C4"><rect x="0" y="0" fill="#fff" width="828.9261335365475" height="710.343685236266"></rect><rect x="693.0635541908443" y="490.81438836126597" fill="#000" width="69.44000244140625" height="48" opacity="1"></rect></mask><g transform="translate(693.0635541908443 490.81438836126597) rotate(0 35.100435223742465 23.871672089220965)"><text x="34.720001220703125" y="0" font-family="Virgil, Segoe UI Emoji" font-size="20px" fill="#000000" text-anchor="middle" style="white-space: pre;" direction="ltr" dominant-baseline="text-before-edge">Json:</text><text x="34.720001220703125" y="24" font-family="Virgil, Segoe UI Emoji" font-size="20px" fill="#000000" text-anchor="middle" style="white-space: pre;" direction="ltr" dominant-baseline="text-before-edge">pod uid</text></g><g mask="url(#mask-N22AjljkJkGCpWCNBoy9M)" stroke-linecap="round"><g transform="translate(821.1878213063012 422.7729292366696) rotate(0 1.216180556877589 95.20188925191763)"><path d="M0.84 -0.9 C1.12 30.91, 2.53 159.44, 2.62 191.31 M-0.18 1.24 C-0.11 32.63, 1.18 157.65, 1.84 189.31" stroke="#000000" stroke-width="1" fill="none"></path></g><g transform="translate(821.1878213063012 422.7729292366696) rotate(0 1.216180556877589 95.20188925191763)"><path d="M9.87 27.74 C7.73 15.18, 2.12 7.32, 2.36 -1.09 M11.04 27.98 C8.19 19.5, 5.98 11.63, 1.07 -1.34" stroke="#000000" stroke-width="1" fill="none"></path></g><g transform="translate(821.1878213063012 422.7729292366696) rotate(0 1.216180556877589 95.20188925191763)"><path d="M-10.65 27.94 C-5.08 15.16, -2.98 7.22, 2.36 -1.09 M-9.49 28.19 C-6.49 19.78, -2.85 11.86, 1.07 -1.34" stroke="#000000" stroke-width="1" fill="none"></path></g></g><mask id="mask-N22AjljkJkGCpWCNBoy9M"><rect x="0" y="0" fill="#fff" width="923.4729775563012" height="713.8315229866696"></rect><rect x="787.8204011097678" y="494.3022261116696" fill="#000" width="69.0199966430664" height="48" opacity="1"></rect></mask><g transform="translate(787.8204011097678 494.3022261116696) rotate(0 34.58360075341079 23.672592376917635)"><text x="34.5099983215332" y="0" font-family="Virgil, Segoe UI Emoji" font-size="20px" fill="#000000" text-anchor="middle" style="white-space: pre;" direction="ltr" dominant-baseline="text-before-edge">Json:</text><text x="34.5099983215332" y="24" font-family="Virgil, Segoe UI Emoji" font-size="20px" fill="#000000" text-anchor="middle" style="white-space: pre;" direction="ltr" dominant-baseline="text-before-edge">status</text></g><g stroke-linecap="round" transform="translate(200.00328197404747 827.5419921875) rotate(0 105 42.5)"><path d="M21.25 0 M21.25 0 C65.87 1.74, 114.73 3.31, 188.75 0 M21.25 0 C80.13 -0.6, 137.83 -0.03, 188.75 0 M188.75 0 C203.22 0.37, 210.66 8.97, 210 21.25 M188.75 0 C202.94 0.27, 209.91 6.22, 210 21.25 M210 21.25 C210.46 30.83, 208.98 41.29, 210 63.75 M210 21.25 C210.69 37.48, 211.07 51.2, 210 63.75 M210 63.75 C208.53 79.46, 202.86 83.45, 188.75 85 M210 63.75 C211.65 76.17, 204.65 85.65, 188.75 85 M188.75 85 C137.01 87.07, 90.42 83.89, 21.25 85 M188.75 85 C121.7 85.29, 55.22 84.54, 21.25 85 M21.25 85 C7.62 84.59, 0.66 78.67, 0 63.75 M21.25 85 C7.96 84.1, 2.23 79.49, 0 63.75 M0 63.75 C-0.21 51.47, 0.34 39.19, 0 21.25 M0 63.75 C0.6 51.41, -1.02 37.49, 0 21.25 M0 21.25 C-0.02 5.68, 7.99 0.05, 21.25 0 M0 21.25 C-1.83 8.17, 9.16 -0.56, 21.25 0" stroke="#c92a2a" stroke-width="1" fill="none"></path></g><g transform="translate(231.63327922746544 845.0419921875) rotate(0 73.37000274658203 24)"><text x="73.37000274658203" y="0" font-family="Virgil, Segoe UI Emoji" font-size="20px" fill="#c92a2a" text-anchor="middle" style="white-space: pre;" direction="ltr" dominant-baseline="text-before-edge">Mock</text><text x="73.37000274658203" y="24" font-family="Virgil, Segoe UI Emoji" font-size="20px" fill="#c92a2a" text-anchor="middle" style="white-space: pre;" direction="ltr" dominant-baseline="text-before-edge">InterLink plugin</text></g><g stroke-linecap="round" transform="translate(467.90171947404747 826.4150390625) rotate(0 105 41.5)"><path d="M20.75 0 M20.75 0 C73.49 -1.28, 122.09 0.33, 189.25 0 M20.75 0 C83.2 0.93, 146.7 0.58, 189.25 0 M189.25 0 C203.44 -1, 209.97 6.34, 210 20.75 M189.25 0 C205.23 -1.75, 209.9 6.2, 210 20.75 M210 20.75 C209.57 27.51, 211.13 39.06, 210 62.25 M210 20.75 C210.3 29.22, 210.86 39.7, 210 62.25 M210 62.25 C208.16 76.83, 204.79 84.68, 189.25 83 M210 62.25 C208.87 76.69, 204.44 80.99, 189.25 83 M189.25 83 C149.28 84.14, 111.43 84.67, 20.75 83 M189.25 83 C139.65 83.98, 92.11 84.27, 20.75 83 M20.75 83 C5.5 81.39, 0.84 75.3, 0 62.25 M20.75 83 C6.44 83.4, -0.58 73.85, 0 62.25 M0 62.25 C0.9 45.6, -0.58 31.65, 0 20.75 M0 62.25 C0.12 53.42, -1.08 44.33, 0 20.75 M0 20.75 C0.21 5.41, 7.12 1.81, 20.75 0 M0 20.75 C-1.41 7.78, 5.27 0.64, 20.75 0" stroke="#c92a2a" stroke-width="1" fill="none"></path></g><g transform="translate(499.53171672746544 842.9150390625) rotate(0 73.37000274658203 24)"><text x="73.37000274658203" y="0" font-family="Virgil, Segoe UI Emoji" font-size="20px" fill="#c92a2a" text-anchor="middle" style="white-space: pre;" direction="ltr" dominant-baseline="text-before-edge">SLURM </text><text x="73.37000274658203" y="24" font-family="Virgil, Segoe UI Emoji" font-size="20px" fill="#c92a2a" text-anchor="middle" style="white-space: pre;" direction="ltr" dominant-baseline="text-before-edge">InterLink plugin</text></g><g stroke-linecap="round" transform="translate(736.5189069740475 825.2861328125) rotate(0 105 40.5)"><path d="M20.25 0 M20.25 0 C65.74 -0.26, 114.25 -0.44, 189.75 0 M20.25 0 C82.64 0.69, 145.86 0.56, 189.75 0 M189.75 0 C202.18 -1.32, 210.41 6.35, 210 20.25 M189.75 0 C203.76 2.03, 208.94 6.95, 210 20.25 M210 20.25 C209.83 32.67, 209.31 47.41, 210 60.75 M210 20.25 C210.07 28.53, 210.4 37.91, 210 60.75 M210 60.75 C208.92 73.79, 203.91 79.88, 189.75 81 M210 60.75 C211.17 73.47, 204.28 82.25, 189.75 81 M189.75 81 C156.05 79.51, 121.79 80.21, 20.25 81 M189.75 81 C146.97 80.68, 105.51 81.18, 20.25 81 M20.25 81 C5.18 80.01, 0.24 73.93, 0 60.75 M20.25 81 C4.68 81.63, -0.38 73.58, 0 60.75 M0 60.75 C0.07 46.47, 0.63 27.12, 0 20.25 M0 60.75 C0.3 48.46, 1.26 37.63, 0 20.25 M0 20.25 C-0.67 7.81, 5.1 -1.79, 20.25 0 M0 20.25 C-1.87 4.47, 5.43 0.29, 20.25 0" stroke="#c92a2a" stroke-width="1" fill="none"></path></g><g transform="translate(779.2689031593502 853.2861328125) rotate(0 62.250003814697266 12)"><text x="62.250003814697266" y="0" font-family="Virgil, Segoe UI Emoji" font-size="20px" fill="#c92a2a" text-anchor="middle" style="white-space: pre;" direction="ltr" dominant-baseline="text-before-edge">Local, htc ...</text></g><g stroke-linecap="round" transform="translate(180.12242259904747 795.72509765625) rotate(0 40 15)"><path d="M2 1.74 C2 1.74, 2 1.74, 2 1.74 M2 1.74 C2 1.74, 2 1.74, 2 1.74 M1.08 8.89 C3.11 7.98, 3.98 4.28, 8.3 0.59 M1.08 8.89 C2.58 7.41, 4.08 5.21, 8.3 0.59 M1.47 14.53 C5.48 12.05, 6.84 10.1, 13.28 0.95 M1.47 14.53 C6.47 9.03, 10.33 5.32, 13.28 0.95 M1.87 20.17 C7.34 11.79, 15.32 7.08, 18.93 0.55 M1.87 20.17 C8.39 13.18, 14.49 7.56, 18.93 0.55 M1.61 26.57 C9.06 19.28, 14.95 11.54, 23.91 0.91 M1.61 26.57 C8.04 20.54, 14.39 13.06, 23.91 0.91 M3.97 29.95 C12.29 20.14, 20.28 8.42, 29.56 0.52 M3.97 29.95 C11.92 20.59, 21.22 10.16, 29.56 0.52 M9.61 29.56 C19.91 20.85, 29.41 7.98, 34.54 0.88 M9.61 29.56 C19.42 20.36, 27.81 8.43, 34.54 0.88 M14.6 29.92 C21.46 22.77, 28.61 11.54, 39.53 1.24 M14.6 29.92 C23.18 20.01, 32.61 7.93, 39.53 1.24 M20.24 29.52 C25.29 24.8, 31.74 14.97, 45.17 0.84 M20.24 29.52 C29.86 18.78, 39 8.5, 45.17 0.84 M25.23 29.88 C33.27 20.48, 38.89 13.82, 50.16 1.2 M25.23 29.88 C34.83 19.66, 44.34 9.16, 50.16 1.2 M30.87 29.49 C37.86 19.89, 46.3 13.58, 55.8 0.81 M30.87 29.49 C36.91 21.73, 45.06 12.99, 55.8 0.81 M35.86 29.85 C41.1 20.61, 49.19 15.47, 60.79 1.17 M35.86 29.85 C45 19.37, 53.73 9.65, 60.79 1.17 M40.85 30.21 C49.47 18.38, 59.92 11.4, 66.43 0.77 M40.85 30.21 C50.69 17.81, 60.6 5.85, 66.43 0.77 M46.49 29.81 C50.63 25.23, 58.48 19.04, 71.42 1.13 M46.49 29.81 C54.14 21.78, 61.58 13.13, 71.42 1.13 M51.48 30.17 C60.01 16.97, 70.37 8.75, 76.41 1.49 M51.48 30.17 C60.74 20.95, 68.08 11.07, 76.41 1.49 M57.12 29.78 C65.73 19.56, 73.26 11.78, 79.43 4.12 M57.12 29.78 C62.48 23.94, 65.78 18.12, 79.43 4.12 M62.11 30.14 C67.25 24.74, 75.2 17.11, 82.44 6.74 M62.11 30.14 C67.78 22.78, 73.68 17.4, 82.44 6.74 M67.75 29.74 C71.88 24.06, 75.48 16.79, 82.18 13.14 M67.75 29.74 C72.32 24.18, 77.23 19.16, 82.18 13.14 M72.74 30.1 C76.2 26.14, 79.46 21.71, 82.58 18.78 M72.74 30.1 C74.82 26.6, 78.38 24.74, 82.58 18.78" stroke="#fa5252" stroke-width="0.5" fill="none"></path><path d="M7.5 0 M7.5 0 C21.49 2.17, 38.82 0.1, 72.5 0 M72.5 0 C76.64 0.54, 80.74 0.74, 80 7.5 M80 7.5 C79.28 12.75, 80.51 16.12, 80 22.5 M80 22.5 C81.56 26.47, 79.36 29.28, 72.5 30 M72.5 30 C55.46 29.02, 36.41 31.28, 7.5 30 M7.5 30 C3.29 30.84, -0.49 25.61, 0 22.5 M0 22.5 C-0.6 18.94, 0.18 14.36, 0 7.5 M0 7.5 C1.91 3.12, 4.18 0.15, 7.5 0" stroke="#000000" stroke-width="1.5" fill="none" stroke-dasharray="1.5 7"></path></g><g transform="translate(203.83442249223594 800.72509765625) rotate(0 16.288000106811523 9.599999999999994)"><text x="16.288000106811523" y="0" font-family="Virgil, Segoe UI Emoji" font-size="16px" fill="#000000" text-anchor="middle" style="white-space: pre;" direction="ltr" dominant-baseline="text-before-edge">RUN</text></g><g stroke-linecap="round" transform="translate(262.71421947404747 793.63525390625) rotate(0 40 15)"><path d="M2 1.74 C2 1.74, 2 1.74, 2 1.74 M2 1.74 C2 1.74, 2 1.74, 2 1.74 M1.08 8.89 C4.09 6.56, 5.7 3.71, 8.3 0.59 M1.08 8.89 C2.66 6.67, 5.09 4.15, 8.3 0.59 M1.47 14.53 C6.17 10.16, 6.46 7.79, 13.28 0.95 M1.47 14.53 C5.73 10.28, 10.84 3.61, 13.28 0.95 M1.87 20.17 C8.33 12.47, 13.87 7.05, 18.93 0.55 M1.87 20.17 C9.4 12.41, 15.57 5.44, 18.93 0.55 M1.61 26.57 C7.83 17.45, 16.21 13.38, 23.91 0.91 M1.61 26.57 C9.22 18.05, 15.08 11.44, 23.91 0.91 M3.97 29.95 C14.17 19.76, 19.03 8.69, 29.56 0.52 M3.97 29.95 C11.11 20.24, 18.81 11.99, 29.56 0.52 M9.61 29.56 C17.1 21.64, 25.17 13.1, 34.54 0.88 M9.61 29.56 C19.24 18.73, 27.98 8.11, 34.54 0.88 M14.6 29.92 C22.71 19.51, 32.25 11.33, 39.53 1.24 M14.6 29.92 C22.63 19.38, 30.25 10.98, 39.53 1.24 M20.24 29.52 C25.65 20.27, 35.39 12.43, 45.17 0.84 M20.24 29.52 C26.95 22.93, 31.35 17.31, 45.17 0.84 M25.23 29.88 C35.19 20.45, 40.64 7.96, 50.16 1.2 M25.23 29.88 C33.98 20.11, 44.4 8.74, 50.16 1.2 M30.87 29.49 C34.85 21.35, 41 17.02, 55.8 0.81 M30.87 29.49 C40.05 18.59, 50.1 8.29, 55.8 0.81 M35.86 29.85 C42.55 23.6, 49 16.77, 60.79 1.17 M35.86 29.85 C45.08 20.25, 53.74 9.52, 60.79 1.17 M40.85 30.21 C47.4 20.59, 56.29 12.75, 66.43 0.77 M40.85 30.21 C50.44 18.87, 59.21 9.77, 66.43 0.77 M46.49 29.81 C55.95 20.25, 65.45 9.16, 71.42 1.13 M46.49 29.81 C54.2 20.91, 61.14 12.63, 71.42 1.13 M51.48 30.17 C59.08 20.38, 64.28 14.02, 76.41 1.49 M51.48 30.17 C61.34 19.39, 69.33 9.96, 76.41 1.49 M57.12 29.78 C63.52 23.18, 70.23 14.3, 79.43 4.12 M57.12 29.78 C66.53 20.18, 74.19 9.85, 79.43 4.12 M62.11 30.14 C69.73 22.55, 75.16 14.86, 82.44 6.74 M62.11 30.14 C68.83 22.15, 76.17 14.24, 82.44 6.74 M67.75 29.74 C74.49 22.05, 76.76 18.84, 82.18 13.14 M67.75 29.74 C72.76 24.13, 75.95 18.97, 82.18 13.14 M72.74 30.1 C76.87 26.12, 79.17 20.84, 82.58 18.78 M72.74 30.1 C74.86 27.75, 76.83 25.14, 82.58 18.78" stroke="#fa5252" stroke-width="0.5" fill="none"></path><path d="M7.5 0 M7.5 0 C29.75 -0.5, 51.72 1.54, 72.5 0 M72.5 0 C77.31 1.99, 79.6 3.35, 80 7.5 M80 7.5 C79.76 11.09, 80.73 13.43, 80 22.5 M80 22.5 C81.89 28.65, 77.91 28.12, 72.5 30 M72.5 30 C47.37 29.84, 19.77 28.91, 7.5 30 M7.5 30 C4.37 30.31, -0.55 27.5, 0 22.5 M0 22.5 C0.95 18.93, 0.29 16.32, 0 7.5 M0 7.5 C0.23 1.83, 4.4 -1.79, 7.5 0" stroke="#000000" stroke-width="1.5" fill="none" stroke-dasharray="1.5 7"></path></g><g transform="translate(269.16222133561973 798.63525390625) rotate(0 33.551998138427734 9.599999999999994)"><text x="33.551998138427734" y="0" font-family="Virgil, Segoe UI Emoji" font-size="16px" fill="#000000" text-anchor="middle" style="white-space: pre;" direction="ltr" dominant-baseline="text-before-edge">STATUS</text></g><g stroke-linecap="round" transform="translate(349.84703197404747 794.41259765625) rotate(0 40 15)"><path d="M2 1.74 C2 1.74, 2 1.74, 2 1.74 M2 1.74 C2 1.74, 2 1.74, 2 1.74 M1.08 8.89 C3.45 6.25, 4.36 4.58, 8.3 0.59 M1.08 8.89 C2.76 7.01, 4.57 4.53, 8.3 0.59 M1.47 14.53 C6.2 11.36, 8.36 6.07, 13.28 0.95 M1.47 14.53 C5.39 10.68, 8.41 6.46, 13.28 0.95 M1.87 20.17 C7.4 13.57, 14.94 6.38, 18.93 0.55 M1.87 20.17 C7.89 14.62, 12.21 7.2, 18.93 0.55 M1.61 26.57 C10.19 16.33, 20.68 8.09, 23.91 0.91 M1.61 26.57 C8.08 19.6, 15.07 11.68, 23.91 0.91 M3.97 29.95 C13.88 19.46, 24.1 10.4, 29.56 0.52 M3.97 29.95 C13.34 19.08, 22.57 7.07, 29.56 0.52 M9.61 29.56 C16.1 23.67, 23.14 14.2, 34.54 0.88 M9.61 29.56 C19.83 18.92, 27.9 8.28, 34.54 0.88 M14.6 29.92 C21.93 20.48, 32.54 10.26, 39.53 1.24 M14.6 29.92 C22.33 19.23, 32.23 10.93, 39.53 1.24 M20.24 29.52 C27.87 21.84, 33.52 11.65, 45.17 0.84 M20.24 29.52 C28.2 21.26, 35.7 12.89, 45.17 0.84 M25.23 29.88 C34.33 19.73, 42.9 11.2, 50.16 1.2 M25.23 29.88 C31.48 21.53, 38.54 14.65, 50.16 1.2 M30.87 29.49 C34.83 22.49, 43.74 17.02, 55.8 0.81 M30.87 29.49 C37.21 21.84, 45.06 13.95, 55.8 0.81 M35.86 29.85 C42.89 22.7, 49.61 10.54, 60.79 1.17 M35.86 29.85 C41.98 21.49, 50.24 14.34, 60.79 1.17 M40.85 30.21 C45.07 24.03, 50.46 17.86, 66.43 0.77 M40.85 30.21 C52.04 18.5, 62.02 6.9, 66.43 0.77 M46.49 29.81 C55.78 22.18, 62.1 10.18, 71.42 1.13 M46.49 29.81 C54.04 20.73, 61.75 12.49, 71.42 1.13 M51.48 30.17 C61.71 18.91, 72.7 8.85, 76.41 1.49 M51.48 30.17 C60.89 19.51, 68.54 10.25, 76.41 1.49 M57.12 29.78 C65.39 20.25, 75.36 8.06, 79.43 4.12 M57.12 29.78 C61.09 25.07, 65.52 19.36, 79.43 4.12 M62.11 30.14 C67.38 25.4, 69.85 20.2, 82.44 6.74 M62.11 30.14 C66.77 24.09, 73.51 17.65, 82.44 6.74 M67.75 29.74 C72 27.9, 74.55 21.95, 82.18 13.14 M67.75 29.74 C72.98 24.47, 77.43 18.48, 82.18 13.14 M72.74 30.1 C75.1 27, 79.67 22.61, 82.58 18.78 M72.74 30.1 C76.24 26.3, 78.6 22.67, 82.58 18.78" stroke="#fa5252" stroke-width="0.5" fill="none"></path><path d="M7.5 0 M7.5 0 C25.79 -0.11, 43.07 0.29, 72.5 0 M72.5 0 C79.39 -0.9, 81.78 1.05, 80 7.5 M80 7.5 C81.35 12.9, 81.27 20.38, 80 22.5 M80 22.5 C81.19 25.81, 76.06 29.97, 72.5 30 M72.5 30 C52.5 29.94, 29.3 29.42, 7.5 30 M7.5 30 C1.98 28.45, -0.82 29.38, 0 22.5 M0 22.5 C-0.54 15.91, -1.03 12.53, 0 7.5 M0 7.5 C-0.76 0.67, 0.74 1.57, 7.5 0" stroke="#000000" stroke-width="1.5" fill="none" stroke-dasharray="1.5 7"></path></g><g transform="translate(370.99903240129356 799.41259765625) rotate(0 18.847999572753906 9.599999999999994)"><text x="18.847999572753906" y="0" font-family="Virgil, Segoe UI Emoji" font-size="16px" fill="#000000" text-anchor="middle" style="white-space: pre;" direction="ltr" dominant-baseline="text-before-edge">KILL</text></g><g stroke-linecap="round"><g transform="translate(294.72626478610573 755.84228515625) rotate(0 -33.877099159281045 15.131091364086586)"><path d="M0.81 1.05 C-10.61 5.81, -56.46 24.79, -67.78 29.7 M-0.23 0.56 C-11.84 5.44, -57.37 23, -68.56 27.68" stroke="#000000" stroke-width="1" fill="none"></path></g><g transform="translate(294.72626478610573 755.84228515625) rotate(0 -33.877099159281045 15.131091364086586)"><path d="M-44.44 8.21 C-53.71 16.64, -60.42 23.14, -68.06 26.47 M-46.43 8.66 C-55.53 15.3, -64.01 23.43, -68.37 27" stroke="#000000" stroke-width="1" fill="none"></path></g><g transform="translate(294.72626478610573 755.84228515625) rotate(0 -33.877099159281045 15.131091364086586)"><path d="M-36.82 27.26 C-49.01 28.89, -58.46 28.54, -68.06 26.47 M-38.8 27.71 C-50.68 26.98, -62.11 27.76, -68.37 27" stroke="#000000" stroke-width="1" fill="none"></path></g></g><mask></mask><g stroke-linecap="round"><g transform="translate(299.08056773097996 759.13916015625) rotate(0 0.29501280275854924 16.55251566246153)"><path d="M0.05 -1.06 C0.25 4.68, 1.61 28.4, 1.97 34.16 M-1.38 1 C-1.46 6.45, 0.29 27.51, 0.75 32.58" stroke="#000000" stroke-width="1" fill="none"></path></g><g transform="translate(299.08056773097996 759.13916015625) rotate(0 0.29501280275854924 16.55251566246153)"><path d="M-7.69 16.76 C-2.29 22.67, -0.61 27.97, 2.33 32.69 M-5.89 18.17 C-5 21.29, -2.33 25.6, 0.65 32.53" stroke="#000000" stroke-width="1" fill="none"></path></g><g transform="translate(299.08056773097996 759.13916015625) rotate(0 0.29501280275854924 16.55251566246153)"><path d="M3.64 15.81 C4.89 22.07, 2.42 27.72, 2.33 32.69 M5.43 17.22 C3.42 20.55, 3.2 25.1, 0.65 32.53" stroke="#000000" stroke-width="1" fill="none"></path></g></g><mask></mask><g stroke-linecap="round"><g transform="translate(369.5058461138153 759.93994140625) rotate(0 21.2250396980059 10.914674948216401)"><path d="M-1.18 -0.17 C6.05 3.72, 36.11 19.36, 43.63 23.14 M0.4 -1.31 C7.5 2.26, 35.75 17.22, 42.96 21.42" stroke="#000000" stroke-width="1" fill="none"></path></g><g transform="translate(369.5058461138153 759.93994140625) rotate(0 21.2250396980059 10.914674948216401)"><path d="M18.69 18.54 C27.92 20.51, 34.51 21.98, 43.95 21.34 M18.83 17.19 C25.28 17.89, 34.22 20.64, 43.24 21.4" stroke="#000000" stroke-width="1" fill="none"></path></g><g transform="translate(369.5058461138153 759.93994140625) rotate(0 21.2250396980059 10.914674948216401)"><path d="M26.71 4 C33.36 10.53, 37.39 16.64, 43.95 21.34 M26.85 2.65 C30.98 7.76, 37.51 14.87, 43.24 21.4" stroke="#000000" stroke-width="1" fill="none"></path></g></g><mask></mask><g stroke-linecap="round" transform="translate(440.07066478654747 794.4261113144597) rotate(0 40 15)"><path d="M2 1.74 C2 1.74, 2 1.74, 2 1.74 M2 1.74 C2 1.74, 2 1.74, 2 1.74 M1.08 8.89 C3.69 6.84, 5.57 4.17, 8.3 0.59 M1.08 8.89 C2.41 7.06, 4.45 5.03, 8.3 0.59 M1.47 14.53 C3.69 10.73, 5.47 8.64, 13.28 0.95 M1.47 14.53 C5.79 10.31, 9.87 5.2, 13.28 0.95 M1.87 20.17 C4.15 14.66, 9.8 12.3, 18.93 0.55 M1.87 20.17 C7.52 14.23, 12.83 7.5, 18.93 0.55 M1.61 26.57 C7.05 21.85, 10.99 14.09, 23.91 0.91 M1.61 26.57 C9.7 16.89, 18.85 6.42, 23.91 0.91 M3.97 29.95 C11.24 22.14, 21.48 10.17, 29.56 0.52 M3.97 29.95 C10.64 23.09, 15.63 16.16, 29.56 0.52 M9.61 29.56 C17.68 17.73, 26.37 9.74, 34.54 0.88 M9.61 29.56 C14.44 23.59, 19.44 18.21, 34.54 0.88 M14.6 29.92 C19.19 25.17, 24.48 19.94, 39.53 1.24 M14.6 29.92 C24.52 18.69, 33.68 10.04, 39.53 1.24 M20.24 29.52 C29.85 19.76, 37 9.44, 45.17 0.84 M20.24 29.52 C29.68 18.25, 37.64 8.54, 45.17 0.84 M25.23 29.88 C31.29 21.39, 39.11 10.67, 50.16 1.2 M25.23 29.88 C34.1 20.01, 42.14 11.71, 50.16 1.2 M30.87 29.49 C36.93 22.54, 43.32 18.83, 55.8 0.81 M30.87 29.49 C39.16 21.36, 45.23 12.49, 55.8 0.81 M35.86 29.85 C45.14 20.48, 54.34 8.05, 60.79 1.17 M35.86 29.85 C45.01 20.44, 52.71 10.34, 60.79 1.17 M40.85 30.21 C49.84 20.67, 54.33 11.8, 66.43 0.77 M40.85 30.21 C51.99 18.96, 60.82 5.86, 66.43 0.77 M46.49 29.81 C56.57 18.77, 62.5 10.88, 71.42 1.13 M46.49 29.81 C54.58 19.72, 64.83 8.72, 71.42 1.13 M51.48 30.17 C56.71 21.68, 66.88 14.77, 76.41 1.49 M51.48 30.17 C61.51 18.88, 70.66 7.47, 76.41 1.49 M57.12 29.78 C63.49 19.46, 74.86 10.89, 79.43 4.12 M57.12 29.78 C60.87 23.75, 65.95 18.51, 79.43 4.12 M62.11 30.14 C68.91 22.85, 77.05 14.46, 82.44 6.74 M62.11 30.14 C68.33 22.48, 75.55 13.14, 82.44 6.74 M67.75 29.74 C74.73 22.38, 80.46 18.68, 82.18 13.14 M67.75 29.74 C71.65 24.48, 76.18 19.01, 82.18 13.14 M72.74 30.1 C76.11 27.07, 80.26 22.8, 82.58 18.78 M72.74 30.1 C75.36 27.53, 77.58 24.33, 82.58 18.78" stroke="#fa5252" stroke-width="0.5" fill="none"></path><path d="M7.5 0 M7.5 0 C31.76 -1.49, 59.9 -1.48, 72.5 0 M72.5 0 C79.38 -0.41, 78.09 1.54, 80 7.5 M80 7.5 C81.11 10.88, 81.61 13.98, 80 22.5 M80 22.5 C79.73 25.85, 76.24 28.65, 72.5 30 M72.5 30 C58.73 31.3, 42.12 32.06, 7.5 30 M7.5 30 C3.17 29.02, -1.18 28.02, 0 22.5 M0 22.5 C1.33 18.62, -0.18 13.93, 0 7.5 M0 7.5 C0.81 1.41, 2.45 0.76, 7.5 0" stroke="#000000" stroke-width="1.5" fill="none" stroke-dasharray="1.5 7"></path></g><g transform="translate(463.78266467973594 799.4261113144597) rotate(0 16.288000106811523 9.599999999999994)"><text x="16.288000106811523" y="0" font-family="Virgil, Segoe UI Emoji" font-size="16px" fill="#000000" text-anchor="middle" style="white-space: pre;" direction="ltr" dominant-baseline="text-before-edge">RUN</text></g><g stroke-linecap="round" transform="translate(522.6624616615475 792.3362675644597) rotate(0 40 15)"><path d="M2 1.74 C2 1.74, 2 1.74, 2 1.74 M2 1.74 C2 1.74, 2 1.74, 2 1.74 M1.08 8.89 C2.68 7.47, 4.05 3.33, 8.3 0.59 M1.08 8.89 C4.04 5.52, 5.77 2.56, 8.3 0.59 M1.47 14.53 C3.83 10.48, 9.58 7.02, 13.28 0.95 M1.47 14.53 C4.24 11.56, 7.25 6.59, 13.28 0.95 M1.87 20.17 C6.25 16.46, 9.66 11.29, 18.93 0.55 M1.87 20.17 C8.73 12.18, 13.29 5.39, 18.93 0.55 M1.61 26.57 C7.56 17.68, 16.07 11.24, 23.91 0.91 M1.61 26.57 C8.04 18.89, 15.27 11.54, 23.91 0.91 M3.97 29.95 C12.69 20.32, 18.18 11.67, 29.56 0.52 M3.97 29.95 C9.42 22.88, 15.47 17.19, 29.56 0.52 M9.61 29.56 C17.36 20.57, 26.69 9.9, 34.54 0.88 M9.61 29.56 C15.55 22.92, 21.69 14.83, 34.54 0.88 M14.6 29.92 C19.44 25.53, 26.2 17.53, 39.53 1.24 M14.6 29.92 C22 23.28, 28.1 14.88, 39.53 1.24 M20.24 29.52 C27.82 19.88, 37.51 9.68, 45.17 0.84 M20.24 29.52 C27.03 20.7, 35.58 12.55, 45.17 0.84 M25.23 29.88 C30.14 21.21, 37.78 14.59, 50.16 1.2 M25.23 29.88 C35.5 19.23, 44.11 7.08, 50.16 1.2 M30.87 29.49 C37.95 24.82, 41.91 15.47, 55.8 0.81 M30.87 29.49 C35.66 22.81, 42.37 16.51, 55.8 0.81 M35.86 29.85 C42.73 21.15, 53.13 13.2, 60.79 1.17 M35.86 29.85 C40.58 24.1, 47.07 16.47, 60.79 1.17 M40.85 30.21 C46.19 20.96, 57.02 11.83, 66.43 0.77 M40.85 30.21 C50.27 17.51, 61.42 7.61, 66.43 0.77 M46.49 29.81 C54.92 19.97, 66.77 5.87, 71.42 1.13 M46.49 29.81 C55.05 20.02, 62.11 12.55, 71.42 1.13 M51.48 30.17 C58.18 25.09, 64.36 19.34, 76.41 1.49 M51.48 30.17 C58.39 21.68, 66.68 13.26, 76.41 1.49 M57.12 29.78 C62.98 24.71, 64.72 21.44, 79.43 4.12 M57.12 29.78 C64.18 21.23, 72.37 13.73, 79.43 4.12 M62.11 30.14 C68.92 23.88, 73.59 19.71, 82.44 6.74 M62.11 30.14 C69.48 20.56, 78.64 12.78, 82.44 6.74 M67.75 29.74 C74.17 26, 77 20.42, 82.18 13.14 M67.75 29.74 C72.14 23.89, 77.45 19.51, 82.18 13.14 M72.74 30.1 C76.56 27.06, 79.22 21.94, 82.58 18.78 M72.74 30.1 C76.35 25.77, 80.96 20.79, 82.58 18.78" stroke="#fa5252" stroke-width="0.5" fill="none"></path><path d="M7.5 0 M7.5 0 C30.26 -0.81, 53.69 -0.01, 72.5 0 M72.5 0 C75.59 -0.96, 78.75 4.03, 80 7.5 M80 7.5 C81.6 12.64, 79.9 17.84, 80 22.5 M80 22.5 C78.74 26.15, 76.13 28.71, 72.5 30 M72.5 30 C46.91 31.72, 22.61 29.25, 7.5 30 M7.5 30 C1.32 30.52, -0.74 28.35, 0 22.5 M0 22.5 C-0.26 17.09, 0.47 12.21, 0 7.5 M0 7.5 C-0.05 3.26, 3.45 0.17, 7.5 0" stroke="#000000" stroke-width="1.5" fill="none" stroke-dasharray="1.5 7"></path></g><g transform="translate(529.1104635231197 797.3362675644597) rotate(0 33.551998138427734 9.599999999999994)"><text x="33.551998138427734" y="0" font-family="Virgil, Segoe UI Emoji" font-size="16px" fill="#000000" text-anchor="middle" style="white-space: pre;" direction="ltr" dominant-baseline="text-before-edge">STATUS</text></g><g stroke-linecap="round" transform="translate(609.7952741615475 793.1136113144597) rotate(0 40 15)"><path d="M2 1.74 C2 1.74, 2 1.74, 2 1.74 M2 1.74 C2 1.74, 2 1.74, 2 1.74 M1.08 8.89 C2.74 4.87, 7.09 2.25, 8.3 0.59 M1.08 8.89 C2.57 6.19, 5.04 4.12, 8.3 0.59 M1.47 14.53 C5.82 11.35, 6.88 7.65, 13.28 0.95 M1.47 14.53 C5.5 8.66, 10.25 2.95, 13.28 0.95 M1.87 20.17 C5.76 15.4, 11.03 12.09, 18.93 0.55 M1.87 20.17 C6 13.88, 11.83 8.77, 18.93 0.55 M1.61 26.57 C11.02 17.43, 16.6 7.93, 23.91 0.91 M1.61 26.57 C9.52 18.12, 16.83 8.69, 23.91 0.91 M3.97 29.95 C12.39 18.3, 22.3 8.72, 29.56 0.52 M3.97 29.95 C11.06 22.6, 17.53 14.74, 29.56 0.52 M9.61 29.56 C14.34 23.87, 21.46 14.55, 34.54 0.88 M9.61 29.56 C16.49 20.74, 24.12 11.52, 34.54 0.88 M14.6 29.92 C24.54 19.32, 31.31 11.47, 39.53 1.24 M14.6 29.92 C19.88 23.84, 24.83 18.43, 39.53 1.24 M20.24 29.52 C29.2 19.53, 35.79 12.39, 45.17 0.84 M20.24 29.52 C25.85 23.93, 30.49 16.63, 45.17 0.84 M25.23 29.88 C33.52 19.7, 42.62 13.65, 50.16 1.2 M25.23 29.88 C30.95 21.98, 37.69 14.65, 50.16 1.2 M30.87 29.49 C36.91 20.74, 41.82 16.2, 55.8 0.81 M30.87 29.49 C39.5 20.34, 46.39 11.78, 55.8 0.81 M35.86 29.85 C47.1 20.37, 54.33 7.95, 60.79 1.17 M35.86 29.85 C45.42 18.74, 54.65 8.77, 60.79 1.17 M40.85 30.21 C49.57 20.95, 56.18 16.76, 66.43 0.77 M40.85 30.21 C50.75 20.7, 60.45 9.93, 66.43 0.77 M46.49 29.81 C54.12 20.63, 59.72 13.03, 71.42 1.13 M46.49 29.81 C53.76 21.9, 60.53 11.79, 71.42 1.13 M51.48 30.17 C60.22 23.44, 65.2 14.74, 76.41 1.49 M51.48 30.17 C59.77 21.46, 65.56 11.98, 76.41 1.49 M57.12 29.78 C60.89 25.29, 68.8 15.3, 79.43 4.12 M57.12 29.78 C63.25 24.08, 68.18 16.87, 79.43 4.12 M62.11 30.14 C69.44 24.36, 76.64 13.78, 82.44 6.74 M62.11 30.14 C70.53 22.32, 77.47 13.81, 82.44 6.74 M67.75 29.74 C71.19 26.89, 74.96 20.73, 82.18 13.14 M67.75 29.74 C72.44 25.31, 76.33 20.56, 82.18 13.14 M72.74 30.1 C75.77 25.87, 81.46 21.67, 82.58 18.78 M72.74 30.1 C76.94 25.51, 79.95 21.56, 82.58 18.78" stroke="#fa5252" stroke-width="0.5" fill="none"></path><path d="M7.5 0 M7.5 0 C24.9 -0.02, 36.61 -0.57, 72.5 0 M72.5 0 C76.25 1.53, 81.72 3.83, 80 7.5 M80 7.5 C79.95 10.57, 79.2 15.11, 80 22.5 M80 22.5 C78.63 26.21, 79.28 31.26, 72.5 30 M72.5 30 C51.34 29.5, 27.64 31, 7.5 30 M7.5 30 C1.76 30.85, 0.31 29.36, 0 22.5 M0 22.5 C0.62 17.12, -0.03 13.94, 0 7.5 M0 7.5 C0.95 2.67, 1.93 1.59, 7.5 0" stroke="#000000" stroke-width="1.5" fill="none" stroke-dasharray="1.5 7"></path></g><g transform="translate(630.9472745887936 798.1136113144597) rotate(0 18.847999572753906 9.599999999999994)"><text x="18.847999572753906" y="0" font-family="Virgil, Segoe UI Emoji" font-size="16px" fill="#000000" text-anchor="middle" style="white-space: pre;" direction="ltr" dominant-baseline="text-before-edge">KILL</text></g><g stroke-linecap="round"><g transform="translate(554.5882429115475 754.7698613144597) rotate(0 -34.40117434030344 14.835302836606274)"><path d="M0.36 -0.12 C-11.08 4.61, -56.82 24.47, -68.09 29.33 M-0.91 -1.23 C-12.58 3.63, -58.03 25.65, -69.16 30.9" stroke="#000000" stroke-width="1" fill="none"></path></g><g transform="translate(554.5882429115475 754.7698613144597) rotate(0 -34.40117434030344 14.835302836606274)"><path d="M-48.34 9.1 C-55.14 17.97, -62.9 25.2, -67.92 30.47 M-47.28 8.54 C-55.45 16.77, -61.7 22.82, -68.53 30.14" stroke="#000000" stroke-width="1" fill="none"></path></g><g transform="translate(554.5882429115475 754.7698613144597) rotate(0 -34.40117434030344 14.835302836606274)"><path d="M-39.5 27.62 C-49.5 30.11, -60.32 30.94, -67.92 30.47 M-38.43 27.06 C-49.54 29.39, -58.59 29.57, -68.53 30.14" stroke="#000000" stroke-width="1" fill="none"></path></g></g><mask></mask><g stroke-linecap="round"><g transform="translate(559.2054304115475 758.0667363144597) rotate(0 0.4002485223807071 16.06099911606404)"><path d="M-0.12 -0.23 C0.13 5.3, 2.06 27.91, 2.44 33.52 M-1.64 -1.4 C-1.63 3.75, 1.04 26.26, 1.52 31.72" stroke="#000000" stroke-width="1" fill="none"></path></g><g transform="translate(559.2054304115475 758.0667363144597) rotate(0 0.4002485223807071 16.06099911606404)"><path d="M-6.01 16.96 C-2.07 22.2, 0.53 29.18, 1.17 32 M-6.48 16.22 C-2.6 22, -0.53 28.33, 0.9 30.96" stroke="#000000" stroke-width="1" fill="none"></path></g><g transform="translate(559.2054304115475 758.0667363144597) rotate(0 0.4002485223807071 16.06099911606404)"><path d="M5.21 15.79 C4.89 21.46, 3.24 28.89, 1.17 32 M4.75 15.06 C4.46 21.36, 2.37 28.13, 0.9 30.96" stroke="#000000" stroke-width="1" fill="none"></path></g></g><mask></mask><g stroke-linecap="round"><g transform="translate(567.8187116615475 758.8675175644597) rotate(0 41.599898386820996 11.174281119415554)"><path d="M-0.23 0.06 C13.88 3.73, 70.82 18.09, 85.01 21.89 M-1.81 -0.96 C12.16 2.91, 70.01 19.66, 84.38 23.3" stroke="#000000" stroke-width="1" fill="none"></path></g><g transform="translate(567.8187116615475 758.8675175644597) rotate(0 41.599898386820996 11.174281119415554)"><path d="M54.58 26.76 C63.95 25.85, 75.44 23.77, 84.72 24.72 M53.69 26.32 C61.97 25.23, 70.86 23.99, 83.46 22.58" stroke="#000000" stroke-width="1" fill="none"></path></g><g transform="translate(567.8187116615475 758.8675175644597) rotate(0 41.599898386820996 11.174281119415554)"><path d="M60.01 6.97 C67.57 12.57, 77.27 17.02, 84.72 24.72 M59.11 6.53 C66.13 10.61, 73.6 14.59, 83.46 22.58" stroke="#000000" stroke-width="1" fill="none"></path></g></g><mask></mask><g stroke-linecap="round" transform="translate(705.0355085365475 793.1175175644597) rotate(0 40 15)"><path d="M2 1.74 C2 1.74, 2 1.74, 2 1.74 M2 1.74 C2 1.74, 2 1.74, 2 1.74 M1.08 8.89 C3.55 7.56, 3.16 4.94, 8.3 0.59 M1.08 8.89 C4.06 5.9, 5.84 3.17, 8.3 0.59 M1.47 14.53 C2.48 12.74, 6.61 9.76, 13.28 0.95 M1.47 14.53 C5.37 9.69, 10.2 3.28, 13.28 0.95 M1.87 20.17 C7.22 13.23, 13.02 7.72, 18.93 0.55 M1.87 20.17 C8.89 12.7, 13.37 6.21, 18.93 0.55 M1.61 26.57 C6.57 21.29, 12.19 13.02, 23.91 0.91 M1.61 26.57 C8.81 19.67, 15.11 11.08, 23.91 0.91 M3.97 29.95 C11.11 23.13, 18.45 14.1, 29.56 0.52 M3.97 29.95 C13.75 18.99, 23.39 7.64, 29.56 0.52 M9.61 29.56 C18.26 21.54, 24.3 15.63, 34.54 0.88 M9.61 29.56 C14.97 23.17, 22.03 15.18, 34.54 0.88 M14.6 29.92 C23.08 22.72, 28.96 14.36, 39.53 1.24 M14.6 29.92 C19.75 24.13, 24.44 19.4, 39.53 1.24 M20.24 29.52 C28.77 17.49, 37.82 7.22, 45.17 0.84 M20.24 29.52 C27.91 21.84, 34.06 14.7, 45.17 0.84 M25.23 29.88 C32.52 20.01, 41.75 10.23, 50.16 1.2 M25.23 29.88 C31.08 23.02, 37.18 17.16, 50.16 1.2 M30.87 29.49 C39.06 21.95, 48.38 12.12, 55.8 0.81 M30.87 29.49 C41.25 17.78, 50.71 7.04, 55.8 0.81 M35.86 29.85 C43.21 22.08, 47.74 15.58, 60.79 1.17 M35.86 29.85 C43.93 20.54, 51 12.63, 60.79 1.17 M40.85 30.21 C46.76 21.01, 54.16 12.85, 66.43 0.77 M40.85 30.21 C46.81 23.28, 53.01 15.71, 66.43 0.77 M46.49 29.81 C50.64 22.42, 57.58 17.81, 71.42 1.13 M46.49 29.81 C55.95 18.52, 65.39 8.94, 71.42 1.13 M51.48 30.17 C59.4 21.85, 66.82 13.78, 76.41 1.49 M51.48 30.17 C59.28 22.69, 65.03 15.43, 76.41 1.49 M57.12 29.78 C64.43 22.03, 73.93 9.92, 79.43 4.12 M57.12 29.78 C64.52 21.92, 73.04 11.71, 79.43 4.12 M62.11 30.14 C70.66 22.35, 76.13 14.37, 82.44 6.74 M62.11 30.14 C70.63 21.64, 78.2 12.13, 82.44 6.74 M67.75 29.74 C70.42 26.22, 76.63 22.25, 82.18 13.14 M67.75 29.74 C70.21 25.65, 75.3 22.11, 82.18 13.14 M72.74 30.1 C75.14 27.13, 80.37 21.47, 82.58 18.78 M72.74 30.1 C75.16 26.79, 77.17 24.47, 82.58 18.78" stroke="#fa5252" stroke-width="0.5" fill="none"></path><path d="M7.5 0 M7.5 0 C29.38 -0.42, 55.29 -1.43, 72.5 0 M72.5 0 C78.43 0.65, 79.46 4.29, 80 7.5 M80 7.5 C79.61 11.72, 80.42 14.84, 80 22.5 M80 22.5 C78.52 25.62, 79.29 31.79, 72.5 30 M72.5 30 C46.49 31.24, 20.91 29.87, 7.5 30 M7.5 30 C4.02 28.56, 1.59 27.52, 0 22.5 M0 22.5 C-0.05 17.65, -0.84 15.71, 0 7.5 M0 7.5 C-0.64 1.84, 1.29 -1.05, 7.5 0" stroke="#000000" stroke-width="1.5" fill="none" stroke-dasharray="1.5 7"></path></g><g transform="translate(728.747508429736 798.1175175644597) rotate(0 16.288000106811523 9.599999999999994)"><text x="16.288000106811523" y="0" font-family="Virgil, Segoe UI Emoji" font-size="16px" fill="#000000" text-anchor="middle" style="white-space: pre;" direction="ltr" dominant-baseline="text-before-edge">RUN</text></g><g stroke-linecap="round" transform="translate(787.6273054115475 791.0276738144597) rotate(0 40 15)"><path d="M2 1.74 C2 1.74, 2 1.74, 2 1.74 M2 1.74 C2 1.74, 2 1.74, 2 1.74 M1.08 8.89 C2.56 5.49, 6.78 2.76, 8.3 0.59 M1.08 8.89 C2.18 7.24, 3.69 5.63, 8.3 0.59 M1.47 14.53 C5.26 11.46, 10.28 4.94, 13.28 0.95 M1.47 14.53 C5.1 9.16, 10.61 4.43, 13.28 0.95 M1.87 20.17 C4.73 17.16, 11.09 9.19, 18.93 0.55 M1.87 20.17 C5.27 15.17, 9.26 10.88, 18.93 0.55 M1.61 26.57 C7.07 18.77, 13.41 13.9, 23.91 0.91 M1.61 26.57 C6.58 20.54, 10.96 15.04, 23.91 0.91 M3.97 29.95 C14.93 18.14, 23.91 9.39, 29.56 0.52 M3.97 29.95 C11.26 21.56, 17.03 14.46, 29.56 0.52 M9.61 29.56 C15.2 25.58, 18.63 16.94, 34.54 0.88 M9.61 29.56 C16.57 21.39, 22.7 13.91, 34.54 0.88 M14.6 29.92 C19.71 24.3, 23.42 16.56, 39.53 1.24 M14.6 29.92 C21.17 22.99, 29 13.76, 39.53 1.24 M20.24 29.52 C26.87 20.01, 35.76 9.97, 45.17 0.84 M20.24 29.52 C27 22.3, 34.42 12.62, 45.17 0.84 M25.23 29.88 C30.75 22.72, 35.59 15, 50.16 1.2 M25.23 29.88 C34.47 20.24, 44.14 8.52, 50.16 1.2 M30.87 29.49 C36.83 24.94, 42.79 15.5, 55.8 0.81 M30.87 29.49 C39.41 19.77, 46.23 12.15, 55.8 0.81 M35.86 29.85 C42.87 21.38, 53.05 8.56, 60.79 1.17 M35.86 29.85 C45.54 18.88, 53.74 9.42, 60.79 1.17 M40.85 30.21 C48.39 19.99, 56.58 11.37, 66.43 0.77 M40.85 30.21 C46.4 23.22, 51.26 17.2, 66.43 0.77 M46.49 29.81 C53.06 23.24, 62.26 13.4, 71.42 1.13 M46.49 29.81 C56.5 19.39, 65.86 7.76, 71.42 1.13 M51.48 30.17 C61.72 19.78, 68.89 7.37, 76.41 1.49 M51.48 30.17 C57.01 23.89, 63.85 16.02, 76.41 1.49 M57.12 29.78 C62.97 22.26, 68.96 16.12, 79.43 4.12 M57.12 29.78 C64.4 21.4, 70.61 14.04, 79.43 4.12 M62.11 30.14 C66.81 24.6, 73.38 18.02, 82.44 6.74 M62.11 30.14 C67.34 24.17, 72.48 18.45, 82.44 6.74 M67.75 29.74 C72.01 27.62, 72.51 23.62, 82.18 13.14 M67.75 29.74 C71.87 26.23, 75.28 21.59, 82.18 13.14 M72.74 30.1 C75.79 26.68, 77.91 24.16, 82.58 18.78 M72.74 30.1 C76.13 25.86, 80.82 22.14, 82.58 18.78" stroke="#fa5252" stroke-width="0.5" fill="none"></path><path d="M7.5 0 M7.5 0 C24.62 -1.49, 41.53 0.88, 72.5 0 M72.5 0 C76.96 1.79, 79.62 1, 80 7.5 M80 7.5 C80.5 10.67, 78.86 14.6, 80 22.5 M80 22.5 C81.79 29.29, 79.3 30.28, 72.5 30 M72.5 30 C55.43 30.7, 41.62 29.07, 7.5 30 M7.5 30 C4.09 30.02, -1.08 25.73, 0 22.5 M0 22.5 C-0.96 17.87, -0.46 11.58, 0 7.5 M0 7.5 C-1.21 1.45, 4 1.15, 7.5 0" stroke="#000000" stroke-width="1.5" fill="none" stroke-dasharray="1.5 7"></path></g><g transform="translate(794.0753072731197 796.0276738144597) rotate(0 33.551998138427734 9.599999999999994)"><text x="33.551998138427734" y="0" font-family="Virgil, Segoe UI Emoji" font-size="16px" fill="#000000" text-anchor="middle" style="white-space: pre;" direction="ltr" dominant-baseline="text-before-edge">STATUS</text></g><g stroke-linecap="round" transform="translate(874.7601179115475 792.0354863144597) rotate(0 40 15)"><path d="M2 1.74 C2 1.74, 2 1.74, 2 1.74 M2 1.74 C2 1.74, 2 1.74, 2 1.74 M1.08 8.89 C4.25 5.89, 5.19 4.01, 8.3 0.59 M1.08 8.89 C2.72 6.85, 5.23 3.7, 8.3 0.59 M1.47 14.53 C7.44 8.07, 11.02 2.89, 13.28 0.95 M1.47 14.53 C6.48 9.29, 9.69 4.23, 13.28 0.95 M1.87 20.17 C8.12 12.52, 11.13 10.01, 18.93 0.55 M1.87 20.17 C5.21 15.8, 9.15 11.26, 18.93 0.55 M1.61 26.57 C9.48 18.62, 15.67 9.96, 23.91 0.91 M1.61 26.57 C9.32 17.24, 18.73 8.02, 23.91 0.91 M3.97 29.95 C13.65 21.25, 20.1 11.38, 29.56 0.52 M3.97 29.95 C10.67 21.84, 17.04 14.6, 29.56 0.52 M9.61 29.56 C15.63 20.28, 23.26 11.04, 34.54 0.88 M9.61 29.56 C18.05 19.18, 25.99 10.42, 34.54 0.88 M14.6 29.92 C21.23 19.32, 31.29 10.2, 39.53 1.24 M14.6 29.92 C22.65 20.91, 29.23 12.61, 39.53 1.24 M20.24 29.52 C26.03 21.16, 32.24 16.83, 45.17 0.84 M20.24 29.52 C28.45 19.54, 35.24 10.64, 45.17 0.84 M25.23 29.88 C30.93 20.23, 40.55 13.45, 50.16 1.2 M25.23 29.88 C33.29 20.7, 39.69 11.86, 50.16 1.2 M30.87 29.49 C42.08 16.19, 50.7 8.23, 55.8 0.81 M30.87 29.49 C35.66 24.27, 41.7 17.91, 55.8 0.81 M35.86 29.85 C43.62 19.62, 53.06 13.29, 60.79 1.17 M35.86 29.85 C40.56 24.53, 46.12 17.68, 60.79 1.17 M40.85 30.21 C46.4 23.03, 52.57 14.86, 66.43 0.77 M40.85 30.21 C47.56 21.56, 55.4 12.52, 66.43 0.77 M46.49 29.81 C54.65 21.71, 61.64 14.69, 71.42 1.13 M46.49 29.81 C52.8 22.46, 60.14 15.05, 71.42 1.13 M51.48 30.17 C58.13 19.68, 64.94 14.63, 76.41 1.49 M51.48 30.17 C59.99 20.67, 66.51 11.64, 76.41 1.49 M57.12 29.78 C66.34 19.23, 73.88 9.85, 79.43 4.12 M57.12 29.78 C65.85 19.57, 73.32 11.11, 79.43 4.12 M62.11 30.14 C70.09 22, 73.61 16.85, 82.44 6.74 M62.11 30.14 C69.23 22.37, 75.98 12.47, 82.44 6.74 M67.75 29.74 C71.36 24.69, 76.02 16.44, 82.18 13.14 M67.75 29.74 C72.46 24.45, 75.6 19.55, 82.18 13.14 M72.74 30.1 C75.81 26.54, 81.71 21.35, 82.58 18.78 M72.74 30.1 C75.68 28.05, 77.28 23.89, 82.58 18.78" stroke="#fa5252" stroke-width="0.5" fill="none"></path><path d="M7.5 0 M7.5 0 C25.62 1.21, 41.32 2.35, 72.5 0 M72.5 0 C77.12 -1.5, 79.67 2.14, 80 7.5 M80 7.5 C78.94 10.6, 81.4 17.86, 80 22.5 M80 22.5 C81.8 27.78, 76.48 29.35, 72.5 30 M72.5 30 C49.43 28.62, 24.91 30.09, 7.5 30 M7.5 30 C1.42 28.23, 0.95 27.25, 0 22.5 M0 22.5 C-0.38 18.67, -0.81 15.04, 0 7.5 M0 7.5 C1.5 3.65, 0.51 -0.34, 7.5 0" stroke="#000000" stroke-width="1.5" fill="none" stroke-dasharray="1.5 7"></path></g><g transform="translate(895.9121183387936 797.0354863144597) rotate(0 18.847999572753906 9.599999999999994)"><text x="18.847999572753906" y="0" font-family="Virgil, Segoe UI Emoji" font-size="16px" fill="#000000" text-anchor="middle" style="white-space: pre;" direction="ltr" dominant-baseline="text-before-edge">KILL</text></g><g stroke-linecap="round"><g transform="translate(781.1129342871827 753.4612675644597) rotate(0 -21.137549397455246 13.866175239207223)"><path d="M0.96 -0.49 C-6.2 4.1, -36.11 23.53, -43.24 28.43 M0.01 -1.8 C-6.75 2.84, -33.92 24.22, -40.96 29.53" stroke="#000000" stroke-width="1" fill="none"></path></g><g transform="translate(781.1129342871827 753.4612675644597) rotate(0 -21.137549397455246 13.866175239207223)"><path d="M-28 6.37 C-32.23 14.93, -35.23 18.16, -42.38 30.65 M-27.55 8.35 C-32.52 15.13, -36.91 24.09, -41.72 29.81" stroke="#000000" stroke-width="1" fill="none"></path></g><g transform="translate(781.1129342871827 753.4612675644597) rotate(0 -21.137549397455246 13.866175239207223)"><path d="M-17.24 20.33 C-24.56 25.1, -30.54 24.46, -42.38 30.65 M-16.79 22.3 C-25.92 23.66, -34.41 27.3, -41.72 29.81" stroke="#000000" stroke-width="1" fill="none"></path></g></g><mask></mask><g stroke-linecap="round"><g transform="translate(824.1702741615475 756.7581425644597) rotate(0 1.6623505802052705 16.33728092983364)"><path d="M-0.49 -0.84 C-0.39 4.59, 1.12 28.07, 1.54 33.51 M1.45 1.33 C1.86 6.32, 3.88 26.5, 3.82 31.71" stroke="#000000" stroke-width="1" fill="none"></path></g><g transform="translate(824.1702741615475 756.7581425644597) rotate(0 1.6623505802052705 16.33728092983364)"><path d="M-3.77 15.37 C0.75 21.77, 0.84 26.76, 4.74 33.05 M-2.14 16.37 C-1.23 22.31, 1.51 26.3, 4.05 30.99" stroke="#000000" stroke-width="1" fill="none"></path></g><g transform="translate(824.1702741615475 756.7581425644597) rotate(0 1.6623505802052705 16.33728092983364)"><path d="M7.5 14.79 C7.8 21.36, 3.68 26.56, 4.74 33.05 M9.13 15.79 C6.18 21.88, 5.08 26.08, 4.05 30.99" stroke="#000000" stroke-width="1" fill="none"></path></g></g><mask></mask><g stroke-linecap="round"><g transform="translate(832.7835554115475 757.5589238144597) rotate(0 42.225952804833696 11.270689298124069)"><path d="M-0.84 -0.84 C13.22 2.92, 71.22 18.29, 85.29 22.02 M0.92 1.34 C14.79 5.31, 70.49 19.87, 84.66 23.38" stroke="#000000" stroke-width="1" fill="none"></path></g><g transform="translate(832.7835554115475 757.5589238144597) rotate(0 42.225952804833696 11.270689298124069)"><path d="M53.41 27.34 C65.6 23.62, 76.1 25.41, 86.29 24.21 M54.63 25.51 C61.72 25.39, 66.47 25.21, 83.79 24.01" stroke="#000000" stroke-width="1" fill="none"></path></g><g transform="translate(832.7835554115475 757.5589238144597) rotate(0 42.225952804833696 11.270689298124069)"><path d="M58.5 7.46 C68.67 11.26, 77.23 20.61, 86.29 24.21 M59.72 5.63 C65.67 9.67, 69.37 13.62, 83.79 24.01" stroke="#000000" stroke-width="1" fill="none"></path></g></g><mask></mask><g transform="translate(1009.8196882240475 703.6103515625) rotate(0 74.41600036621094 9.600000000000023)"><text x="0" y="0" font-family="Virgil, Segoe UI Emoji" font-size="16px" fill="#000000" text-anchor="start" style="white-space: pre;" direction="ltr" dominant-baseline="text-before-edge">REMOTE MACHINE</text></g><g transform="translate(987.1829694740475 648.2392578125) rotate(0 96.24798583984375 9.600000000000023)"><text x="0" y="0" font-family="Virgil, Segoe UI Emoji" font-size="16px" fill="#000000" text-anchor="start" style="white-space: pre;" direction="ltr" dominant-baseline="text-before-edge">KUBERNETES CLUSTER</text></g></svg>