<svg version="1.1" xmlns="http://www.w3.org/2000/svg" viewBox="0 0 1199.1097324609757 922.5419921875" width="2398.2194649219514" height="1845.083984375">
  <!-- svg-source:excalidraw -->
  
  <defs>
    <style class="style-fonts">
      @font-face {
        font-family: "Virgil";
        src: url("https://excalidraw.com/Virgil.woff2");
      }
      @font-face {
        font-family: "Cascadia";
        src: url("https://excalidraw.com/Cascadia.woff2");
      }
    </style>
  </defs>
  <g stroke-linecap="round" transform="translate(207.32660700157282 275.203857421875) rotate(0 338.22070312499994 38.51953125)"><path d="M19.26 0 M19.26 0 C173.54 -2.26, 327.54 -1.73, 657.18 0 M19.26 0 C245.41 0.4, 471.54 0.58, 657.18 0 M657.18 0 C668.15 0.11, 677.32 7.7, 676.44 19.26 M657.18 0 C668.82 0.71, 676.05 7.22, 676.44 19.26 M676.44 19.26 C677.16 29.18, 677.51 38.39, 676.44 57.78 M676.44 19.26 C675.59 30.78, 677.03 43.47, 676.44 57.78 M676.44 57.78 C676.15 72.12, 670.66 77.84, 657.18 77.04 M676.44 57.78 C678.18 71.39, 668.13 79.23, 657.18 77.04 M657.18 77.04 C435.31 77.17, 214.28 76.71, 19.26 77.04 M657.18 77.04 C482.87 76.15, 308.4 76.69, 19.26 77.04 M19.26 77.04 C7.27 75.19, -0.22 71.29, 0 57.78 M19.26 77.04 C7.6 75.6, 1.94 71.79, 0 57.78 M0 57.78 C1.18 41.73, 0.03 28.67, 0 19.26 M0 57.78 C0.93 49.77, 0.9 39.34, 0 19.26 M0 19.26 C1.14 8.27, 8.07 0.38, 19.26 0 M0 19.26 C0.8 6.31, 7.41 -1.7, 19.26 0" stroke="#862e9c" stroke-width="1" fill="none"></path></g><g transform="translate(438.5473101265728 301.223388671875) rotate(0 107 11.5)"><text x="107" y="0" font-family="Virgil, Segoe UI Emoji" font-size="20px" fill="#862e9c" text-anchor="middle" style="white-space: pre;" direction="ltr" dominant-baseline="text-before-edge">Virtual kubelet (Knoc)</text></g><g mask="url(#mask-ehlmKbfYaNDlHBL977Ndt)" stroke-linecap="round"><g transform="translate(446.0797473934085 119.289794921875) rotate(0 0.039970147949929924 72.39191018417478)"><path d="M-0.84 -0.79 C-0.89 23.51, 0.32 121.33, 0.52 145.57 M0.92 1.41 C0.64 25.37, -0.21 119.72, -0.46 143.79" stroke="#000000" stroke-width="1" fill="none"></path></g><g transform="translate(446.0797473934085 119.289794921875) rotate(0 0.039970147949929924 72.39191018417478)"><path d="M-11.76 115.43 C-5.74 125.56, -3.6 136.7, -1.26 144.46 M-10 116.14 C-8.18 124.45, -4.78 133.12, -0.99 143.89" stroke="#000000" stroke-width="1" fill="none"></path></g><g transform="translate(446.0797473934085 119.289794921875) rotate(0 0.039970147949929924 72.39191018417478)"><path d="M8.76 115.62 C7.26 125.54, 1.87 136.61, -1.26 144.46 M10.52 116.34 C6.07 124.6, 3.21 133.21, -0.99 143.89" stroke="#000000" stroke-width="1" fill="none"></path></g></g><mask id="mask-ehlmKbfYaNDlHBL977Ndt"><rect x="0" y="0" fill="#fff" width="546.6411175402062" height="364.207763671875"></rect><rect x="416.8604324668074" y="180.248779296875" fill="#000" width="59" height="23" opacity="1"></rect></mask><g transform="translate(416.8604324668074 180.248779296875) rotate(0 29.25928507455103 11.432925809174776)"><text x="29.5" y="0" font-family="Virgil, Segoe UI Emoji" font-size="20px" fill="#000000" text-anchor="middle" style="white-space: pre;" direction="ltr" dominant-baseline="text-before-edge">v1.Pod</text></g><g mask="url(#mask-OxJxCaEYSiE_qonnmh0yW)" stroke-linecap="round"><g transform="translate(618.9199502608913 260.914794921875) rotate(0 -2.9874134034224653 -69.13750458881259)"><path d="M-0.05 0.65 C-0.72 -22.37, -4.13 -115.63, -4.86 -138.93 M-1.53 -0.05 C-2.3 -22.82, -5.34 -114.52, -5.93 -137.53" stroke="#000000" stroke-width="1" fill="none"></path></g><g transform="translate(618.9199502608913 260.914794921875) rotate(0 -2.9874134034224653 -69.13750458881259)"><path d="M6.26 -110.04 C2.36 -115.7, -0.56 -121.81, -5.82 -139.4 M4.65 -109.35 C1.49 -117.75, -2.27 -126.51, -5.56 -137.19" stroke="#000000" stroke-width="1" fill="none"></path></g><g transform="translate(618.9199502608913 260.914794921875) rotate(0 -2.9874134034224653 -69.13750458881259)"><path d="M-14.25 -109.43 C-13.43 -115.22, -11.63 -121.47, -5.82 -139.4 M-15.86 -108.73 C-12.76 -117.46, -10.25 -126.4, -5.56 -137.19" stroke="#000000" stroke-width="1" fill="none"></path></g></g><mask id="mask-OxJxCaEYSiE_qonnmh0yW"><rect x="0" y="0" fill="#fff" width="723.5487947612762" height="499.578857421875"></rect><rect x="560.1055280106987" y="180.082763671875" fill="#000" width="113" height="23" opacity="1"></rect></mask><g transform="translate(560.1055280106988 180.082763671875) rotate(0 55.82700884677001 11.69452666118741)"><text x="56.5" y="0" font-family="Virgil, Segoe UI Emoji" font-size="20px" fill="#000000" text-anchor="middle" style="white-space: pre;" direction="ltr" dominant-baseline="text-before-edge">pod status</text></g><g stroke-linecap="round" transform="translate(344.8773882515728 10) rotate(0 183.38671875 49.03125)"><path d="M24.44 1.09 L341.87 -0.44 L353.36 0.72 L361.32 6.24 L361.46 9.68 L367.27 20.05 L365.73 74.17 L364.9 84.96 L362.25 88.69 L357.93 95.29 L342.68 99.09 L24.66 98.29 L13.94 96.45 L4.38 90.98 L2.65 84.71 L0.09 80.8 L1.02 19.57 L3.05 14.46 L4.48 8.03 L14.74 -0.16 L24.74 -0.63" stroke="none" stroke-width="0" fill="#ced4da"></path><path d="M24.52 0 M24.52 0 C113.4 1.3, 202.65 1.5, 342.26 0 M24.52 0 C106.96 -2.74, 188.74 -1.86, 342.26 0 M342.26 0 C359.63 -1.25, 368.46 9.19, 366.77 24.52 M342.26 0 C360.64 -2.29, 366.25 9.09, 366.77 24.52 M366.77 24.52 C365.26 35.16, 364.75 49.94, 366.77 73.55 M366.77 24.52 C367.65 44.11, 367.9 62.04, 366.77 73.55 M366.77 73.55 C367.47 89.8, 359.46 96.58, 342.26 98.06 M366.77 73.55 C367.61 91.17, 356.62 100.33, 342.26 98.06 M342.26 98.06 C273.53 96.66, 207.95 98.17, 24.52 98.06 M342.26 98.06 C264.59 97.07, 186.4 96.95, 24.52 98.06 M24.52 98.06 C6.76 96.24, -0.71 90.41, 0 73.55 M24.52 98.06 C6.7 97.68, -1.21 88.46, 0 73.55 M0 73.55 C0.15 53.89, 0.3 35.09, 0 24.52 M0 73.55 C0.99 56.21, 1.11 40.73, 0 24.52 M0 24.52 C-1.32 7.63, 7.9 1.61, 24.52 0 M0 24.52 C1.59 6.82, 6.08 0.85, 24.52 0" stroke="#000000" stroke-width="1" fill="none"></path></g><g transform="translate(449.2641070015728 46.53125) rotate(0 79 11.5)"><text x="79" y="0" font-family="Virgil, Segoe UI Emoji" font-size="20px" fill="#000000" text-anchor="middle" style="white-space: pre;" direction="ltr" dominant-baseline="text-before-edge">K8s API server</text></g><g stroke-linecap="round"><g transform="translate(9.775825751572825 683.9290771484374) rotate(0 589.779040478915 -0.20969854518773445)"><path d="M0.22 -0.48 C196.82 -0.43, 983.07 -0.03, 1179.33 0.07" stroke="#1864ab" stroke-width="4.5" fill="none" stroke-dasharray="1.5 10"></path></g></g><mask></mask><g stroke-linecap="round" transform="translate(224.68988825157282 350.9993896484375) rotate(0 88.197265625 29.69140625)"><path d="M2.09 5.79 C2.09 5.79, 2.09 5.79, 2.09 5.79 M2.09 5.79 C2.09 5.79, 2.09 5.79, 2.09 5.79 M1.83 12.19 C4.05 10.34, 5.95 7.6, 8.39 4.64 M1.83 12.19 C3.61 10.21, 5.98 7.53, 8.39 4.64 M1.57 18.59 C8.69 12.69, 11.19 7.41, 16.66 1.23 M1.57 18.59 C6.64 12.35, 12.63 5.76, 16.66 1.23 M1.31 24.99 C6.67 17.82, 11.13 14.13, 21.65 1.59 M1.31 24.99 C8.82 17.51, 14.83 9.83, 21.65 1.59 M1.7 30.63 C9.96 21.36, 18.31 9.88, 27.29 1.2 M1.7 30.63 C9.68 21.43, 20.18 11.35, 27.29 1.2 M1.44 37.03 C9.65 29.34, 15.46 21.09, 32.28 1.56 M1.44 37.03 C12.84 23.88, 23.85 11.71, 32.28 1.56 M1.84 42.67 C10.26 33.45, 22.08 19.56, 37.26 1.92 M1.84 42.67 C12 30.74, 21.75 19.1, 37.26 1.92 M1.57 49.07 C9.1 38.69, 17.96 27.85, 42.91 1.52 M1.57 49.07 C17.84 29.91, 34.32 11.36, 42.91 1.52 M2.62 53.96 C19.78 35.36, 35.62 20.24, 47.89 1.88 M2.62 53.96 C14.16 42.52, 23.36 28.74, 47.89 1.88 M5.64 56.58 C21.15 39.05, 37.81 21.29, 53.54 1.49 M5.64 56.58 C14.13 45.96, 24.21 34.95, 53.54 1.49 M8.66 59.21 C23.63 41.51, 37.46 24.2, 58.52 1.85 M8.66 59.21 C28.24 36.56, 48.46 14.65, 58.52 1.85 M14.31 58.81 C29.49 40.11, 46.11 19.11, 64.17 1.45 M14.31 58.81 C28.36 43.07, 42.82 26.55, 64.17 1.45 M19.29 59.17 C30.42 47.31, 42.05 34.09, 69.15 1.81 M19.29 59.17 C30.87 46.05, 43.33 31.23, 69.15 1.81 M24.94 58.78 C41.47 36.59, 60.24 18.32, 74.8 1.42 M24.94 58.78 C44.1 37.17, 62.86 15.92, 74.8 1.42 M29.92 59.14 C45.44 44.75, 59.59 24.68, 79.78 1.78 M29.92 59.14 C41.63 47.02, 52.11 33.91, 79.78 1.78 M35.57 58.74 C47.17 44.7, 56.8 35.51, 84.77 2.14 M35.57 58.74 C46.78 44.42, 58.7 31.31, 84.77 2.14 M40.55 59.1 C55.93 41.56, 67.47 29.02, 90.41 1.74 M40.55 59.1 C53.03 45.33, 65.68 29.95, 90.41 1.74 M45.54 59.46 C63.44 41.87, 80.72 22.24, 95.4 2.1 M45.54 59.46 C56.3 47.47, 67.18 34.92, 95.4 2.1 M51.18 59.07 C60.62 44.78, 73.21 34.31, 101.04 1.71 M51.18 59.07 C69.76 37.27, 89.83 15.41, 101.04 1.71 M56.17 59.43 C73.15 37.14, 93.91 16.6, 106.03 2.07 M56.17 59.43 C71.36 41.4, 84.75 25.5, 106.03 2.07 M61.81 59.03 C80.85 37.3, 99.68 17.86, 111.67 1.68 M61.81 59.03 C81.38 37.51, 100.05 16.06, 111.67 1.68 M66.8 59.39 C78.28 44.78, 91.65 33.75, 116.66 2.04 M66.8 59.39 C80.66 42.01, 94.36 27.38, 116.66 2.04 M72.44 59 C83.44 43.86, 95.81 31.22, 121.65 2.4 M72.44 59 C87.36 39.96, 102.28 24.03, 121.65 2.4 M77.43 59.36 C90.62 45.54, 106.54 28.64, 127.29 2 M77.43 59.36 C97.84 38.24, 115.44 15.36, 127.29 2 M82.42 59.72 C98.85 39.15, 115.46 23.52, 132.28 2.36 M82.42 59.72 C103.01 37.74, 121.86 16.08, 132.28 2.36 M88.06 59.32 C101.39 46.65, 112.41 33.09, 137.92 1.97 M88.06 59.32 C98.84 47.15, 109.57 34.88, 137.92 1.97 M93.05 59.68 C102.16 45.86, 114.98 32.69, 142.91 2.33 M93.05 59.68 C108.62 42.03, 124.77 23.24, 142.91 2.33 M98.69 59.29 C117.44 38.4, 134.37 19.12, 148.55 1.93 M98.69 59.29 C111.43 44.58, 123.86 30.39, 148.55 1.93 M103.68 59.65 C118.57 44.61, 132.07 25.71, 153.54 2.29 M103.68 59.65 C118.92 41.82, 134.94 22.82, 153.54 2.29 M109.32 59.26 C120.89 46.77, 130.47 33.01, 158.52 2.65 M109.32 59.26 C124.31 40.7, 139.96 23.44, 158.52 2.65 M114.31 59.62 C132.74 38.66, 154.55 13.1, 164.17 2.26 M114.31 59.62 C131.65 39.96, 147.91 21.53, 164.17 2.26 M119.29 59.98 C138.18 37.63, 155.49 18.15, 169.81 1.86 M119.29 59.98 C135.35 40.95, 151.57 23.7, 169.81 1.86 M124.94 59.58 C141.89 41.38, 160.79 22.04, 172.83 4.49 M124.94 59.58 C136.26 46.76, 147.27 33.94, 172.83 4.49 M129.92 59.94 C140.53 47.46, 151.91 33.26, 175.19 7.87 M129.92 59.94 C143.63 43.76, 157.75 26.6, 175.19 7.87 M135.57 59.55 C147.9 44.51, 164.46 29, 176.9 12 M135.57 59.55 C152.39 41.66, 168.12 22.77, 176.9 12 M140.55 59.91 C147.1 49.2, 157.14 39.84, 176.64 18.4 M140.55 59.91 C149.2 50.67, 159.01 40.88, 176.64 18.4 M146.2 59.51 C151.78 53.79, 158.28 46.01, 176.38 24.8 M146.2 59.51 C154.38 50.91, 162.15 41.51, 176.38 24.8 M151.18 59.87 C157.44 50.54, 166.52 43.62, 176.77 30.44 M151.18 59.87 C161.5 48.22, 170.65 36.72, 176.77 30.44 M156.83 59.48 C166.02 49.44, 173.28 42.24, 176.51 36.84 M156.83 59.48 C161.93 52.62, 167.51 46.43, 176.51 36.84 M161.81 59.84 C166.81 55.26, 166.43 51.52, 176.25 43.23 M161.81 59.84 C165.95 54.22, 171.02 48.41, 176.25 43.23 M168.77 57.93 C171.22 55.96, 172.79 54.83, 175.99 49.63 M168.77 57.93 C171.3 54.55, 173.98 51.72, 175.99 49.63" stroke="#ced4da" stroke-width="0.5" fill="none"></path><path d="M14.85 0 M14.85 0 C57.1 1.06, 97.96 0.14, 161.55 0 M161.55 0 C173.35 -1.85, 176.8 3.4, 176.39 14.85 M176.39 14.85 C175.2 24.57, 177.12 38.12, 176.39 44.54 M176.39 44.54 C175.03 56.21, 169.57 60.82, 161.55 59.38 M161.55 59.38 C113.95 59.04, 68.97 61.52, 14.85 59.38 M14.85 59.38 C3.87 60.04, -1.02 52.7, 0 44.54 M0 44.54 C1.11 38.12, 1.48 29.64, 0 14.85 M0 14.85 C-0.39 3.74, 2.98 0.24, 14.85 0" stroke="#000000" stroke-width="1.5" fill="none" stroke-dasharray="1.5 7"></path></g><g transform="translate(279.3871538765728 368.1907958984375) rotate(0 33.5 11.5)"><text x="33.5" y="0" font-family="Virgil, Segoe UI Emoji" font-size="20px" fill="#000000" text-anchor="middle" style="white-space: pre;" direction="ltr" dominant-baseline="text-before-edge">create</text></g><g stroke-linecap="round" transform="translate(454.3598101265728 352.8001708984375) rotate(0 88.197265625 29.69140625)"><path d="M2.09 5.79 C2.09 5.79, 2.09 5.79, 2.09 5.79 M2.09 5.79 C2.09 5.79, 2.09 5.79, 2.09 5.79 M1.83 12.19 C4.08 9.75, 6.27 7.08, 8.39 4.64 M1.83 12.19 C3.37 10.48, 5.03 9.11, 8.39 4.64 M1.57 18.59 C4.92 14.55, 12.64 5.05, 16.66 1.23 M1.57 18.59 C6.74 12.46, 10.74 7.54, 16.66 1.23 M1.31 24.99 C5.51 20.59, 13.24 10.51, 21.65 1.59 M1.31 24.99 C6.48 18.97, 13.49 12.25, 21.65 1.59 M1.7 30.63 C5.81 24.27, 12.84 17.32, 27.29 1.2 M1.7 30.63 C8.67 24.33, 12.93 17.51, 27.29 1.2 M1.44 37.03 C13.95 22.96, 26.21 7.66, 32.28 1.56 M1.44 37.03 C12.6 24.5, 21.72 13.23, 32.28 1.56 M1.84 42.67 C11.04 31.93, 17.96 22.76, 37.26 1.92 M1.84 42.67 C12.79 29.37, 23.09 16.96, 37.26 1.92 M1.57 49.07 C14.31 32.39, 30.78 19.99, 42.91 1.52 M1.57 49.07 C16.13 32.87, 30.52 15.26, 42.91 1.52 M2.62 53.96 C14.99 43.08, 23.64 27.6, 47.89 1.88 M2.62 53.96 C14.58 37.82, 28.5 24.66, 47.89 1.88 M5.64 56.58 C17.46 44.82, 26.65 31.86, 53.54 1.49 M5.64 56.58 C16.27 44.68, 27.95 30.38, 53.54 1.49 M8.66 59.21 C22.89 40.7, 42.43 20.81, 58.52 1.85 M8.66 59.21 C23.78 42.79, 38.07 25.36, 58.52 1.85 M14.31 58.81 C24.42 43.79, 37.39 32.92, 64.17 1.45 M14.31 58.81 C24.1 47.71, 33.82 35.39, 64.17 1.45 M19.29 59.17 C36.71 40.06, 50.85 21.43, 69.15 1.81 M19.29 59.17 C33.1 42.92, 48.12 27.59, 69.15 1.81 M24.94 58.78 C41.67 41.06, 59.66 21.81, 74.8 1.42 M24.94 58.78 C34.91 47.68, 45.66 35.21, 74.8 1.42 M29.92 59.14 C40.34 45.74, 48.37 36.38, 79.78 1.78 M29.92 59.14 C40.97 45.97, 51.17 32.29, 79.78 1.78 M35.57 58.74 C50.5 42.6, 64.54 25.9, 84.77 2.14 M35.57 58.74 C50.69 41.52, 65.14 23.89, 84.77 2.14 M40.55 59.1 C54.48 43.44, 69.7 24.11, 90.41 1.74 M40.55 59.1 C56.48 40.23, 72.86 21.02, 90.41 1.74 M45.54 59.46 C60.72 43.87, 70.63 28.48, 95.4 2.1 M45.54 59.46 C58.49 44.67, 70.16 30.94, 95.4 2.1 M51.18 59.07 C62.4 47.79, 76.03 33.89, 101.04 1.71 M51.18 59.07 C70.13 38.57, 88.06 17.03, 101.04 1.71 M56.17 59.43 C69.84 44.67, 81.8 32.34, 106.03 2.07 M56.17 59.43 C72.55 40.13, 91.32 20.18, 106.03 2.07 M61.81 59.03 C72.41 49.04, 83.17 36.25, 111.67 1.68 M61.81 59.03 C80.57 38.09, 97.56 16.38, 111.67 1.68 M66.8 59.39 C78.89 48.48, 88.92 32.78, 116.66 2.04 M66.8 59.39 C85.65 38.18, 105.39 14.6, 116.66 2.04 M72.44 59 C85.71 43.2, 101.4 27.17, 121.65 2.4 M72.44 59 C90.45 38.85, 109.68 16.5, 121.65 2.4 M77.43 59.36 C93.71 43.01, 108.19 23.87, 127.29 2 M77.43 59.36 C90.96 41.96, 106.1 26.66, 127.29 2 M82.42 59.72 C102.45 39.65, 122.41 14.67, 132.28 2.36 M82.42 59.72 C94.14 46.7, 105.23 33.05, 132.28 2.36 M88.06 59.32 C102.81 43.77, 115.24 24.69, 137.92 1.97 M88.06 59.32 C101.79 43.61, 116.07 26.69, 137.92 1.97 M93.05 59.68 C104.7 45.34, 116.47 33.11, 142.91 2.33 M93.05 59.68 C104.05 46.63, 115.34 35.69, 142.91 2.33 M98.69 59.29 C109.93 47.05, 117.62 37.41, 148.55 1.93 M98.69 59.29 C115.14 40.67, 130.44 21.74, 148.55 1.93 M103.68 59.65 C122 36.78, 141.64 15.67, 153.54 2.29 M103.68 59.65 C123.01 36.95, 142.31 13.85, 153.54 2.29 M109.32 59.26 C124.33 39.73, 142.88 21.88, 158.52 2.65 M109.32 59.26 C122.09 44.77, 137.01 29, 158.52 2.65 M114.31 59.62 C127.63 43.79, 139.41 29.96, 164.17 2.26 M114.31 59.62 C126.55 45.57, 140.8 29.34, 164.17 2.26 M119.29 59.98 C135.62 40.9, 152.77 21.03, 169.81 1.86 M119.29 59.98 C134.66 43.28, 150.19 25.25, 169.81 1.86 M124.94 59.58 C138.13 47.48, 147.66 30.1, 172.83 4.49 M124.94 59.58 C140.47 41.51, 156.7 22.6, 172.83 4.49 M129.92 59.94 C146.66 39.65, 163.15 23.61, 175.19 7.87 M129.92 59.94 C143.55 43.41, 158.61 28.21, 175.19 7.87 M135.57 59.55 C148.54 47.81, 160.14 31.91, 176.9 12 M135.57 59.55 C150.12 42.7, 163.01 27.33, 176.9 12 M140.55 59.91 C154.17 44.32, 164.52 30.16, 176.64 18.4 M140.55 59.91 C152.98 47.42, 162.44 33.21, 176.64 18.4 M146.2 59.51 C152.34 52.46, 158.86 44.56, 176.38 24.8 M146.2 59.51 C153.11 51.58, 160 42.64, 176.38 24.8 M151.18 59.87 C160.73 50.49, 170.01 42.69, 176.77 30.44 M151.18 59.87 C156.53 53.01, 164.09 46.55, 176.77 30.44 M156.83 59.48 C162.23 54.88, 165.24 49.32, 176.51 36.84 M156.83 59.48 C163.16 51.72, 170.29 42.59, 176.51 36.84 M161.81 59.84 C164.11 53.95, 170.56 49.3, 176.25 43.23 M161.81 59.84 C166.08 54.16, 170.53 49.37, 176.25 43.23 M168.77 57.93 C171.19 56.6, 173.33 53.29, 175.99 49.63 M168.77 57.93 C170.61 55.64, 173.01 53.48, 175.99 49.63" stroke="#ced4da" stroke-width="0.5" fill="none"></path><path d="M14.85 0 M14.85 0 C65.2 -0.49, 116.04 -3.04, 161.55 0 M161.55 0 C171.86 -1.55, 178.27 5.93, 176.39 14.85 M176.39 14.85 C176.78 25.47, 174.83 38.08, 176.39 44.54 M176.39 44.54 C174.51 55.87, 171.83 58.16, 161.55 59.38 M161.55 59.38 C108.04 59.44, 51.3 59.02, 14.85 59.38 M14.85 59.38 C3.92 57.65, -1.5 53.07, 0 44.54 M0 44.54 C1.15 32.42, -0.53 22.19, 0 14.85 M0 14.85 C-1.96 5.19, 4.59 1.04, 14.85 0" stroke="#000000" stroke-width="1.5" fill="none" stroke-dasharray="1.5 7"></path></g><g stroke-linecap="round" transform="translate(680.3168413765729 351.2532958984375) rotate(0 88.197265625 29.69140625)"><path d="M2.09 5.79 C2.09 5.79, 2.09 5.79, 2.09 5.79 M2.09 5.79 C2.09 5.79, 2.09 5.79, 2.09 5.79 M1.83 12.19 C4.01 9.84, 5.97 6.46, 8.39 4.64 M1.83 12.19 C3.37 10.65, 5.26 8.57, 8.39 4.64 M1.57 18.59 C9.09 13.14, 11.16 5.89, 16.66 1.23 M1.57 18.59 C4.9 13.6, 9.42 8.93, 16.66 1.23 M1.31 24.99 C9.11 19.26, 11.22 11.48, 21.65 1.59 M1.31 24.99 C8.81 17.82, 15.63 8.52, 21.65 1.59 M1.7 30.63 C8.32 23.43, 14.35 13.05, 27.29 1.2 M1.7 30.63 C7.34 23.63, 12.49 19.37, 27.29 1.2 M1.44 37.03 C13.07 24.22, 23.48 10.51, 32.28 1.56 M1.44 37.03 C11.84 23.85, 23.46 10.8, 32.28 1.56 M1.84 42.67 C8.66 32.62, 17.1 23.78, 37.26 1.92 M1.84 42.67 C12.17 29.33, 23.36 18.02, 37.26 1.92 M1.57 49.07 C10.17 40, 23.04 27.76, 42.91 1.52 M1.57 49.07 C15.51 33.65, 28.03 17, 42.91 1.52 M2.62 53.96 C20.85 33.85, 34.45 16.42, 47.89 1.88 M2.62 53.96 C18.57 34.79, 37.54 13.99, 47.89 1.88 M5.64 56.58 C20.94 38.57, 35.08 22.91, 53.54 1.49 M5.64 56.58 C16.01 45.72, 24 34.64, 53.54 1.49 M8.66 59.21 C21.84 46.06, 33.61 28.68, 58.52 1.85 M8.66 59.21 C22.09 44.11, 34.47 27.89, 58.52 1.85 M14.31 58.81 C22.72 47.16, 35.29 33.43, 64.17 1.45 M14.31 58.81 C27.58 43.44, 39.68 29.77, 64.17 1.45 M19.29 59.17 C34.72 39.71, 50.65 22.26, 69.15 1.81 M19.29 59.17 C30.55 46.71, 42.79 33.13, 69.15 1.81 M24.94 58.78 C39.1 45.54, 51.68 27.09, 74.8 1.42 M24.94 58.78 C41.06 41.37, 55.81 22.92, 74.8 1.42 M29.92 59.14 C45.8 37.12, 65.79 16.86, 79.78 1.78 M29.92 59.14 C49.14 35.83, 67.86 14.49, 79.78 1.78 M35.57 58.74 C53.66 38.36, 71.11 20.5, 84.77 2.14 M35.57 58.74 C50.23 41.51, 64.42 24.95, 84.77 2.14 M40.55 59.1 C60.33 37.83, 76.37 18.63, 90.41 1.74 M40.55 59.1 C53.82 43.53, 66.8 27.04, 90.41 1.74 M45.54 59.46 C62.9 37.25, 80.49 18.02, 95.4 2.1 M45.54 59.46 C61.2 40.37, 77.94 22.1, 95.4 2.1 M51.18 59.07 C63.79 48.47, 73.74 35.69, 101.04 1.71 M51.18 59.07 C65.03 43.68, 77.86 26.79, 101.04 1.71 M56.17 59.43 C66.63 46.95, 79.46 35.72, 106.03 2.07 M56.17 59.43 C76.12 38.46, 95.36 14.72, 106.03 2.07 M61.81 59.03 C79.91 41.32, 95.19 22.18, 111.67 1.68 M61.81 59.03 C81.38 35.78, 100.19 13.37, 111.67 1.68 M66.8 59.39 C82.25 43.33, 92.87 29.97, 116.66 2.04 M66.8 59.39 C80.32 45.09, 91.42 31.28, 116.66 2.04 M72.44 59 C84.07 46.78, 95.44 35.3, 121.65 2.4 M72.44 59 C86.82 44.2, 98.92 29.4, 121.65 2.4 M77.43 59.36 C91.2 45.01, 102.24 27.67, 127.29 2 M77.43 59.36 C96.43 37.05, 117.58 14.87, 127.29 2 M82.42 59.72 C101.18 42.05, 114.98 19.85, 132.28 2.36 M82.42 59.72 C102.18 37.09, 121.31 15.67, 132.28 2.36 M88.06 59.32 C108.46 35.53, 125.38 14.74, 137.92 1.97 M88.06 59.32 C101.3 44.47, 113.37 30, 137.92 1.97 M93.05 59.68 C102.17 48.05, 113.34 34.07, 142.91 2.33 M93.05 59.68 C105.12 45.54, 119.31 29.48, 142.91 2.33 M98.69 59.29 C118.03 35.19, 139.92 13.98, 148.55 1.93 M98.69 59.29 C117.13 37.55, 135.25 17.22, 148.55 1.93 M103.68 59.65 C118.17 42, 134.5 25.31, 153.54 2.29 M103.68 59.65 C114.83 45.95, 125.65 33.8, 153.54 2.29 M109.32 59.26 C123.8 42.87, 139.96 24.59, 158.52 2.65 M109.32 59.26 C121.88 46.97, 133.13 31.85, 158.52 2.65 M114.31 59.62 C124.11 46.48, 135.96 31.2, 164.17 2.26 M114.31 59.62 C129.71 43.83, 142.91 26.85, 164.17 2.26 M119.29 59.98 C135.84 41.45, 151.54 22.27, 169.81 1.86 M119.29 59.98 C134.5 43.85, 148.32 26.08, 169.81 1.86 M124.94 59.58 C139.65 42.91, 149.14 29.76, 172.83 4.49 M124.94 59.58 C137.45 45.38, 149.15 32.62, 172.83 4.49 M129.92 59.94 C141.57 45.19, 157.48 29.99, 175.19 7.87 M129.92 59.94 C141.67 46.65, 154.78 32.07, 175.19 7.87 M135.57 59.55 C146.67 49.58, 153.64 37.5, 176.9 12 M135.57 59.55 C150.33 41.01, 166.59 24.75, 176.9 12 M140.55 59.91 C148.16 48.39, 157.16 39.79, 176.64 18.4 M140.55 59.91 C151.1 47.12, 159.96 35.71, 176.64 18.4 M146.2 59.51 C154.52 49.94, 162.03 40.28, 176.38 24.8 M146.2 59.51 C156.03 48.18, 164.88 37.56, 176.38 24.8 M151.18 59.87 C157.89 54.29, 166.14 43.68, 176.77 30.44 M151.18 59.87 C160.07 50.84, 169.36 39.06, 176.77 30.44 M156.83 59.48 C164.79 50.57, 171.78 43.23, 176.51 36.84 M156.83 59.48 C161.74 53.59, 165.28 49.1, 176.51 36.84 M161.81 59.84 C166.32 54.13, 172.05 47.41, 176.25 43.23 M161.81 59.84 C164.7 55.52, 168.48 51.97, 176.25 43.23 M168.77 57.93 C172.22 55.75, 173.7 51.75, 175.99 49.63 M168.77 57.93 C170.76 55.79, 172.89 54.02, 175.99 49.63" stroke="#ced4da" stroke-width="0.5" fill="none"></path><path d="M14.85 0 M14.85 0 C67.26 1.39, 116.43 -0.11, 161.55 0 M161.55 0 C169.9 1.88, 177.38 6.18, 176.39 14.85 M176.39 14.85 C175.99 20.4, 177.88 26.8, 176.39 44.54 M176.39 44.54 C177.83 54.82, 170.23 60.82, 161.55 59.38 M161.55 59.38 C124.32 59.09, 85.58 59.15, 14.85 59.38 M14.85 59.38 C3.22 57.88, -1.36 55.55, 0 44.54 M0 44.54 C-1.58 33.88, -1.24 22.05, 0 14.85 M0 14.85 C0.24 4.59, 5.99 -0.97, 14.85 0" stroke="#000000" stroke-width="1.5" fill="none" stroke-dasharray="1.5 7"></path></g><g transform="translate(737.0141070015729 368.4447021484375) rotate(0 31.5 11.5)"><text x="31.5" y="0" font-family="Virgil, Segoe UI Emoji" font-size="20px" fill="#000000" text-anchor="middle" style="white-space: pre;" direction="ltr" dominant-baseline="text-before-edge">delete</text></g><g transform="translate(507.05707575157294 369.9915771484375) rotate(0 35.5 11.5)"><text x="35.5" y="0" font-family="Virgil, Segoe UI Emoji" font-size="20px" fill="#000000" text-anchor="middle" style="white-space: pre;" direction="ltr" dominant-baseline="text-before-edge">status</text></g><g stroke-linecap="round" transform="translate(213.98285700157282 694.1634521484375) rotate(0 337.67382812499994 29.697265625)"><path d="M14.85 0 M14.85 0 C211.61 -1.4, 409.06 -1.37, 660.5 0 M14.85 0 C174.08 -0.86, 333.26 -0.92, 660.5 0 M660.5 0 C670.63 0.15, 675.27 3.2, 675.35 14.85 M660.5 0 C669.3 1.28, 675.85 4.62, 675.35 14.85 M675.35 14.85 C676.96 26.66, 673.8 39.04, 675.35 44.55 M675.35 14.85 C674.78 24.98, 675.52 34.73, 675.35 44.55 M675.35 44.55 C674.81 53.89, 669.83 59.13, 660.5 59.39 M675.35 44.55 C674.39 52.89, 672.55 60.37, 660.5 59.39 M660.5 59.39 C526.94 59.76, 393.23 60.66, 14.85 59.39 M660.5 59.39 C409.78 58.59, 158.66 58.97, 14.85 59.39 M14.85 59.39 C3.53 57.99, -1.93 55.77, 0 44.55 M14.85 59.39 C6.81 60.83, -1.86 55.76, 0 44.55 M0 44.55 C0.45 32.8, 0.62 19.76, 0 14.85 M0 44.55 C0.82 33.69, -0.43 24.36, 0 14.85 M0 14.85 C-1.41 3.62, 6.61 0.81, 14.85 0 M0 14.85 C-1.27 4.49, 3.88 0.3, 14.85 0" stroke="#e67700" stroke-width="1" fill="none"></path></g><g transform="translate(423.8467943795025 712.3607177734375) rotate(0 127.80989074707031 11.5)"><text x="127.80989074707031" y="0" font-family="Virgil, Segoe UI Emoji" font-size="20px" fill="#e67700" text-anchor="middle" style="white-space: pre;" direction="ltr" dominant-baseline="text-before-edge">Remote server - InterLink</text></g><g stroke-linecap="round" transform="translate(221.69574762657282 622.81640625) rotate(0 88.197265625 29.69140625)"><path d="M2.09 5.79 C2.09 5.79, 2.09 5.79, 2.09 5.79 M2.09 5.79 C2.09 5.79, 2.09 5.79, 2.09 5.79 M1.83 12.19 C4.4 10.21, 5.64 8.5, 8.39 4.64 M1.83 12.19 C4.15 9.23, 6.63 7.37, 8.39 4.64 M1.57 18.59 C4.42 15.75, 6.54 10.62, 16.66 1.23 M1.57 18.59 C5.31 13.21, 10.77 9.59, 16.66 1.23 M1.31 24.99 C6.58 18.81, 11.46 16.23, 21.65 1.59 M1.31 24.99 C9.84 15.4, 17.17 7.26, 21.65 1.59 M1.7 30.63 C9.09 25.75, 14.87 15.79, 27.29 1.2 M1.7 30.63 C10.76 20.26, 19.65 9.83, 27.29 1.2 M1.44 37.03 C6.56 30.81, 13.52 20.28, 32.28 1.56 M1.44 37.03 C11.13 27.73, 18.37 17.21, 32.28 1.56 M1.84 42.67 C9.81 32.09, 18.33 20.16, 37.26 1.92 M1.84 42.67 C10.94 31.59, 19.86 22.3, 37.26 1.92 M1.57 49.07 C17.42 31, 34.33 12.43, 42.91 1.52 M1.57 49.07 C10.06 39.51, 20.17 28.18, 42.91 1.52 M2.62 53.96 C16.44 38.2, 25.6 25.89, 47.89 1.88 M2.62 53.96 C20.69 34.19, 38.47 13.09, 47.89 1.88 M5.64 56.58 C25.36 34.24, 44.59 14.62, 53.54 1.49 M5.64 56.58 C15.13 44.61, 24.87 35.22, 53.54 1.49 M8.66 59.21 C18.21 48.52, 29.26 36.43, 58.52 1.85 M8.66 59.21 C20 46.2, 29.95 34.44, 58.52 1.85 M14.31 58.81 C31.44 40.12, 47.43 21.53, 64.17 1.45 M14.31 58.81 C29.22 42.36, 43.55 24.3, 64.17 1.45 M19.29 59.17 C36.37 41.06, 50.14 25.82, 69.15 1.81 M19.29 59.17 C37.86 37.01, 58.48 15.4, 69.15 1.81 M24.94 58.78 C41.45 39.66, 59.06 22.04, 74.8 1.42 M24.94 58.78 C43.43 39.31, 58.76 18.75, 74.8 1.42 M29.92 59.14 C48.66 38.85, 65.71 16.3, 79.78 1.78 M29.92 59.14 C40.58 45.46, 53.69 31.42, 79.78 1.78 M35.57 58.74 C52.78 37.41, 72.4 14.74, 84.77 2.14 M35.57 58.74 C44.73 46.37, 56.41 34.76, 84.77 2.14 M40.55 59.1 C55.91 42.95, 67.96 27.83, 90.41 1.74 M40.55 59.1 C51.31 48.25, 60.95 34.87, 90.41 1.74 M45.54 59.46 C62.03 41.61, 77.61 21.11, 95.4 2.1 M45.54 59.46 C63.99 38.03, 84.11 17.63, 95.4 2.1 M51.18 59.07 C68.16 41.73, 84.76 22.54, 101.04 1.71 M51.18 59.07 C63.75 44.9, 77.04 29.7, 101.04 1.71 M56.17 59.43 C73.3 36.1, 94.48 17.03, 106.03 2.07 M56.17 59.43 C73.86 39.54, 92.38 19.8, 106.03 2.07 M61.81 59.03 C77.29 42.81, 92.62 22.49, 111.67 1.68 M61.81 59.03 C76.15 42.91, 92.02 25.68, 111.67 1.68 M66.8 59.39 C76.59 44.26, 91.5 31.23, 116.66 2.04 M66.8 59.39 C78.55 44.99, 91.51 31.64, 116.66 2.04 M72.44 59 C85.88 39.35, 105.22 22.38, 121.65 2.4 M72.44 59 C87.87 43.37, 101.72 26.79, 121.65 2.4 M77.43 59.36 C89.59 45.65, 98.26 34.53, 127.29 2 M77.43 59.36 C95.85 37.14, 117.01 14.95, 127.29 2 M82.42 59.72 C94.79 46.11, 108.08 30.72, 132.28 2.36 M82.42 59.72 C102.04 37.77, 121.2 14.84, 132.28 2.36 M88.06 59.32 C102.27 42.79, 116.36 27.68, 137.92 1.97 M88.06 59.32 C104.69 40.27, 121.42 21.08, 137.92 1.97 M93.05 59.68 C106.24 45.31, 117.52 31.81, 142.91 2.33 M93.05 59.68 C111.99 37.97, 131.43 14.7, 142.91 2.33 M98.69 59.29 C116.26 39.29, 134.78 16.52, 148.55 1.93 M98.69 59.29 C111.32 44.96, 122.27 31.32, 148.55 1.93 M103.68 59.65 C119.41 42.26, 132.4 25.26, 153.54 2.29 M103.68 59.65 C116.04 44.72, 127.89 31.57, 153.54 2.29 M109.32 59.26 C125.48 38.48, 144.35 22.4, 158.52 2.65 M109.32 59.26 C124.54 43.68, 137.26 27.21, 158.52 2.65 M114.31 59.62 C124.33 46.01, 136.97 36.47, 164.17 2.26 M114.31 59.62 C124.88 46.18, 136.97 33.21, 164.17 2.26 M119.29 59.98 C130.48 45.85, 145.22 32.14, 169.81 1.86 M119.29 59.98 C133.74 45.21, 147.44 28.56, 169.81 1.86 M124.94 59.58 C135.76 46.44, 146.44 34.95, 172.83 4.49 M124.94 59.58 C139.68 42.6, 153.76 25.48, 172.83 4.49 M129.92 59.94 C147.67 39.42, 163.4 21.94, 175.19 7.87 M129.92 59.94 C147.9 40.91, 165.56 21.05, 175.19 7.87 M135.57 59.55 C145.79 49.58, 153.85 35.91, 176.9 12 M135.57 59.55 C150.48 42.06, 166.2 22.82, 176.9 12 M140.55 59.91 C150.45 52.12, 159.21 38.53, 176.64 18.4 M140.55 59.91 C151.21 48.62, 160.62 37.44, 176.64 18.4 M146.2 59.51 C157 48.18, 166.39 36.74, 176.38 24.8 M146.2 59.51 C153.08 51.5, 161.23 43.29, 176.38 24.8 M151.18 59.87 C161.27 46.93, 171.81 38.24, 176.77 30.44 M151.18 59.87 C159.93 49.69, 169.95 38.44, 176.77 30.44 M156.83 59.48 C162.16 51.3, 168.74 44.89, 176.51 36.84 M156.83 59.48 C161.02 53.07, 165.61 48.86, 176.51 36.84 M161.81 59.84 C165.15 54.94, 168.08 50.54, 176.25 43.23 M161.81 59.84 C166.37 55.11, 171.65 50.17, 176.25 43.23 M168.77 57.93 C170.29 55.07, 172.89 53.37, 175.99 49.63 M168.77 57.93 C171.96 54.89, 174.49 52.03, 175.99 49.63" stroke="#ced4da" stroke-width="0.5" fill="none"></path><path d="M14.85 0 M14.85 0 C47.19 2.12, 77.02 -0.21, 161.55 0 M161.55 0 C169.48 0.58, 176.28 3.58, 176.39 14.85 M176.39 14.85 C176.5 25.17, 177.56 37.15, 176.39 44.54 M176.39 44.54 C174.99 55.51, 172.53 58.3, 161.55 59.38 M161.55 59.38 C111.18 56.75, 64.95 59.02, 14.85 59.38 M14.85 59.38 C5.2 60.66, -1.54 54.04, 0 44.54 M0 44.54 C-0.07 38.45, -0.68 28.35, 0 14.85 M0 14.85 C0.99 3.16, 4.04 1.78, 14.85 0" stroke="#000000" stroke-width="1.5" fill="none" stroke-dasharray="1.5 7"></path></g><g transform="translate(280.8930132515728 640.0078125) rotate(0 29 11.5)"><text x="29" y="0" font-family="Virgil, Segoe UI Emoji" font-size="20px" fill="#000000" text-anchor="middle" style="white-space: pre;" direction="ltr" dominant-baseline="text-before-edge">POST</text></g><g stroke-linecap="round" transform="translate(460.6098101265728 618.171875) rotate(0 88.197265625 29.69140625)"><path d="M2.09 5.79 C2.09 5.79, 2.09 5.79, 2.09 5.79 M2.09 5.79 C2.09 5.79, 2.09 5.79, 2.09 5.79 M1.83 12.19 C3.3 11.03, 5.42 8.77, 8.39 4.64 M1.83 12.19 C4.75 9.65, 6.31 6.63, 8.39 4.64 M1.57 18.59 C4.14 13.33, 9.14 8.64, 16.66 1.23 M1.57 18.59 C6.9 14.14, 9.37 8.62, 16.66 1.23 M1.31 24.99 C9.66 18.33, 16.52 7.52, 21.65 1.59 M1.31 24.99 C6.67 19.02, 11.78 11.43, 21.65 1.59 M1.7 30.63 C7.96 22.82, 13.06 20.3, 27.29 1.2 M1.7 30.63 C11.39 19.71, 20.48 8.39, 27.29 1.2 M1.44 37.03 C10.97 23.58, 23.26 10.09, 32.28 1.56 M1.44 37.03 C7.79 28.43, 15.07 20.49, 32.28 1.56 M1.84 42.67 C11.46 28.42, 23.01 18.29, 37.26 1.92 M1.84 42.67 C9.65 34.2, 19.57 24.07, 37.26 1.92 M1.57 49.07 C15.74 34.1, 27.13 16.5, 42.91 1.52 M1.57 49.07 C17.42 31.26, 30.85 14.91, 42.91 1.52 M2.62 53.96 C17.66 35.15, 38.38 13.37, 47.89 1.88 M2.62 53.96 C16.4 37.76, 29.68 22.78, 47.89 1.88 M5.64 56.58 C16.82 45.74, 23.03 34.83, 53.54 1.49 M5.64 56.58 C18.43 43.13, 30.48 27.36, 53.54 1.49 M8.66 59.21 C22.1 44.44, 33.66 27.17, 58.52 1.85 M8.66 59.21 C18.06 47.64, 29.52 34.81, 58.52 1.85 M14.31 58.81 C28.3 42.6, 39.63 30.05, 64.17 1.45 M14.31 58.81 C29.79 39.89, 45.62 22.11, 64.17 1.45 M19.29 59.17 C30.77 47.3, 43.7 33.41, 69.15 1.81 M19.29 59.17 C33.07 45.08, 45.84 28.4, 69.15 1.81 M24.94 58.78 C41.96 41.31, 56.21 21.95, 74.8 1.42 M24.94 58.78 C41.43 37.53, 60.26 17.23, 74.8 1.42 M29.92 59.14 C49.16 34.96, 67.21 14.59, 79.78 1.78 M29.92 59.14 C47.8 39.12, 65.08 20.36, 79.78 1.78 M35.57 58.74 C49.75 41.26, 63.47 25.01, 84.77 2.14 M35.57 58.74 C54.4 38.22, 71.12 18.61, 84.77 2.14 M40.55 59.1 C53.69 43.81, 65.82 26.76, 90.41 1.74 M40.55 59.1 C57.78 37.74, 75.29 18.11, 90.41 1.74 M45.54 59.46 C61.07 39.69, 78.69 21.38, 95.4 2.1 M45.54 59.46 C57.42 48.05, 67.77 35.47, 95.4 2.1 M51.18 59.07 C65.45 44.38, 77.45 26.32, 101.04 1.71 M51.18 59.07 C61.93 46.62, 73.69 34.87, 101.04 1.71 M56.17 59.43 C76.52 39.21, 95.87 13.73, 106.03 2.07 M56.17 59.43 C73.59 40.96, 89.5 21.88, 106.03 2.07 M61.81 59.03 C81.8 35.19, 100.09 12.6, 111.67 1.68 M61.81 59.03 C76.44 43.15, 88.49 28.72, 111.67 1.68 M66.8 59.39 C81.03 44.56, 90.88 31.15, 116.66 2.04 M66.8 59.39 C78.5 46.88, 89.89 34.57, 116.66 2.04 M72.44 59 C87.65 43.96, 98.84 29.31, 121.65 2.4 M72.44 59 C85.64 44.06, 97.74 27.82, 121.65 2.4 M77.43 59.36 C96 37.32, 118.51 15.72, 127.29 2 M77.43 59.36 C95.36 40.8, 110.61 20.1, 127.29 2 M82.42 59.72 C102.91 36.51, 122.12 15.6, 132.28 2.36 M82.42 59.72 C102.04 36.71, 120.09 15.28, 132.28 2.36 M88.06 59.32 C102.22 43.71, 113.76 29.27, 137.92 1.97 M88.06 59.32 C98.03 47.53, 108.82 34.55, 137.92 1.97 M93.05 59.68 C104.49 46.01, 120.14 28.54, 142.91 2.33 M93.05 59.68 C112.79 36.09, 133.61 14.13, 142.91 2.33 M98.69 59.29 C116.93 37.41, 134.7 18, 148.55 1.93 M98.69 59.29 C113.57 41.45, 129.61 24.05, 148.55 1.93 M103.68 59.65 C114.99 45.23, 125.12 34.17, 153.54 2.29 M103.68 59.65 C118.51 42.82, 134.27 24.85, 153.54 2.29 M109.32 59.26 C122.35 47.91, 133.02 31.25, 158.52 2.65 M109.32 59.26 C119.83 45.91, 131.54 31.61, 158.52 2.65 M114.31 59.62 C130.36 44.39, 142.21 27.14, 164.17 2.26 M114.31 59.62 C130.78 41.19, 146.62 22.41, 164.17 2.26 M119.29 59.98 C134.8 44.45, 147.98 25.57, 169.81 1.86 M119.29 59.98 C133.73 43.1, 145.77 28.13, 169.81 1.86 M124.94 59.58 C138.01 44.78, 149.26 33.25, 172.83 4.49 M124.94 59.58 C138.01 43.77, 153.27 27.77, 172.83 4.49 M129.92 59.94 C141.53 47.03, 155.62 31.8, 175.19 7.87 M129.92 59.94 C141.21 48.04, 150.56 35.26, 175.19 7.87 M135.57 59.55 C150.1 40.23, 167.41 25.21, 176.9 12 M135.57 59.55 C145.23 47.15, 155.4 36.32, 176.9 12 M140.55 59.91 C151.93 46.21, 159.65 34.89, 176.64 18.4 M140.55 59.91 C150.01 48.92, 159.2 37.83, 176.64 18.4 M146.2 59.51 C156.34 47.94, 164.37 37.83, 176.38 24.8 M146.2 59.51 C154.03 51.6, 162.53 41.27, 176.38 24.8 M151.18 59.87 C160.15 51.74, 169.95 38.28, 176.77 30.44 M151.18 59.87 C161.31 48.4, 170.83 37.8, 176.77 30.44 M156.83 59.48 C162.11 52.74, 164.66 48.96, 176.51 36.84 M156.83 59.48 C164.01 51.14, 171.74 42.19, 176.51 36.84 M161.81 59.84 C164.32 54.88, 168.61 51.53, 176.25 43.23 M161.81 59.84 C167.86 54.47, 172.11 47.49, 176.25 43.23 M168.77 57.93 C170.91 55.68, 173.36 54.23, 175.99 49.63 M168.77 57.93 C171.44 55.51, 173.28 52.17, 175.99 49.63" stroke="#ced4da" stroke-width="0.5" fill="none"></path><path d="M14.85 0 M14.85 0 C48.74 -2.06, 78.22 -0.14, 161.55 0 M161.55 0 C171.34 -1.37, 178.17 3.07, 176.39 14.85 M176.39 14.85 C177.89 25.11, 175.05 38, 176.39 44.54 M176.39 44.54 C177.48 53.35, 172.11 58.36, 161.55 59.38 M161.55 59.38 C131.35 59.29, 99.17 59.66, 14.85 59.38 M14.85 59.38 C3.4 58.99, -1.2 52.47, 0 44.54 M0 44.54 C-0.91 33.32, 1.04 24.2, 0 14.85 M0 14.85 C-0.91 6.73, 3.26 1.85, 14.85 0" stroke="#000000" stroke-width="1.5" fill="none" stroke-dasharray="1.5 7"></path></g><g transform="translate(525.3070757515729 635.36328125) rotate(0 23.5 11.5)"><text x="23.5" y="0" font-family="Virgil, Segoe UI Emoji" font-size="20px" fill="#000000" text-anchor="middle" style="white-space: pre;" direction="ltr" dominant-baseline="text-before-edge">GET</text></g><g stroke-linecap="round" transform="translate(696.7543413765729 617.0625) rotate(0 88.197265625 29.69140625)"><path d="M2.09 5.79 C2.09 5.79, 2.09 5.79, 2.09 5.79 M2.09 5.79 C2.09 5.79, 2.09 5.79, 2.09 5.79 M1.83 12.19 C4.27 10.11, 6.82 7.62, 8.39 4.64 M1.83 12.19 C2.77 10.57, 4.46 8.78, 8.39 4.64 M1.57 18.59 C6.31 12.12, 11.78 5.91, 16.66 1.23 M1.57 18.59 C3.99 14.38, 8.75 10.97, 16.66 1.23 M1.31 24.99 C7.71 17.33, 10.31 14.57, 21.65 1.59 M1.31 24.99 C5.64 18.45, 10.38 14.06, 21.65 1.59 M1.7 30.63 C12.4 21.48, 22.65 8.8, 27.29 1.2 M1.7 30.63 C9.55 21.02, 19.41 9.94, 27.29 1.2 M1.44 37.03 C13.63 21.56, 25 10.48, 32.28 1.56 M1.44 37.03 C11.67 25.14, 22.69 12.46, 32.28 1.56 M1.84 42.67 C11.65 31.75, 21.31 19.12, 37.26 1.92 M1.84 42.67 C11.79 32.71, 19.93 22.06, 37.26 1.92 M1.57 49.07 C13.63 31.82, 30.49 15.87, 42.91 1.52 M1.57 49.07 C16.02 31.74, 32.27 15.11, 42.91 1.52 M2.62 53.96 C15.7 39.99, 24.77 29.41, 47.89 1.88 M2.62 53.96 C17.48 37.08, 30.07 21.67, 47.89 1.88 M5.64 56.58 C13.86 44.75, 25.77 31.89, 53.54 1.49 M5.64 56.58 C14.7 44.64, 25.22 32.94, 53.54 1.49 M8.66 59.21 C24.33 37.71, 41.4 19.25, 58.52 1.85 M8.66 59.21 C19.87 46.16, 29.84 35.54, 58.52 1.85 M14.31 58.81 C26.29 45.43, 39.18 31.2, 64.17 1.45 M14.31 58.81 C32.19 38.38, 49.27 19.01, 64.17 1.45 M19.29 59.17 C33.38 45.2, 43.16 28.86, 69.15 1.81 M19.29 59.17 C34.49 40.31, 49.6 23.74, 69.15 1.81 M24.94 58.78 C38.18 41.96, 51.44 30.97, 74.8 1.42 M24.94 58.78 C42.26 39.53, 59.03 21.69, 74.8 1.42 M29.92 59.14 C44.76 41.16, 63.01 20.43, 79.78 1.78 M29.92 59.14 C45.31 42.45, 59.26 24.55, 79.78 1.78 M35.57 58.74 C49.69 40.86, 68.5 20.84, 84.77 2.14 M35.57 58.74 C47.35 44.91, 59.74 31.25, 84.77 2.14 M40.55 59.1 C52.88 42.03, 70.06 27.31, 90.41 1.74 M40.55 59.1 C60.44 36.37, 80.14 14.21, 90.41 1.74 M45.54 59.46 C63.8 39.18, 77.29 20.07, 95.4 2.1 M45.54 59.46 C58.82 44.27, 71.63 28.66, 95.4 2.1 M51.18 59.07 C68.99 36.08, 86.94 14.05, 101.04 1.71 M51.18 59.07 C68.54 40.71, 84.99 20.61, 101.04 1.71 M56.17 59.43 C69.01 43.21, 80.68 30.6, 106.03 2.07 M56.17 59.43 C72.68 40.36, 90.36 20.63, 106.03 2.07 M61.81 59.03 C80.5 35.8, 99.23 14.15, 111.67 1.68 M61.81 59.03 C77.59 40.63, 94.53 19.54, 111.67 1.68 M66.8 59.39 C76.02 47.09, 86.32 33.84, 116.66 2.04 M66.8 59.39 C78.7 46.61, 89.87 31.37, 116.66 2.04 M72.44 59 C82.48 46.68, 92.7 36.54, 121.65 2.4 M72.44 59 C90.13 36.94, 110.67 16.12, 121.65 2.4 M77.43 59.36 C92.52 45.99, 104.33 27.93, 127.29 2 M77.43 59.36 C93.86 38.15, 112.82 18.65, 127.29 2 M82.42 59.72 C99.87 41.16, 116.22 23.79, 132.28 2.36 M82.42 59.72 C98.11 40.99, 114.49 22.62, 132.28 2.36 M88.06 59.32 C99.31 45.59, 107.71 33.05, 137.92 1.97 M88.06 59.32 C102.63 41.66, 117.21 25.8, 137.92 1.97 M93.05 59.68 C109.85 40.56, 124.87 24.01, 142.91 2.33 M93.05 59.68 C112.74 38.56, 131.56 16.41, 142.91 2.33 M98.69 59.29 C116.19 39.64, 136.12 18.55, 148.55 1.93 M98.69 59.29 C112.71 44.12, 126.01 28.12, 148.55 1.93 M103.68 59.65 C114.74 46.69, 128.11 32.45, 153.54 2.29 M103.68 59.65 C115.34 46.42, 125.43 33.45, 153.54 2.29 M109.32 59.26 C119.76 45.04, 129.67 34.97, 158.52 2.65 M109.32 59.26 C126.11 38.89, 144.08 19.14, 158.52 2.65 M114.31 59.62 C123.77 47.02, 136.88 32.01, 164.17 2.26 M114.31 59.62 C128.37 42.88, 143.2 25.5, 164.17 2.26 M119.29 59.98 C134.51 40.15, 150.76 24.1, 169.81 1.86 M119.29 59.98 C135.87 39.95, 154.25 19.26, 169.81 1.86 M124.94 59.58 C135.55 48.82, 145.78 35.6, 172.83 4.49 M124.94 59.58 C141.07 42.31, 155.05 25.36, 172.83 4.49 M129.92 59.94 C142.49 46.8, 150.39 35.8, 175.19 7.87 M129.92 59.94 C145.51 40.83, 163.58 21.68, 175.19 7.87 M135.57 59.55 C152.22 43.65, 164.35 24.27, 176.9 12 M135.57 59.55 C149.55 43.53, 164.23 27.69, 176.9 12 M140.55 59.91 C153.91 42.11, 168.07 28.52, 176.64 18.4 M140.55 59.91 C150.36 48.15, 160.11 38.05, 176.64 18.4 M146.2 59.51 C153.91 49.97, 162.78 38.15, 176.38 24.8 M146.2 59.51 C157.75 46.38, 167.83 34.69, 176.38 24.8 M151.18 59.87 C158.52 50.97, 165.16 44.08, 176.77 30.44 M151.18 59.87 C160.26 49.85, 168.93 38.53, 176.77 30.44 M156.83 59.48 C159.62 54.62, 166.79 49.12, 176.51 36.84 M156.83 59.48 C160.65 54.73, 164.71 49.57, 176.51 36.84 M161.81 59.84 C165.8 54.85, 170.56 51.44, 176.25 43.23 M161.81 59.84 C166.49 53.77, 171.51 47.51, 176.25 43.23 M168.77 57.93 C171.38 56.41, 172.73 54.93, 175.99 49.63 M168.77 57.93 C170.65 55.19, 173.15 52.81, 175.99 49.63" stroke="#ced4da" stroke-width="0.5" fill="none"></path><path d="M14.85 0 M14.85 0 C64.09 1.57, 117.15 -0.38, 161.55 0 M161.55 0 C173.22 -1.88, 177.83 5.33, 176.39 14.85 M176.39 14.85 C175.21 23.02, 177.69 27.96, 176.39 44.54 M176.39 44.54 C177.06 53.41, 169.72 57.88, 161.55 59.38 M161.55 59.38 C127.79 61.33, 91.98 59.66, 14.85 59.38 M14.85 59.38 C3.74 57.42, 0.24 54.08, 0 44.54 M0 44.54 C1.13 32.3, -0.77 25.43, 0 14.85 M0 14.85 C-1.69 6.8, 6.65 -0.38, 14.85 0" stroke="#000000" stroke-width="1.5" fill="none" stroke-dasharray="1.5 7"></path></g><g transform="translate(741.9516070015729 634.25390625) rotate(0 43 11.5)"><text x="43" y="0" font-family="Virgil, Segoe UI Emoji" font-size="20px" fill="#000000" text-anchor="middle" style="white-space: pre;" direction="ltr" dominant-baseline="text-before-edge">DELETE</text></g><g mask="url(#mask-MsD1mwl-1SN9lO-yx31xS)" stroke-linecap="round"><g transform="translate(311.70686252271605 418.07421875) rotate(0 -0.10031486547313762 100.3655941737909)"><path d="M0.4 0.26 C0.49 33.48, 0.68 166.55, 0.64 199.8 M-0.84 -0.66 C-0.87 32.75, -0.04 167.75, 0.01 201.39" stroke="#000000" stroke-width="1" fill="none"></path></g><g transform="translate(311.70686252271605 418.07421875) rotate(0 -0.10031486547313762 100.3655941737909)"><path d="M-9.94 174.26 C-6.9 182.17, -3.67 190.6, -1.74 200.43 M-9.61 173.56 C-6.21 184.02, -2.58 192.45, 0.96 201.86" stroke="#000000" stroke-width="1" fill="none"></path></g><g transform="translate(311.70686252271605 418.07421875) rotate(0 -0.10031486547313762 100.3655941737909)"><path d="M10.58 174.18 C7.25 182.18, 4.11 190.63, -1.74 200.43 M10.91 173.47 C7.01 183.94, 3.34 192.4, 0.96 201.86" stroke="#000000" stroke-width="1" fill="none"></path></g></g><mask id="mask-MsD1mwl-1SN9lO-yx31xS"><rect x="0" y="0" fill="#fff" width="411.72877069797676" height="717.79296875"></rect><rect x="251.2178166103464" y="506.43359375" fill="#000" width="121" height="23" opacity="1"></rect></mask><g transform="translate(251.2178166103464 506.43359375) rotate(0 60.38873104689651 12.006219173790896)"><text x="60.5" y="0" font-family="Virgil, Segoe UI Emoji" font-size="20px" fill="#000000" text-anchor="middle" style="white-space: pre;" direction="ltr" dominant-baseline="text-before-edge">v1.Pod JSON</text></g><g mask="url(#mask--oc2QFdTBtxHA0fUu6Fw_)" stroke-linecap="round"><g transform="translate(499.70160700157294 416.8984375) rotate(0 0.9498053996404678 95.90964122247885)"><path d="M0.61 0.09 C0.95 31.9, 2.15 159.5, 2.42 191.15 M-0.52 -0.92 C-0.37 31.09, 1.22 160.79, 1.55 192.73" stroke="#000000" stroke-width="1" fill="none"></path></g><g transform="translate(499.70160700157294 416.8984375) rotate(0 0.9498053996404678 95.90964122247885)"><path d="M-8.89 164.89 C-5.29 173.9, -3.67 182.39, 2.66 193.17 M-8.63 165.42 C-5.46 171.82, -1.83 181.13, 0.7 192.84" stroke="#000000" stroke-width="1" fill="none"></path></g><g transform="translate(499.70160700157294 416.8984375) rotate(0 0.9498053996404678 95.90964122247885)"><path d="M11.63 164.66 C8.38 173.85, 3.16 182.42, 2.66 193.17 M11.89 165.19 C9.2 171.72, 6.98 181.1, 0.7 192.84" stroke="#000000" stroke-width="1" fill="none"></path></g></g><mask id="mask--oc2QFdTBtxHA0fUu6Fw_"><rect x="0" y="0" fill="#fff" width="601.9867632515729" height="707.95703125"></rect><rect x="465.34418512657294" y="489.427734375" fill="#000" width="71" height="46" opacity="1"></rect></mask><g transform="translate(465.34418512657294 489.427734375) rotate(0 35.30722727464047 23.380344347478854)"><text x="35.5" y="0" font-family="Virgil, Segoe UI Emoji" font-size="20px" fill="#000000" text-anchor="middle" style="white-space: pre;" direction="ltr" dominant-baseline="text-before-edge">Json:</text><text x="35.5" y="23" font-family="Virgil, Segoe UI Emoji" font-size="20px" fill="#000000" text-anchor="middle" style="white-space: pre;" direction="ltr" dominant-baseline="text-before-edge">pod uid</text></g><g mask="url(#mask-zeU9Svk2ElOcpW42Byl-G)" stroke-linecap="round"><g transform="translate(603.2426226265729 415.34759148626597) rotate(0 0.4939820815762914 95.04218930494972)"><path d="M0.14 0.09 C0.41 31.74, 1.98 158.07, 2.24 190.01 M-1.25 -0.91 C-1.2 30.85, 0.95 159.22, 1.27 190.99" stroke="#000000" stroke-width="1" fill="none"></path></g><g transform="translate(603.2426226265729 415.34759148626597) rotate(0 0.4939820815762914 95.04218930494972)"><path d="M10.86 28.09 C5.23 17.36, 4.38 8.9, -0.15 1.59 M11.05 27.34 C8.04 19.4, 2.74 9.72, -0.18 -0.1" stroke="#000000" stroke-width="1" fill="none"></path></g><g transform="translate(603.2426226265729 415.34759148626597) rotate(0 0.4939820815762914 95.04218930494972)"><path d="M-9.65 28.32 C-8.09 17.49, -1.73 8.94, -0.15 1.59 M-9.47 27.57 C-5.67 19.4, -4.17 9.65, -0.18 -0.1" stroke="#000000" stroke-width="1" fill="none"></path></g></g><mask id="mask-zeU9Svk2ElOcpW42Byl-G"><rect x="0" y="0" fill="#fff" width="705.5277788765729" height="706.406185236266"></rect><rect x="566.3852007515729" y="476.37688836126597" fill="#000" width="76" height="69" opacity="1"></rect></mask><g transform="translate(566.3852007515729 476.37688836126597) rotate(0 37.35140395657629 34.012892429949716)"><text x="38" y="0" font-family="Virgil, Segoe UI Emoji" font-size="20px" fill="#000000" text-anchor="middle" style="white-space: pre;" direction="ltr" dominant-baseline="text-before-edge">Json:</text><text x="38" y="23" font-family="Virgil, Segoe UI Emoji" font-size="20px" fill="#000000" text-anchor="middle" style="white-space: pre;" direction="ltr" dominant-baseline="text-before-edge">pod uid,</text><text x="38" y="46" font-family="Virgil, Segoe UI Emoji" font-size="20px" fill="#000000" text-anchor="middle" style="white-space: pre;" direction="ltr" dominant-baseline="text-before-edge">status</text></g><g mask="url(#mask-OtKrMCxugmTzGw4M-ifnB)" stroke-linecap="round"><g transform="translate(725.4252398140729 419.28509148626597) rotate(0 0.09097527848092568 95.33730261251327)"><path d="M-0.05 -1.05 C0.22 30.89, 1.28 159.74, 1.71 191.73 M-1.53 1.01 C-1.49 32.59, -0.11 158.1, 0.46 189.96" stroke="#000000" stroke-width="1" fill="none"></path></g><g transform="translate(725.4252398140729 419.28509148626597) rotate(0 0.09097527848092568 95.33730261251327)"><path d="M-11.94 160.95 C-5.74 171.09, -3.82 180.88, 1.1 190.75 M-9.23 162.38 C-6.94 172.64, -2.41 182.88, 0.89 189.2" stroke="#000000" stroke-width="1" fill="none"></path></g><g transform="translate(725.4252398140729 419.28509148626597) rotate(0 0.09097527848092568 95.33730261251327)"><path d="M8.58 160.67 C8.39 170.88, 3.92 180.77, 1.1 190.75 M11.29 162.1 C5.87 172.3, 2.69 182.64, 0.89 189.2" stroke="#000000" stroke-width="1" fill="none"></path></g></g><mask id="mask-OtKrMCxugmTzGw4M-ifnB"><rect x="0" y="0" fill="#fff" width="827.7103960640729" height="710.343685236266"></rect><rect x="691.0678179390729" y="491.81438836126597" fill="#000" width="71" height="46" opacity="1"></rect></mask><g transform="translate(691.0678179390729 491.81438836126597) rotate(0 34.448397153480926 22.80800573751327)"><text x="35.5" y="0" font-family="Virgil, Segoe UI Emoji" font-size="20px" fill="#000000" text-anchor="middle" style="white-space: pre;" direction="ltr" dominant-baseline="text-before-edge">Json:</text><text x="35.5" y="23" font-family="Virgil, Segoe UI Emoji" font-size="20px" fill="#000000" text-anchor="middle" style="white-space: pre;" direction="ltr" dominant-baseline="text-before-edge">pod uid</text></g><g mask="url(#mask-CVZQ4Zr42cpGwcGFv1Vc1)" stroke-linecap="round"><g transform="translate(829.4193804390729 417.7342454725318) rotate(0 0.9875336296856858 96.15213671577163)"><path d="M-0.57 0.67 C-0.14 32.66, 1.92 159.09, 2.55 190.88 M1.33 -0.03 C1.63 32.24, 1.48 160.78, 1.74 192.33" stroke="#000000" stroke-width="1" fill="none"></path></g><g transform="translate(829.4193804390729 417.7342454725318) rotate(0 0.9875336296856858 96.15213671577163)"><path d="M11.25 29.13 C6.92 21.84, 4.67 12.84, 0.94 1.34 M9.29 28.8 C7.22 22.45, 5.63 15.78, -0.84 0.39" stroke="#000000" stroke-width="1" fill="none"></path></g><g transform="translate(829.4193804390729 417.7342454725318) rotate(0 0.9875336296856858 96.15213671577163)"><path d="M-9.27 29.46 C-7.52 22.17, -3.69 13.07, 0.94 1.34 M-11.23 29.13 C-8.83 22.61, -5.95 15.87, -0.84 0.39" stroke="#000000" stroke-width="1" fill="none"></path></g></g><mask id="mask-CVZQ4Zr42cpGwcGFv1Vc1"><rect x="0" y="0" fill="#fff" width="931.7045366890729" height="708.7928392225318"></rect><rect x="795.0619585640729" y="490.2635423475318" fill="#000" width="71" height="46" opacity="1"></rect></mask><g transform="translate(795.0619585640729 490.2635423475318) rotate(0 35.344955504685686 23.622839840771633)"><text x="35.5" y="0" font-family="Virgil, Segoe UI Emoji" font-size="20px" fill="#000000" text-anchor="middle" style="white-space: pre;" direction="ltr" dominant-baseline="text-before-edge">Json:</text><text x="35.5" y="23" font-family="Virgil, Segoe UI Emoji" font-size="20px" fill="#000000" text-anchor="middle" style="white-space: pre;" direction="ltr" dominant-baseline="text-before-edge">status</text></g><g stroke-linecap="round" transform="translate(198.78754450157282 827.5419921875) rotate(0 105 42.5)"><path d="M21.25 0 M21.25 0 C63.2 1.14, 106.37 0.43, 188.75 0 M21.25 0 C85.13 1.85, 146.26 1.49, 188.75 0 M188.75 0 C202.28 -0.38, 210.85 5.57, 210 21.25 M188.75 0 C202.3 -0.64, 209.35 6.78, 210 21.25 M210 21.25 C210.56 30.39, 209.49 43.89, 210 63.75 M210 21.25 C210.24 37.06, 208.74 50.87, 210 63.75 M210 63.75 C210.8 76.83, 202.56 85.82, 188.75 85 M210 63.75 C208.37 76.3, 200.7 86.52, 188.75 85 M188.75 85 C126.12 85.49, 62.86 84.03, 21.25 85 M188.75 85 C131.9 86.09, 77.09 84.86, 21.25 85 M21.25 85 C9.06 83.26, -0.54 77.5, 0 63.75 M21.25 85 C5.46 83.47, 1.9 78.85, 0 63.75 M0 63.75 C0.35 53.47, -0.87 42.72, 0 21.25 M0 63.75 C0.65 53.37, 0.22 43.74, 0 21.25 M0 21.25 C-1.24 9.02, 8.95 0.93, 21.25 0 M0 21.25 C0.7 6.86, 7.95 0.54, 21.25 0" stroke="#c92a2a" stroke-width="1" fill="none"></path></g><g transform="translate(229.28754450157282 845.0419921875) rotate(0 74.5 23)"><text x="74.5" y="0" font-family="Virgil, Segoe UI Emoji" font-size="20px" fill="#c92a2a" text-anchor="middle" style="white-space: pre;" direction="ltr" dominant-baseline="text-before-edge">Mock</text><text x="74.5" y="23" font-family="Virgil, Segoe UI Emoji" font-size="20px" fill="#c92a2a" text-anchor="middle" style="white-space: pre;" direction="ltr" dominant-baseline="text-before-edge">InterLink plugin</text></g><g stroke-linecap="round" transform="translate(466.6859820015728 826.4150390625) rotate(0 105 41.5)"><path d="M20.75 0 M20.75 0 C75.64 -0.47, 130.77 -0.59, 189.25 0 M20.75 0 C56.6 -0.69, 93.83 -0.99, 189.25 0 M189.25 0 C203.94 -1.51, 209.46 6.36, 210 20.75 M189.25 0 C202.43 -0.3, 209.05 5.36, 210 20.75 M210 20.75 C209.95 37.75, 211.2 52.16, 210 62.25 M210 20.75 C209.21 36.47, 210.61 52.11, 210 62.25 M210 62.25 C209.64 76.91, 201.66 81.59, 189.25 83 M210 62.25 C207.78 77.6, 204.94 84.44, 189.25 83 M189.25 83 C153.95 84.93, 116.05 84.46, 20.75 83 M189.25 83 C131.99 82.75, 74.61 82.74, 20.75 83 M20.75 83 C6.38 82.59, -1.41 74.75, 0 62.25 M20.75 83 C8.82 83.93, -1.27 75.62, 0 62.25 M0 62.25 C-1.01 51.5, -1.47 39.38, 0 20.75 M0 62.25 C-0.28 50.74, -0.73 41.25, 0 20.75 M0 20.75 C1.87 7.85, 7.52 -0.19, 20.75 0 M0 20.75 C0.87 7.45, 7.94 -2.06, 20.75 0" stroke="#c92a2a" stroke-width="1" fill="none"></path></g><g transform="translate(497.18598200157294 842.9150390625) rotate(0 74.5 23)"><text x="74.5" y="0" font-family="Virgil, Segoe UI Emoji" font-size="20px" fill="#c92a2a" text-anchor="middle" style="white-space: pre;" direction="ltr" dominant-baseline="text-before-edge">SLURM </text><text x="74.5" y="23" font-family="Virgil, Segoe UI Emoji" font-size="20px" fill="#c92a2a" text-anchor="middle" style="white-space: pre;" direction="ltr" dominant-baseline="text-before-edge">InterLink plugin</text></g><g stroke-linecap="round" transform="translate(735.3031695015729 825.2861328125) rotate(0 105 40.5)"><path d="M20.25 0 M20.25 0 C85.35 0, 145.79 1.23, 189.75 0 M20.25 0 C78.82 -0.38, 138.45 -0.94, 189.75 0 M189.75 0 C202.71 -0.56, 209.43 6.49, 210 20.25 M189.75 0 C202.3 -1.55, 212.15 7.73, 210 20.25 M210 20.25 C210.98 27.4, 211.64 38.07, 210 60.75 M210 20.25 C209.99 35.45, 209.42 52.14, 210 60.75 M210 60.75 C208.58 72.84, 201.32 82.32, 189.75 81 M210 60.75 C211.86 75.69, 201.39 82.31, 189.75 81 M189.75 81 C123.95 81.23, 57.62 79.84, 20.25 81 M189.75 81 C133.73 78.67, 75.47 79.33, 20.25 81 M20.25 81 C5.34 79.67, 1.66 75.06, 0 60.75 M20.25 81 C5.48 80.54, -1.07 74.55, 0 60.75 M0 60.75 C-1.22 46.53, -0.51 36.48, 0 20.25 M0 60.75 C-0.55 52.15, 1 42.09, 0 20.25 M0 20.25 C0.61 6.56, 7.51 0.47, 20.25 0 M0 20.25 C1.02 4.69, 5.6 1.26, 20.25 0" stroke="#c92a2a" stroke-width="1" fill="none"></path></g><g transform="translate(776.8031695015729 853.2861328125) rotate(0 63.5 11.5)"><text x="63.5" y="0" font-family="Virgil, Segoe UI Emoji" font-size="20px" fill="#c92a2a" text-anchor="middle" style="white-space: pre;" direction="ltr" dominant-baseline="text-before-edge">Local, htc ...</text></g><g stroke-linecap="round" transform="translate(178.90668512657282 795.72509765625) rotate(0 40 15)"><path d="M2 1.74 C2 1.74, 2 1.74, 2 1.74 M2 1.74 C2 1.74, 2 1.74, 2 1.74 M1.08 8.89 C2.31 7.69, 5.48 3.39, 8.3 0.59 M1.08 8.89 C2.79 6.92, 5.5 4.54, 8.3 0.59 M1.47 14.53 C2.89 11.44, 6.98 7.76, 13.28 0.95 M1.47 14.53 C5.04 11.9, 6.3 8.73, 13.28 0.95 M1.87 20.17 C9.1 12.35, 15.95 3.27, 18.93 0.55 M1.87 20.17 C8.48 12.85, 12.96 6.92, 18.93 0.55 M1.61 26.57 C7.7 19.4, 11.61 13.69, 23.91 0.91 M1.61 26.57 C8.46 17.94, 14.65 10.25, 23.91 0.91 M3.97 29.95 C11.45 19.15, 22.79 12.66, 29.56 0.52 M3.97 29.95 C13.12 20.01, 22.06 8.68, 29.56 0.52 M9.61 29.56 C17.03 24.44, 20.59 14.8, 34.54 0.88 M9.61 29.56 C15.93 20.26, 24.03 13.8, 34.54 0.88 M14.6 29.92 C20.93 24.53, 24.64 17.87, 39.53 1.24 M14.6 29.92 C19.75 24.11, 26.22 15.81, 39.53 1.24 M20.24 29.52 C26.43 20.13, 38.01 9.38, 45.17 0.84 M20.24 29.52 C28.03 21.32, 35.11 12.19, 45.17 0.84 M25.23 29.88 C29.39 21.39, 36.69 17.06, 50.16 1.2 M25.23 29.88 C29.88 24.69, 34.57 18.15, 50.16 1.2 M30.87 29.49 C40.15 19.87, 46.12 10.65, 55.8 0.81 M30.87 29.49 C37.52 21.47, 45.58 14.15, 55.8 0.81 M35.86 29.85 C44.28 21.37, 54.08 11.55, 60.79 1.17 M35.86 29.85 C40.65 24.75, 46.19 18.26, 60.79 1.17 M40.85 30.21 C46.48 22.73, 49.56 19.06, 66.43 0.77 M40.85 30.21 C46.63 23.46, 51.32 16.11, 66.43 0.77 M46.49 29.81 C54.03 22.07, 60.56 14, 71.42 1.13 M46.49 29.81 C54.25 20.85, 61.35 11.69, 71.42 1.13 M51.48 30.17 C57.96 23.04, 65.57 12.46, 76.41 1.49 M51.48 30.17 C59.37 20.68, 67.77 10.64, 76.41 1.49 M57.12 29.78 C64.97 22.94, 67.4 16.16, 79.43 4.12 M57.12 29.78 C63.1 23.09, 67.76 17.43, 79.43 4.12 M62.11 30.14 C66.31 26.4, 73.21 20.24, 82.44 6.74 M62.11 30.14 C70.3 22.03, 77.56 12.75, 82.44 6.74 M67.75 29.74 C72.12 25.06, 75.13 23.03, 82.18 13.14 M67.75 29.74 C72.08 24.44, 78.46 18.74, 82.18 13.14 M72.74 30.1 C75.25 28.88, 77.78 25.66, 82.58 18.78 M72.74 30.1 C76.9 26.21, 79.47 21.63, 82.58 18.78" stroke="#fa5252" stroke-width="0.5" fill="none"></path><path d="M7.5 0 M7.5 0 C22.81 2.01, 36.23 -0.85, 72.5 0 M72.5 0 C79.28 -1.05, 78.4 0.79, 80 7.5 M80 7.5 C79.73 11.96, 79.03 17.66, 80 22.5 M80 22.5 C80.17 27.76, 77.91 31.58, 72.5 30 M72.5 30 C56.99 28.96, 38 29.27, 7.5 30 M7.5 30 C1.92 31.93, 1.62 28.31, 0 22.5 M0 22.5 C1.58 17.77, -0.47 10.45, 0 7.5 M0 7.5 C0.53 4.37, 4.2 0.69, 7.5 0" stroke="#000000" stroke-width="1.5" fill="none" stroke-dasharray="1.5 7"></path></g><g transform="translate(201.40668512657282 800.72509765625) rotate(0 17.5 10)"><text x="17.5" y="0" font-family="Virgil, Segoe UI Emoji" font-size="16px" fill="#000000" text-anchor="middle" style="white-space: pre;" direction="ltr" dominant-baseline="text-before-edge">RUN</text></g><g stroke-linecap="round" transform="translate(261.4984820015728 793.63525390625) rotate(0 40 15)"><path d="M2 1.74 C2 1.74, 2 1.74, 2 1.74 M2 1.74 C2 1.74, 2 1.74, 2 1.74 M1.08 8.89 C3.47 5.66, 4.74 4.89, 8.3 0.59 M1.08 8.89 C3.94 6.4, 5.65 2.87, 8.3 0.59 M1.47 14.53 C6.3 8.66, 8.31 3.58, 13.28 0.95 M1.47 14.53 C4.96 10, 10.84 5.25, 13.28 0.95 M1.87 20.17 C8.1 12.44, 13.41 8.78, 18.93 0.55 M1.87 20.17 C5.05 15.92, 8.26 11.26, 18.93 0.55 M1.61 26.57 C9.64 15.94, 18.84 7.17, 23.91 0.91 M1.61 26.57 C6.35 19.9, 13.15 13.15, 23.91 0.91 M3.97 29.95 C13.31 23.64, 19.55 14.04, 29.56 0.52 M3.97 29.95 C11.73 20.45, 18.21 13.35, 29.56 0.52 M9.61 29.56 C14.47 21.45, 21.89 16.27, 34.54 0.88 M9.61 29.56 C19.35 20.04, 27.56 8.54, 34.54 0.88 M14.6 29.92 C21.09 21.77, 29.89 8.49, 39.53 1.24 M14.6 29.92 C23.39 18.91, 32.11 9.72, 39.53 1.24 M20.24 29.52 C29.41 19.48, 34.54 12.47, 45.17 0.84 M20.24 29.52 C26.95 21.21, 32.42 13.6, 45.17 0.84 M25.23 29.88 C32.78 21.78, 38.45 12.1, 50.16 1.2 M25.23 29.88 C33.26 19.63, 43.1 9.8, 50.16 1.2 M30.87 29.49 C37.98 19.97, 46.99 8.93, 55.8 0.81 M30.87 29.49 C41.34 19.14, 50.78 6.63, 55.8 0.81 M35.86 29.85 C43.16 23.67, 45.24 16.96, 60.79 1.17 M35.86 29.85 C43.5 21.29, 50.19 12.7, 60.79 1.17 M40.85 30.21 C49.45 19.69, 59.74 8.62, 66.43 0.77 M40.85 30.21 C48.41 19.76, 57.88 11.01, 66.43 0.77 M46.49 29.81 C50.3 25.59, 56.64 18.07, 71.42 1.13 M46.49 29.81 C51.56 22.78, 57.26 18.11, 71.42 1.13 M51.48 30.17 C55.9 23.54, 62.5 17.49, 76.41 1.49 M51.48 30.17 C61.26 18.34, 70.16 8.93, 76.41 1.49 M57.12 29.78 C63.05 21.12, 71.74 11.97, 79.43 4.12 M57.12 29.78 C63.26 22.61, 70.13 13.07, 79.43 4.12 M62.11 30.14 C68.53 25.2, 72.84 18.61, 82.44 6.74 M62.11 30.14 C69.52 21.71, 75.25 13.32, 82.44 6.74 M67.75 29.74 C71.05 27.45, 75.51 23.62, 82.18 13.14 M67.75 29.74 C71.85 26.45, 73.37 22.51, 82.18 13.14 M72.74 30.1 C76.42 27.11, 78.93 25.37, 82.58 18.78 M72.74 30.1 C75.49 26.2, 78.66 22.26, 82.58 18.78" stroke="#fa5252" stroke-width="0.5" fill="none"></path><path d="M7.5 0 M7.5 0 C22.84 -1.76, 40.71 -1.58, 72.5 0 M72.5 0 C75.9 -1.71, 81.42 1.45, 80 7.5 M80 7.5 C79.09 10.23, 80.11 15.08, 80 22.5 M80 22.5 C80.41 29.08, 76.79 28.1, 72.5 30 M72.5 30 C58.29 29.65, 43.78 31.77, 7.5 30 M7.5 30 C4.12 30.81, 1.61 25.84, 0 22.5 M0 22.5 C-0.74 17.51, 0.25 15.19, 0 7.5 M0 7.5 C1.7 3.19, 1.08 1.03, 7.5 0" stroke="#000000" stroke-width="1.5" fill="none" stroke-dasharray="1.5 7"></path></g><g transform="translate(266.9984820015728 798.63525390625) rotate(0 34.5 10)"><text x="34.5" y="0" font-family="Virgil, Segoe UI Emoji" font-size="16px" fill="#000000" text-anchor="middle" style="white-space: pre;" direction="ltr" dominant-baseline="text-before-edge">STATUS</text></g><g stroke-linecap="round" transform="translate(348.6312945015728 794.41259765625) rotate(0 40 15)"><path d="M2 1.74 C2 1.74, 2 1.74, 2 1.74 M2 1.74 C2 1.74, 2 1.74, 2 1.74 M1.08 8.89 C3.76 6.05, 7.29 1.73, 8.3 0.59 M1.08 8.89 C3.26 5.51, 6.8 2.14, 8.3 0.59 M1.47 14.53 C3.48 9.04, 9.27 8.4, 13.28 0.95 M1.47 14.53 C6.69 10.28, 10.32 4.93, 13.28 0.95 M1.87 20.17 C7.55 15.62, 10.13 10.69, 18.93 0.55 M1.87 20.17 C4.85 15.36, 10.02 12.25, 18.93 0.55 M1.61 26.57 C7.38 20.52, 11.62 13.89, 23.91 0.91 M1.61 26.57 C7.22 20.13, 11.9 14.36, 23.91 0.91 M3.97 29.95 C10.7 23.32, 15.66 16.47, 29.56 0.52 M3.97 29.95 C11.61 21.21, 19.94 11.82, 29.56 0.52 M9.61 29.56 C19.42 19.85, 30.96 5.69, 34.54 0.88 M9.61 29.56 C14.1 23.27, 20.29 17.55, 34.54 0.88 M14.6 29.92 C22.8 16.98, 34.51 6.52, 39.53 1.24 M14.6 29.92 C24.3 18.89, 33.48 7.33, 39.53 1.24 M20.24 29.52 C26.91 20.85, 33.47 14.3, 45.17 0.84 M20.24 29.52 C26.94 20.16, 35.16 11.56, 45.17 0.84 M25.23 29.88 C28.33 23.21, 36.33 17.26, 50.16 1.2 M25.23 29.88 C35.01 19.4, 44.33 9.17, 50.16 1.2 M30.87 29.49 C37.95 19.67, 47.51 11.57, 55.8 0.81 M30.87 29.49 C39.02 19.63, 46 10.86, 55.8 0.81 M35.86 29.85 C42.23 20.21, 52.58 9.59, 60.79 1.17 M35.86 29.85 C44.64 19.11, 56.32 7.67, 60.79 1.17 M40.85 30.21 C45.72 24.83, 53.93 16.51, 66.43 0.77 M40.85 30.21 C48.91 21.88, 55.56 12.59, 66.43 0.77 M46.49 29.81 C55.31 19.69, 62.15 10.26, 71.42 1.13 M46.49 29.81 C52.9 23.4, 58.23 15.11, 71.42 1.13 M51.48 30.17 C61.23 19.18, 71.63 8.73, 76.41 1.49 M51.48 30.17 C58.28 22.66, 66.27 14.88, 76.41 1.49 M57.12 29.78 C63.41 22.07, 71.48 14.38, 79.43 4.12 M57.12 29.78 C62.97 21.41, 69.41 14.57, 79.43 4.12 M62.11 30.14 C70.72 20.83, 77.86 14.19, 82.44 6.74 M62.11 30.14 C68.42 21.36, 75.21 14.51, 82.44 6.74 M67.75 29.74 C72.66 26.8, 74.09 19.46, 82.18 13.14 M67.75 29.74 C71.54 24.35, 77.07 18.77, 82.18 13.14 M72.74 30.1 C77.31 27.25, 80.41 23.03, 82.58 18.78 M72.74 30.1 C75.6 26.01, 79.11 22.64, 82.58 18.78" stroke="#fa5252" stroke-width="0.5" fill="none"></path><path d="M7.5 0 M7.5 0 C34.09 -0.65, 55.51 -1.31, 72.5 0 M72.5 0 C78.92 -1.05, 78.92 2.25, 80 7.5 M80 7.5 C80.04 11.08, 80.22 15.47, 80 22.5 M80 22.5 C79.29 25.6, 75.83 31.67, 72.5 30 M72.5 30 C54.03 31.87, 38.34 30.75, 7.5 30 M7.5 30 C4.11 28.34, -0.19 29.44, 0 22.5 M0 22.5 C0.46 18.43, 1.34 12.08, 0 7.5 M0 7.5 C-1.42 3.53, 4.17 1.79, 7.5 0" stroke="#000000" stroke-width="1.5" fill="none" stroke-dasharray="1.5 7"></path></g><g transform="translate(368.6312945015728 799.41259765625) rotate(0 20 10)"><text x="20" y="0" font-family="Virgil, Segoe UI Emoji" font-size="16px" fill="#000000" text-anchor="middle" style="white-space: pre;" direction="ltr" dominant-baseline="text-before-edge">KILL</text></g><g stroke-linecap="round"><g transform="translate(286.6944511801517 761.26806640625) rotate(0 -28.81973891055938 11.415335193397482)"><path d="M-0.38 -0.23 C-9.97 3.61, -48.74 19.17, -58.58 23.16 M1.62 -1.39 C-8 2.56, -48.93 19.85, -59.26 24.23" stroke="#000000" stroke-width="1" fill="none"></path></g><g transform="translate(286.6944511801517 761.26806640625) rotate(0 -28.81973891055938 11.415335193397482)"><path d="M-37.67 4.65 C-43.51 7.59, -47.29 11.96, -59.52 23.4 M-38.22 3.68 C-41.87 9.15, -47.94 14.23, -58.75 25.11" stroke="#000000" stroke-width="1" fill="none"></path></g><g transform="translate(286.6944511801517 761.26806640625) rotate(0 -28.81973891055938 11.415335193397482)"><path d="M-29.68 23.55 C-37.26 22.39, -42.77 22.69, -59.52 23.4 M-30.22 22.59 C-35.91 23.69, -43.84 24.38, -58.75 25.11" stroke="#000000" stroke-width="1" fill="none"></path></g></g><mask></mask><g stroke-linecap="round"><g transform="translate(297.9575220750161 764.56494140625) rotate(0 0.9079776908401413 14.24602802307345)"><path d="M-0.23 0.51 C-0.02 5.14, 1.02 22.91, 1.39 27.39 M-1.81 -0.27 C-1.24 4.57, 3.15 23.96, 3.62 28.76" stroke="#000000" stroke-width="1" fill="none"></path></g><g transform="translate(297.9575220750161 764.56494140625) rotate(0 0.9079776908401413 14.24602802307345)"><path d="M-2.67 15.63 C-1.53 20.06, 0.59 24.02, 3.05 27.82 M-3.34 16.91 C-0.14 21.06, 2.8 26.6, 4.24 28.06" stroke="#000000" stroke-width="1" fill="none"></path></g><g transform="translate(297.9575220750161 764.56494140625) rotate(0 0.9079776908401413 14.24602802307345)"><path d="M6.71 14.03 C4.92 18.94, 4.13 23.4, 3.05 27.82 M6.04 15.31 C5.55 20, 4.8 26.18, 4.24 28.06" stroke="#000000" stroke-width="1" fill="none"></path></g></g><mask></mask><g stroke-linecap="round"><g transform="translate(399.13746174665914 765.36572265625) rotate(0 9.594222683977591 8.525104306251762)"><path d="M0.51 -0.91 C3.89 1.9, 16.64 13.65, 19.87 16.6 M-0.68 1.23 C2.54 4.23, 15.49 15.16, 18.75 17.96" stroke="#000000" stroke-width="1" fill="none"></path></g><g transform="translate(399.13746174665914 765.36572265625) rotate(0 9.594222683977591 8.525104306251762)"><path d="M5.41 13.01 C9.34 14.17, 12.85 15.23, 17.86 19.19 M6.62 13.7 C10.18 15.51, 15.15 17.11, 18.09 17.81" stroke="#000000" stroke-width="1" fill="none"></path></g><g transform="translate(399.13746174665914 765.36572265625) rotate(0 9.594222683977591 8.525104306251762)"><path d="M11.25 6.15 C13.6 9.18, 15.54 12.08, 17.86 19.19 M12.46 6.84 C13.95 10.99, 16.93 14.94, 18.09 17.81" stroke="#000000" stroke-width="1" fill="none"></path></g></g><mask></mask><g stroke-linecap="round" transform="translate(438.8549273140728 794.4261113144597) rotate(0 40 15)"><path d="M2 1.74 C2 1.74, 2 1.74, 2 1.74 M2 1.74 C2 1.74, 2 1.74, 2 1.74 M1.08 8.89 C4.22 6.89, 5.1 2.74, 8.3 0.59 M1.08 8.89 C3.8 5.69, 5.64 2.73, 8.3 0.59 M1.47 14.53 C4.23 10.51, 11.67 6, 13.28 0.95 M1.47 14.53 C5.58 9.54, 9.29 6.37, 13.28 0.95 M1.87 20.17 C4.78 15.71, 7.55 10.6, 18.93 0.55 M1.87 20.17 C8.12 12.29, 14.98 5.31, 18.93 0.55 M1.61 26.57 C5.44 19.55, 13.41 12.51, 23.91 0.91 M1.61 26.57 C9.03 20.38, 14.84 12.48, 23.91 0.91 M3.97 29.95 C12.17 19.56, 17.71 13.9, 29.56 0.52 M3.97 29.95 C9.65 21.91, 16.71 15.46, 29.56 0.52 M9.61 29.56 C19.72 20.88, 26.94 8.45, 34.54 0.88 M9.61 29.56 C17.03 20.56, 25.63 9.08, 34.54 0.88 M14.6 29.92 C23.41 17.94, 32.3 9.41, 39.53 1.24 M14.6 29.92 C22.88 20.82, 29 13.22, 39.53 1.24 M20.24 29.52 C27.27 20.4, 31.7 12.68, 45.17 0.84 M20.24 29.52 C27.88 21.3, 34.45 12.16, 45.17 0.84 M25.23 29.88 C32.42 19.58, 43.38 9.95, 50.16 1.2 M25.23 29.88 C32.88 20.33, 41.55 10.01, 50.16 1.2 M30.87 29.49 C41.92 20.05, 51.07 6.24, 55.8 0.81 M30.87 29.49 C37.32 23.12, 41.17 16.54, 55.8 0.81 M35.86 29.85 C43.44 21.69, 49.23 13.25, 60.79 1.17 M35.86 29.85 C44.97 19.09, 54.97 7.97, 60.79 1.17 M40.85 30.21 C47.54 19.11, 57.98 11.4, 66.43 0.77 M40.85 30.21 C45.41 24.99, 51.23 18.18, 66.43 0.77 M46.49 29.81 C51.31 21.83, 57.32 18.7, 71.42 1.13 M46.49 29.81 C51.39 23.39, 57.31 17.36, 71.42 1.13 M51.48 30.17 C61.54 17.35, 69.87 9.42, 76.41 1.49 M51.48 30.17 C59.16 20.22, 68.37 10.05, 76.41 1.49 M57.12 29.78 C62.57 23.37, 69.41 12.23, 79.43 4.12 M57.12 29.78 C63.19 23.98, 68.16 17.45, 79.43 4.12 M62.11 30.14 C70.23 21.31, 74.77 12.47, 82.44 6.74 M62.11 30.14 C66.81 25.46, 72.14 19.99, 82.44 6.74 M67.75 29.74 C72.6 26.95, 72.38 22.83, 82.18 13.14 M67.75 29.74 C72.25 25.3, 76.01 21.75, 82.18 13.14 M72.74 30.1 C75.05 26.13, 78.09 22.04, 82.58 18.78 M72.74 30.1 C74.93 26.83, 78.12 24.16, 82.58 18.78" stroke="#fa5252" stroke-width="0.5" fill="none"></path><path d="M7.5 0 M7.5 0 C20.75 -1.54, 35.86 -1.94, 72.5 0 M72.5 0 C76.31 -1.29, 80.17 2.76, 80 7.5 M80 7.5 C78.7 11.06, 81.37 16.75, 80 22.5 M80 22.5 C79.86 27.31, 76.92 31.93, 72.5 30 M72.5 30 C46.07 30.33, 24.91 31.82, 7.5 30 M7.5 30 C1.71 29.15, 0.53 29.37, 0 22.5 M0 22.5 C0.72 17.98, 1.29 10.03, 0 7.5 M0 7.5 C-1.21 4.15, 2.6 0.52, 7.5 0" stroke="#000000" stroke-width="1.5" fill="none" stroke-dasharray="1.5 7"></path></g><g transform="translate(461.3549273140728 799.4261113144597) rotate(0 17.5 10)"><text x="17.5" y="0" font-family="Virgil, Segoe UI Emoji" font-size="16px" fill="#000000" text-anchor="middle" style="white-space: pre;" direction="ltr" dominant-baseline="text-before-edge">RUN</text></g><g stroke-linecap="round" transform="translate(521.4467241890729 792.3362675644597) rotate(0 40 15)"><path d="M2 1.74 C2 1.74, 2 1.74, 2 1.74 M2 1.74 C2 1.74, 2 1.74, 2 1.74 M1.08 8.89 C2.71 5.38, 7.02 1.85, 8.3 0.59 M1.08 8.89 C2.69 6.07, 5.48 4.7, 8.3 0.59 M1.47 14.53 C7.53 11.02, 10.49 5.24, 13.28 0.95 M1.47 14.53 C5.23 11.11, 7.61 7.48, 13.28 0.95 M1.87 20.17 C4.14 14.69, 10.85 12.65, 18.93 0.55 M1.87 20.17 C6.21 15.51, 9.78 10.54, 18.93 0.55 M1.61 26.57 C7.48 19.49, 11.73 13.84, 23.91 0.91 M1.61 26.57 C7.13 20.56, 11.87 14.54, 23.91 0.91 M3.97 29.95 C11.11 21.76, 19.49 12.49, 29.56 0.52 M3.97 29.95 C14.18 19.15, 25.15 6.08, 29.56 0.52 M9.61 29.56 C13.48 23.19, 20.66 17.73, 34.54 0.88 M9.61 29.56 C18.55 17.58, 29.1 6.94, 34.54 0.88 M14.6 29.92 C24.49 18.58, 33.34 6.41, 39.53 1.24 M14.6 29.92 C21.37 21.6, 28.21 14.22, 39.53 1.24 M20.24 29.52 C26.22 19.24, 35.16 10.67, 45.17 0.84 M20.24 29.52 C24.33 23.27, 30.85 17.39, 45.17 0.84 M25.23 29.88 C35.29 19.56, 44.68 9.74, 50.16 1.2 M25.23 29.88 C32.51 20.75, 40.96 12.48, 50.16 1.2 M30.87 29.49 C39.3 19.23, 45.25 10.92, 55.8 0.81 M30.87 29.49 C38.15 19.79, 47.55 9.63, 55.8 0.81 M35.86 29.85 C43.67 19.65, 57.31 7.97, 60.79 1.17 M35.86 29.85 C41.3 23.76, 48.3 16.27, 60.79 1.17 M40.85 30.21 C49.01 22.27, 54.58 12.56, 66.43 0.77 M40.85 30.21 C49.87 19.84, 57.8 9.93, 66.43 0.77 M46.49 29.81 C52.95 23.99, 57.33 14.63, 71.42 1.13 M46.49 29.81 C56.04 19.04, 65.85 8.52, 71.42 1.13 M51.48 30.17 C58 23.16, 66.8 15.84, 76.41 1.49 M51.48 30.17 C59.06 21.33, 67.4 12.54, 76.41 1.49 M57.12 29.78 C62.25 20.57, 68.73 14.26, 79.43 4.12 M57.12 29.78 C65.84 19.88, 73.93 11.36, 79.43 4.12 M62.11 30.14 C67.95 20.5, 74.57 14.8, 82.44 6.74 M62.11 30.14 C68.12 24.47, 72.4 16.71, 82.44 6.74 M67.75 29.74 C70.54 24.67, 76.71 19.15, 82.18 13.14 M67.75 29.74 C73.63 24.51, 78.59 18.36, 82.18 13.14 M72.74 30.1 C75.03 25.79, 78.67 22.93, 82.58 18.78 M72.74 30.1 C77.18 25.45, 79.67 20.88, 82.58 18.78" stroke="#fa5252" stroke-width="0.5" fill="none"></path><path d="M7.5 0 M7.5 0 C31.36 -1.13, 54.54 -0.94, 72.5 0 M72.5 0 C77.67 0.26, 80.41 4.08, 80 7.5 M80 7.5 C81.11 11.09, 79.75 15.29, 80 22.5 M80 22.5 C79.42 29.43, 79.12 30.81, 72.5 30 M72.5 30 C49.72 31.23, 22.27 29.09, 7.5 30 M7.5 30 C3.03 31.87, 1.7 28.19, 0 22.5 M0 22.5 C1.26 18.15, -0.99 16.87, 0 7.5 M0 7.5 C0.1 3.02, 3.96 -1.15, 7.5 0" stroke="#000000" stroke-width="1.5" fill="none" stroke-dasharray="1.5 7"></path></g><g transform="translate(526.9467241890729 797.3362675644597) rotate(0 34.5 10)"><text x="34.5" y="0" font-family="Virgil, Segoe UI Emoji" font-size="16px" fill="#000000" text-anchor="middle" style="white-space: pre;" direction="ltr" dominant-baseline="text-before-edge">STATUS</text></g><g stroke-linecap="round" transform="translate(608.5795366890729 793.1136113144597) rotate(0 40 15)"><path d="M2 1.74 C2 1.74, 2 1.74, 2 1.74 M2 1.74 C2 1.74, 2 1.74, 2 1.74 M1.08 8.89 C4.4 5.08, 6.57 2.91, 8.3 0.59 M1.08 8.89 C3.15 7.5, 4.79 4.71, 8.3 0.59 M1.47 14.53 C5.9 10.21, 9.7 5.51, 13.28 0.95 M1.47 14.53 C3.32 12.28, 5.98 8.08, 13.28 0.95 M1.87 20.17 C8.43 15.61, 10.43 8.92, 18.93 0.55 M1.87 20.17 C5.69 15.08, 9.78 9.3, 18.93 0.55 M1.61 26.57 C7.11 18.87, 12.1 15.07, 23.91 0.91 M1.61 26.57 C10.16 16.79, 19.27 6.76, 23.91 0.91 M3.97 29.95 C8.61 24.96, 16.82 16.11, 29.56 0.52 M3.97 29.95 C11.69 21.12, 17.07 14.04, 29.56 0.52 M9.61 29.56 C20.1 18.93, 30.47 5.7, 34.54 0.88 M9.61 29.56 C19.86 17.96, 29.85 7.71, 34.54 0.88 M14.6 29.92 C19.33 22.31, 24.4 20.11, 39.53 1.24 M14.6 29.92 C19.37 24.57, 24.9 18.53, 39.53 1.24 M20.24 29.52 C25.9 21.69, 29.42 17.01, 45.17 0.84 M20.24 29.52 C28.81 20.18, 36.81 10.88, 45.17 0.84 M25.23 29.88 C33.21 22.51, 39.77 11.82, 50.16 1.2 M25.23 29.88 C33.77 20.82, 40.66 13.21, 50.16 1.2 M30.87 29.49 C39.03 18.49, 51.04 8.88, 55.8 0.81 M30.87 29.49 C39.13 19.93, 47.93 11.12, 55.8 0.81 M35.86 29.85 C46.6 20.55, 51.85 8.68, 60.79 1.17 M35.86 29.85 C45.23 19.71, 53.75 8.43, 60.79 1.17 M40.85 30.21 C44.86 23.15, 53.7 15.06, 66.43 0.77 M40.85 30.21 C49.83 19.1, 60.02 7.34, 66.43 0.77 M46.49 29.81 C49.79 22.83, 58.09 16.95, 71.42 1.13 M46.49 29.81 C54.17 21.74, 60.19 14.18, 71.42 1.13 M51.48 30.17 C57.65 26.18, 61.87 16.78, 76.41 1.49 M51.48 30.17 C59.72 21.25, 67.51 10.99, 76.41 1.49 M57.12 29.78 C64.32 19.7, 75.51 12.33, 79.43 4.12 M57.12 29.78 C64.76 22.1, 72.18 13.51, 79.43 4.12 M62.11 30.14 C66.22 24.82, 72.19 18.11, 82.44 6.74 M62.11 30.14 C68.96 20.52, 77.8 12.98, 82.44 6.74 M67.75 29.74 C72.26 24.64, 79.39 19.56, 82.18 13.14 M67.75 29.74 C72.38 25.4, 76.85 18.92, 82.18 13.14 M72.74 30.1 C74.81 27.42, 79.76 23.28, 82.58 18.78 M72.74 30.1 C74.38 26.81, 77.86 24.36, 82.58 18.78" stroke="#fa5252" stroke-width="0.5" fill="none"></path><path d="M7.5 0 M7.5 0 C22.31 -0.81, 39.68 0.74, 72.5 0 M72.5 0 C77.91 1.58, 79.29 0.6, 80 7.5 M80 7.5 C80.02 10.61, 79.69 15.44, 80 22.5 M80 22.5 C81.62 28.31, 79.11 28.34, 72.5 30 M72.5 30 C52.83 29.57, 35.28 32.29, 7.5 30 M7.5 30 C4.2 30.69, -1.42 28.53, 0 22.5 M0 22.5 C-1.04 17.98, -0.06 11.39, 0 7.5 M0 7.5 C1.46 1.35, 4.11 -0.14, 7.5 0" stroke="#000000" stroke-width="1.5" fill="none" stroke-dasharray="1.5 7"></path></g><g transform="translate(628.5795366890729 798.1136113144597) rotate(0 20 10)"><text x="20" y="0" font-family="Virgil, Segoe UI Emoji" font-size="16px" fill="#000000" text-anchor="middle" style="white-space: pre;" direction="ltr" dominant-baseline="text-before-edge">KILL</text></g><g stroke-linecap="round"><g transform="translate(548.1033297448747 760.1956425644598) rotate(0 -29.49232715721604 12.177307250807019)"><path d="M-0.81 1.12 C-10.66 4.99, -49.42 18.88, -59.27 22.73 M0.96 0.67 C-8.99 4.69, -49.66 20.11, -59.95 23.69" stroke="#000000" stroke-width="1" fill="none"></path></g><g transform="translate(548.1033297448747 760.1956425644598) rotate(0 -29.49232715721604 12.177307250807019)"><path d="M-35.13 5.21 C-45.52 9.53, -49.58 16.32, -61.2 25.38 M-37.23 4.76 C-45.42 10.73, -52.52 16.98, -60.65 22.72" stroke="#000000" stroke-width="1" fill="none"></path></g><g transform="translate(548.1033297448747 760.1956425644598) rotate(0 -29.49232715721604 12.177307250807019)"><path d="M-28.08 24.48 C-40.4 23.22, -46.49 24.49, -61.2 25.38 M-30.18 24.03 C-41.01 23.17, -50.59 22.66, -60.65 22.72" stroke="#000000" stroke-width="1" fill="none"></path></g></g><mask></mask><g stroke-linecap="round"><g transform="translate(558.144170489268 763.4925175644597) rotate(0 1.7049440866280179 14.275148741127907)"><path d="M1.12 0.51 C1.38 5.2, 0.79 22.75, 1.03 27.35 M0.25 -0.27 C0.91 4.69, 2.87 24.43, 3.16 28.82" stroke="#000000" stroke-width="1" fill="none"></path></g><g transform="translate(558.144170489268 763.4925175644597) rotate(0 1.7049440866280179 14.275148741127907)"><path d="M-2.07 15.05 C-1.39 19.96, 0.97 21.87, 4.32 29.52 M-2.38 15.95 C-0.65 21.48, 1.25 25.56, 2.49 29.27" stroke="#000000" stroke-width="1" fill="none"></path></g><g transform="translate(558.144170489268 763.4925175644597) rotate(0 1.7049440866280179 14.275148741127907)"><path d="M7.32 14.23 C5.57 19.44, 5.5 21.56, 4.32 29.52 M7.01 15.13 C5.09 20.96, 3.33 25.36, 2.49 29.27" stroke="#000000" stroke-width="1" fill="none"></path></g></g><mask></mask><g stroke-linecap="round"><g transform="translate(577.1375216258984 764.2932988144598) rotate(0 34.53282523841608 7.996770609170142)"><path d="M0.51 -1.11 C12.27 1.55, 58.08 14.26, 69.75 17.1 M-0.68 0.92 C10.98 3.73, 56.94 12.53, 68.73 15.19" stroke="#000000" stroke-width="1" fill="none"></path></g><g transform="translate(577.1375216258984 764.2932988144598) rotate(0 34.53282523841608 7.996770609170142)"><path d="M37.19 19.3 C46.57 19.41, 51.55 19.07, 69.75 16.96 M38.5 19.34 C45.41 17.83, 50.24 16.7, 69.39 16" stroke="#000000" stroke-width="1" fill="none"></path></g><g transform="translate(577.1375216258984 764.2932988144598) rotate(0 34.53282523841608 7.996770609170142)"><path d="M41.36 -0.79 C49.95 4.01, 53.97 8.33, 69.75 16.96 M42.66 -0.75 C48.69 1.77, 52.69 4.67, 69.39 16" stroke="#000000" stroke-width="1" fill="none"></path></g></g><mask></mask><g stroke-linecap="round" transform="translate(703.8197710640729 793.1175175644597) rotate(0 40 15)"><path d="M2 1.74 C2 1.74, 2 1.74, 2 1.74 M2 1.74 C2 1.74, 2 1.74, 2 1.74 M1.08 8.89 C2.31 5.54, 5.84 5.14, 8.3 0.59 M1.08 8.89 C4.27 6.29, 6.48 3.02, 8.3 0.59 M1.47 14.53 C5.56 11.61, 6.84 8.37, 13.28 0.95 M1.47 14.53 C3.39 11.06, 7.29 9.13, 13.28 0.95 M1.87 20.17 C6.34 15.57, 9.3 10.42, 18.93 0.55 M1.87 20.17 C6.22 15.1, 9.7 10.71, 18.93 0.55 M1.61 26.57 C7.59 20.87, 11.77 14.91, 23.91 0.91 M1.61 26.57 C8.2 19.02, 15.47 10.85, 23.91 0.91 M3.97 29.95 C14.04 19.95, 25.84 5.49, 29.56 0.52 M3.97 29.95 C8.59 23.5, 14.92 17.62, 29.56 0.52 M9.61 29.56 C17.82 16.62, 29.53 6.16, 34.54 0.88 M9.61 29.56 C19.31 18.53, 28.5 6.97, 34.54 0.88 M14.6 29.92 C21.26 21.25, 27.83 14.69, 39.53 1.24 M14.6 29.92 C21.29 20.56, 29.52 11.95, 39.53 1.24 M20.24 29.52 C23.34 22.85, 31.35 16.9, 45.17 0.84 M20.24 29.52 C30.02 19.04, 39.34 8.81, 45.17 0.84 M25.23 29.88 C32.31 20.07, 41.87 11.97, 50.16 1.2 M25.23 29.88 C33.37 20.03, 40.36 11.26, 50.16 1.2 M30.87 29.49 C37.24 19.85, 47.59 9.23, 55.8 0.81 M30.87 29.49 C39.65 18.75, 51.33 7.31, 55.8 0.81 M35.86 29.85 C40.57 24.65, 48.62 16.51, 60.79 1.17 M35.86 29.85 C43.72 21.74, 50.17 12.68, 60.79 1.17 M40.85 30.21 C49.9 19.82, 56.97 10.13, 66.43 0.77 M40.85 30.21 C47.42 23.62, 52.92 15.13, 66.43 0.77 M46.49 29.81 C56.24 18.82, 66.65 8.37, 71.42 1.13 M46.49 29.81 C53.29 22.3, 61.28 14.52, 71.42 1.13 M51.48 30.17 C58.61 21.51, 67.5 12.88, 76.41 1.49 M51.48 30.17 C58.1 20.92, 65.29 13.22, 76.41 1.49 M57.12 29.78 C66.45 19.62, 74.33 12.14, 79.43 4.12 M57.12 29.78 C64.09 20.24, 71.55 12.61, 79.43 4.12 M62.11 30.14 C68.62 25.31, 71.65 16.13, 82.44 6.74 M62.11 30.14 C67.85 22.41, 75.38 14.53, 82.44 6.74 M67.75 29.74 C74.32 25.39, 78.94 19.2, 82.18 13.14 M67.75 29.74 C72.03 23.77, 77.15 18.76, 82.18 13.14 M72.74 30.1 C77.85 25.06, 79.07 20.24, 82.58 18.78 M72.74 30.1 C76.35 25.4, 79.65 21.27, 82.58 18.78" stroke="#fa5252" stroke-width="0.5" fill="none"></path><path d="M7.5 0 M7.5 0 C29.13 -0.85, 45.71 -1.8, 72.5 0 M72.5 0 C79.17 -0.5, 79.86 2.31, 80 7.5 M80 7.5 C80.75 12.77, 78.9 15.49, 80 22.5 M80 22.5 C81.94 28.79, 76.71 29.15, 72.5 30 M72.5 30 C51.98 29.13, 31.09 32.22, 7.5 30 M7.5 30 C4.29 28.78, -1.21 29.15, 0 22.5 M0 22.5 C-0.9 19.13, -0.14 14.62, 0 7.5 M0 7.5 C1.2 3.12, 4.06 -1.57, 7.5 0" stroke="#000000" stroke-width="1.5" fill="none" stroke-dasharray="1.5 7"></path></g><g transform="translate(726.3197710640729 798.1175175644597) rotate(0 17.5 10)"><text x="17.5" y="0" font-family="Virgil, Segoe UI Emoji" font-size="16px" fill="#000000" text-anchor="middle" style="white-space: pre;" direction="ltr" dominant-baseline="text-before-edge">RUN</text></g><g stroke-linecap="round" transform="translate(786.4115679390729 791.0276738144597) rotate(0 40 15)"><path d="M2 1.74 C2 1.74, 2 1.74, 2 1.74 M2 1.74 C2 1.74, 2 1.74, 2 1.74 M1.08 8.89 C3.52 7.94, 5.13 4.27, 8.3 0.59 M1.08 8.89 C3.68 6.06, 6.13 3.14, 8.3 0.59 M1.47 14.53 C2.54 13.17, 5.2 7.84, 13.28 0.95 M1.47 14.53 C5.61 11.18, 7.67 6.84, 13.28 0.95 M1.87 20.17 C5.21 14.96, 9.08 8.39, 18.93 0.55 M1.87 20.17 C6.16 14.56, 10.22 10.87, 18.93 0.55 M1.61 26.57 C10.07 17.17, 19.5 7.21, 23.91 0.91 M1.61 26.57 C5.98 21.72, 12.09 14.99, 23.91 0.91 M3.97 29.95 C12.38 20.53, 16.16 14.41, 29.56 0.52 M3.97 29.95 C14.34 18.86, 24.56 6.45, 29.56 0.52 M9.61 29.56 C20.29 17.17, 30.67 7.73, 34.54 0.88 M9.61 29.56 C14.48 22.88, 19.55 18.86, 34.54 0.88 M14.6 29.92 C18.99 25.04, 24.91 18.85, 39.53 1.24 M14.6 29.92 C20.27 22.97, 24.76 17.49, 39.53 1.24 M20.24 29.52 C29.31 19.68, 37.52 10.05, 45.17 0.84 M20.24 29.52 C27.88 21.58, 34.84 12, 45.17 0.84 M25.23 29.88 C34.67 20.31, 40.87 13.79, 50.16 1.2 M25.23 29.88 C34.14 18.83, 45.02 8.42, 50.16 1.2 M30.87 29.49 C39.17 19.53, 48.83 11.06, 55.8 0.81 M30.87 29.49 C40.62 19.9, 47.48 9.09, 55.8 0.81 M35.86 29.85 C45.55 19.95, 53.77 7.56, 60.79 1.17 M35.86 29.85 C40.7 23, 47.97 15.68, 60.79 1.17 M40.85 30.21 C48.99 19.3, 59.54 7.08, 66.43 0.77 M40.85 30.21 C45.18 23.54, 52.02 17.51, 66.43 0.77 M46.49 29.81 C54.96 21.59, 60.07 14.45, 71.42 1.13 M46.49 29.81 C52.13 24.86, 56.75 17.27, 71.42 1.13 M51.48 30.17 C59.82 21.59, 67.38 10.31, 76.41 1.49 M51.48 30.17 C60.36 19.3, 71.13 9.67, 76.41 1.49 M57.12 29.78 C65.15 22.89, 72.6 14.21, 79.43 4.12 M57.12 29.78 C62.39 23.6, 68.53 16.63, 79.43 4.12 M62.11 30.14 C68.21 19.93, 78.2 13.73, 82.44 6.74 M62.11 30.14 C69.11 22.25, 77.28 14.42, 82.44 6.74 M67.75 29.74 C72.72 26.24, 77.27 18.33, 82.18 13.14 M67.75 29.74 C71.49 25.35, 77.07 19.96, 82.18 13.14 M72.74 30.1 C73.79 26.17, 78.4 23.96, 82.58 18.78 M72.74 30.1 C74.73 26.9, 77.66 24.7, 82.58 18.78" stroke="#fa5252" stroke-width="0.5" fill="none"></path><path d="M7.5 0 M7.5 0 C26.45 -1.44, 50.85 -0.26, 72.5 0 M72.5 0 C77.36 -0.19, 79.42 4.43, 80 7.5 M80 7.5 C78.81 13.07, 81.51 19.9, 80 22.5 M80 22.5 C79.21 26.65, 78.03 31.87, 72.5 30 M72.5 30 C48.49 31.21, 24.22 28.32, 7.5 30 M7.5 30 C1.29 31.65, 0.1 28.02, 0 22.5 M0 22.5 C-0.02 18.17, 0.99 11.77, 0 7.5 M0 7.5 C1.56 0.93, 1.79 -0.28, 7.5 0" stroke="#000000" stroke-width="1.5" fill="none" stroke-dasharray="1.5 7"></path></g><g transform="translate(791.9115679390729 796.0276738144597) rotate(0 34.5 10)"><text x="34.5" y="0" font-family="Virgil, Segoe UI Emoji" font-size="16px" fill="#000000" text-anchor="middle" style="white-space: pre;" direction="ltr" dominant-baseline="text-before-edge">STATUS</text></g><g stroke-linecap="round" transform="translate(873.5443804390729 792.0354863144597) rotate(0 40 15)"><path d="M2 1.74 C2 1.74, 2 1.74, 2 1.74 M2 1.74 C2 1.74, 2 1.74, 2 1.74 M1.08 8.89 C3.18 6.25, 4.59 6.47, 8.3 0.59 M1.08 8.89 C3.8 5.92, 6.18 2.71, 8.3 0.59 M1.47 14.53 C4.23 9.1, 9.61 3.48, 13.28 0.95 M1.47 14.53 C3.62 11.13, 6.45 8.26, 13.28 0.95 M1.87 20.17 C5.77 12.37, 11.7 8.7, 18.93 0.55 M1.87 20.17 C5.31 16.6, 10.89 11.46, 18.93 0.55 M1.61 26.57 C9.47 18.9, 14.58 8.53, 23.91 0.91 M1.61 26.57 C10.6 16.66, 17.28 8.07, 23.91 0.91 M3.97 29.95 C11.68 19.64, 24.91 6.47, 29.56 0.52 M3.97 29.95 C12.09 20.39, 19.64 12.01, 29.56 0.52 M9.61 29.56 C16.22 23.93, 17.74 18.42, 34.54 0.88 M9.61 29.56 C16.2 22.98, 22.09 14.3, 34.54 0.88 M14.6 29.92 C21.33 22.85, 26.29 13.18, 39.53 1.24 M14.6 29.92 C18.81 24.09, 25.09 17.23, 39.53 1.24 M20.24 29.52 C27.95 20.58, 32.86 15.42, 45.17 0.84 M20.24 29.52 C27.95 19.79, 35.92 11.07, 45.17 0.84 M25.23 29.88 C31.18 24.53, 38.34 17.29, 50.16 1.2 M25.23 29.88 C32.31 23.26, 38.6 14.04, 50.16 1.2 M30.87 29.49 C40.29 20.69, 46.91 10.11, 55.8 0.81 M30.87 29.49 C38.81 18.48, 48.81 8.35, 55.8 0.81 M35.86 29.85 C45.5 16.89, 53.85 7.66, 60.79 1.17 M35.86 29.85 C45.02 19.53, 53.86 10.47, 60.79 1.17 M40.85 30.21 C47.76 20.87, 54.45 12.72, 66.43 0.77 M40.85 30.21 C50.98 19.31, 59.23 9.44, 66.43 0.77 M46.49 29.81 C52.93 22.44, 58.14 13.36, 71.42 1.13 M46.49 29.81 C55.17 18.71, 63.96 9.09, 71.42 1.13 M51.48 30.17 C59.11 19.6, 68.81 10.41, 76.41 1.49 M51.48 30.17 C57.78 24.88, 62.75 18.48, 76.41 1.49 M57.12 29.78 C63.96 23.98, 68.42 14.6, 79.43 4.12 M57.12 29.78 C61.77 24.19, 67.62 19.23, 79.43 4.12 M62.11 30.14 C70.87 22.78, 78.9 10.32, 82.44 6.74 M62.11 30.14 C69.61 23.05, 75.73 15.23, 82.44 6.74 M67.75 29.74 C74.14 22, 78.7 15.22, 82.18 13.14 M67.75 29.74 C72.56 25.01, 75.04 21.6, 82.18 13.14 M72.74 30.1 C76.33 26.6, 76.9 24.39, 82.58 18.78 M72.74 30.1 C75.09 27.7, 77.41 25.64, 82.58 18.78" stroke="#fa5252" stroke-width="0.5" fill="none"></path><path d="M7.5 0 M7.5 0 C26.34 0.05, 41.71 0.36, 72.5 0 M72.5 0 C76.92 1.93, 81.62 3.31, 80 7.5 M80 7.5 C81.33 14.17, 79.28 18.27, 80 22.5 M80 22.5 C80.53 29.37, 79.2 30.69, 72.5 30 M72.5 30 C59.41 29.33, 41.52 32.19, 7.5 30 M7.5 30 C2.6 30.52, 1.46 26.35, 0 22.5 M0 22.5 C0.91 17.25, 1.18 9.9, 0 7.5 M0 7.5 C-0.71 2.22, 1.55 0.94, 7.5 0" stroke="#000000" stroke-width="1.5" fill="none" stroke-dasharray="1.5 7"></path></g><g transform="translate(893.5443804390729 797.0354863144597) rotate(0 20 10)"><text x="20" y="0" font-family="Virgil, Segoe UI Emoji" font-size="16px" fill="#000000" text-anchor="middle" style="white-space: pre;" direction="ltr" dominant-baseline="text-before-edge">KILL</text></g><g stroke-linecap="round"><g transform="translate(749.7133784983034 758.8870488144597) rotate(0 -10.69502519786954 12.769155882718053)"><path d="M0.61 1.06 C-2.93 4.82, -18.51 19.88, -22 23.57 M-0.53 0.58 C-3.66 5.04, -16.53 21.03, -19.92 24.96" stroke="#000000" stroke-width="1" fill="none"></path></g><g transform="translate(749.7133784983034 758.8870488144597) rotate(0 -10.69502519786954 12.769155882718053)"><path d="M-13.22 8.48 C-16.11 14.25, -17.87 16.88, -19.26 23.84 M-13.98 10.55 C-16.62 13.96, -16.46 17.59, -19.77 25.24" stroke="#000000" stroke-width="1" fill="none"></path></g><g transform="translate(749.7133784983034 758.8870488144597) rotate(0 -10.69502519786954 12.769155882718053)"><path d="M-4.87 15.37 C-9.81 19.55, -13.54 20.54, -19.26 23.84 M-5.64 17.44 C-10.12 19.33, -11.89 21.37, -19.77 25.24" stroke="#000000" stroke-width="1" fill="none"></path></g></g><mask></mask><g stroke-linecap="round"><g transform="translate(823.1517939098992 762.1839238144597) rotate(0 0.9907787334013847 13.383080328255915)"><path d="M1.06 -1.2 C1.2 3.36, 1.77 23.22, 1.84 27.96 M0.16 0.79 C0.03 4.93, 0.71 21.48, 0.74 26.09" stroke="#000000" stroke-width="1" fill="none"></path></g><g transform="translate(823.1517939098992 762.1839238144597) rotate(0 0.9907787334013847 13.383080328255915)"><path d="M-5.66 12.95 C-1.74 17.4, -0.6 23.65, -0.23 25.12 M-3.86 12.7 C-2.78 16.47, -1.59 18.57, 0.99 26.06" stroke="#000000" stroke-width="1" fill="none"></path></g><g transform="translate(823.1517939098992 762.1839238144597) rotate(0 0.9907787334013847 13.383080328255915)"><path d="M3.76 12.71 C4.07 17.34, 1.58 23.68, -0.23 25.12 M5.57 12.47 C4.72 16.36, 4.01 18.51, 0.99 26.06" stroke="#000000" stroke-width="1" fill="none"></path></g></g><mask></mask><g stroke-linecap="round"><g transform="translate(844.1454215008666 762.9847050644597) rotate(0 34.14486128261558 8.007719456674579)"><path d="M-1.2 -0.27 C10.28 2.26, 57.82 13.33, 69.49 16.28 M0.38 -1.46 C11.69 1.74, 57.53 14.68, 68.79 17.48" stroke="#000000" stroke-width="1" fill="none"></path></g><g transform="translate(844.1454215008666 762.9847050644597) rotate(0 34.14486128261558 8.007719456674579)"><path d="M38.45 20.88 C48.28 19.11, 60.67 17.13, 67.38 15.55 M38.1 20.66 C50.75 19.77, 60.95 18.34, 68.74 17.91" stroke="#000000" stroke-width="1" fill="none"></path></g><g transform="translate(844.1454215008666 762.9847050644597) rotate(0 34.14486128261558 8.007719456674579)"><path d="M43.76 1.06 C51.91 6.19, 62.43 11.17, 67.38 15.55 M43.41 0.84 C54.28 7.24, 62.54 13.06, 68.74 17.91" stroke="#000000" stroke-width="1" fill="none"></path></g></g><mask></mask><g transform="translate(1008.6039507515729 703.6103515625) rotate(0 75.5 10)"><text x="0" y="0" font-family="Virgil, Segoe UI Emoji" font-size="16px" fill="#000000" text-anchor="start" style="white-space: pre;" direction="ltr" dominant-baseline="text-before-edge">REMOTE MACHINE</text></g><g transform="translate(985.9672320015729 648.2392578125) rotate(0 97.5 10)"><text x="0" y="0" font-family="Virgil, Segoe UI Emoji" font-size="16px" fill="#000000" text-anchor="start" style="white-space: pre;" direction="ltr" dominant-baseline="text-before-edge">KUBERNETES CLUSTER</text></g><g stroke-linecap="round" transform="translate(225.86476102024312 669.75732421875) rotate(0 326 15.5)"><path d="M9.25 -1.98 L642.81 0.14 L649.36 0.2 L652.13 3.6 L653.64 22.99 L650.67 28.47 L643.95 32.98 L9.73 31.41 L2.15 31.06 L1.77 24.73 L1.98 2.57 L0.5 3.19 L9.14 -1.5" stroke="none" stroke-width="0" fill="#fd7e14"></path><path d="M7.75 0 M7.75 0 C214.59 -1.21, 421.59 -2.38, 644.25 0 M644.25 0 C651.34 0.21, 650.84 3.55, 652 7.75 M652 7.75 C652.85 12.39, 652.89 15.52, 652 23.25 M652 23.25 C651.01 29.36, 651.33 29.16, 644.25 31 M644.25 31 C409.61 32.35, 175.62 32.15, 7.75 31 M7.75 31 C3.66 29.77, 1.77 26.99, 0 23.25 M0 23.25 C-0.41 19.21, -0.87 14.49, 0 7.75 M0 7.75 C0.54 2.47, 4.12 -0.65, 7.75 0" stroke="#364fc7" stroke-width="2.5" fill="none" stroke-dasharray="8 10"></path></g><g transform="translate(498.0327984347939 675.25732421875) rotate(0 53.83196258544922 10)"><text x="53.83196258544922" y="0" font-family="Virgil, Segoe UI Emoji" font-size="16px" fill="#364fc7" text-anchor="middle" style="white-space: pre;" direction="ltr" dominant-baseline="text-before-edge">OAuth2 proxy</text></g><g stroke-linecap="round" transform="translate(1074.4066108797879 441.54606705766423) rotate(0 14.118306390455132 11.447275451720486)"><path d="M0 0 C10.42 0, 20.84 0, 28.24 0 M0 0 C8.86 0, 17.71 0, 28.24 0 M28.24 0 C28.24 6.62, 28.24 13.24, 28.24 22.89 M28.24 0 C28.24 8.58, 28.24 17.17, 28.24 22.89 M28.24 22.89 C20.46 22.89, 12.68 22.89, 0 22.89 M28.24 22.89 C21.95 22.89, 15.67 22.89, 0 22.89 M0 22.89 C0 13.78, 0 4.66, 0 0 M0 22.89 C0 17.97, 0 13.04, 0 0" stroke="#7950f288" stroke-width="2" fill="none"></path></g><g stroke-linecap="round"><g transform="translate(1080.425495338375 441.1285072118694) rotate(2.134459448127705 8.450679031553477 -7.571843186292995)"><path d="M0 0 C-0.08 -0.92, -0.76 -3.44, -0.46 -5.51 C-0.15 -7.57, 0.31 -10.78, 1.84 -12.39 C3.37 -14, 6.58 -15.14, 8.72 -15.14 C10.86 -15.14, 13.31 -13.77, 14.68 -12.39 C16.06 -11.01, 16.52 -8.87, 16.98 -6.88 C17.44 -4.89, 17.36 -1.53, 17.44 -0.46 M0 0 C-0.08 -0.92, -0.76 -3.44, -0.46 -5.51 C-0.15 -7.57, 0.31 -10.78, 1.84 -12.39 C3.37 -14, 6.58 -15.14, 8.72 -15.14 C10.86 -15.14, 13.31 -13.77, 14.68 -12.39 C16.06 -11.01, 16.52 -8.87, 16.98 -6.88 C17.44 -4.89, 17.36 -1.53, 17.44 -0.46" stroke="#7950f288" stroke-width="2" fill="none"></path></g></g><mask></mask><g stroke-linecap="round" transform="translate(1084.782759597688 447.3213698193515) rotate(0 3.6711966963844134 3.67119669638447)"><path d="M7.34 3.67 C7.34 3.88, 7.32 4.1, 7.29 4.31 C7.25 4.52, 7.19 4.73, 7.12 4.93 C7.05 5.13, 6.96 5.32, 6.85 5.51 C6.74 5.69, 6.62 5.87, 6.48 6.03 C6.35 6.19, 6.19 6.35, 6.03 6.48 C5.87 6.62, 5.69 6.74, 5.51 6.85 C5.32 6.96, 5.13 7.05, 4.93 7.12 C4.73 7.19, 4.52 7.25, 4.31 7.29 C4.1 7.32, 3.88 7.34, 3.67 7.34 C3.46 7.34, 3.24 7.32, 3.03 7.29 C2.82 7.25, 2.62 7.19, 2.42 7.12 C2.22 7.05, 2.02 6.96, 1.84 6.85 C1.65 6.74, 1.47 6.62, 1.31 6.48 C1.15 6.35, 1 6.19, 0.86 6.03 C0.72 5.87, 0.6 5.69, 0.49 5.51 C0.39 5.32, 0.29 5.13, 0.22 4.93 C0.15 4.73, 0.09 4.52, 0.06 4.31 C0.02 4.1, 0 3.88, 0 3.67 C0 3.46, 0.02 3.24, 0.06 3.03 C0.09 2.82, 0.15 2.62, 0.22 2.42 C0.29 2.22, 0.39 2.02, 0.49 1.84 C0.6 1.65, 0.72 1.47, 0.86 1.31 C1 1.15, 1.15 1, 1.31 0.86 C1.47 0.72, 1.65 0.6, 1.84 0.49 C2.02 0.39, 2.22 0.29, 2.42 0.22 C2.62 0.15, 2.82 0.09, 3.03 0.06 C3.24 0.02, 3.46 0, 3.67 0 C3.88 0, 4.1 0.02, 4.31 0.06 C4.52 0.09, 4.73 0.15, 4.93 0.22 C5.13 0.29, 5.32 0.39, 5.51 0.49 C5.69 0.6, 5.87 0.72, 6.03 0.86 C6.19 1, 6.35 1.15, 6.48 1.31 C6.62 1.47, 6.74 1.65, 6.85 1.84 C6.96 2.02, 7.05 2.22, 7.12 2.42 C7.19 2.62, 7.25 2.82, 7.29 3.03 C7.32 3.24, 7.33 3.56, 7.34 3.67 C7.35 3.78, 7.35 3.56, 7.34 3.67" stroke="#7950f288" stroke-width="2" fill="none"></path></g><g stroke-linecap="round"><g transform="translate(1088.4585199293592 454.8954948233022) rotate(0 0 3.441746902860473)"><path d="M0 0 C0 1.15, 0 5.74, 0 6.88 M0 0 C0 1.15, 0 5.74, 0 6.88" stroke="#7950f288" stroke-width="2" fill="none"></path></g></g><mask></mask><g stroke-linecap="round" transform="translate(1057.0249172702431 413.7203369140627) rotate(0 31.5 31.5)"><path d="M63 31.5 C63 33.32, 62.84 35.17, 62.52 36.97 C62.2 38.77, 61.72 40.56, 61.1 42.27 C60.48 43.99, 59.69 45.67, 58.78 47.25 C57.87 48.83, 56.8 50.35, 55.63 51.75 C54.46 53.14, 53.14 54.46, 51.75 55.63 C50.35 56.8, 48.83 57.87, 47.25 58.78 C45.67 59.69, 43.99 60.48, 42.27 61.1 C40.56 61.72, 38.77 62.2, 36.97 62.52 C35.17 62.84, 33.32 63, 31.5 63 C29.68 63, 27.83 62.84, 26.03 62.52 C24.23 62.2, 22.44 61.72, 20.73 61.1 C19.01 60.48, 17.33 59.69, 15.75 58.78 C14.17 57.87, 12.65 56.8, 11.25 55.63 C9.86 54.46, 8.54 53.14, 7.37 51.75 C6.2 50.35, 5.13 48.83, 4.22 47.25 C3.31 45.67, 2.52 43.99, 1.9 42.27 C1.28 40.56, 0.8 38.77, 0.48 36.97 C0.16 35.17, 0 33.32, 0 31.5 C0 29.68, 0.16 27.83, 0.48 26.03 C0.8 24.23, 1.28 22.44, 1.9 20.73 C2.52 19.01, 3.31 17.33, 4.22 15.75 C5.13 14.17, 6.2 12.65, 7.37 11.25 C8.54 9.86, 9.86 8.54, 11.25 7.37 C12.65 6.2, 14.17 5.13, 15.75 4.22 C17.33 3.31, 19.01 2.52, 20.73 1.9 C22.44 1.28, 24.23 0.8, 26.03 0.48 C27.83 0.16, 29.68 0, 31.5 0 C33.32 0, 35.17 0.16, 36.97 0.48 C38.77 0.8, 40.56 1.28, 42.27 1.9 C43.99 2.52, 45.67 3.31, 47.25 4.22 C48.83 5.13, 50.35 6.2, 51.75 7.37 C53.14 8.54, 54.46 9.86, 55.63 11.25 C56.8 12.65, 57.87 14.17, 58.78 15.75 C59.69 17.33, 60.48 19.01, 61.1 20.73 C61.72 22.44, 62.2 24.23, 62.52 26.03 C62.84 27.83, 62.92 30.59, 63 31.5 C63.08 32.41, 63.08 30.59, 63 31.5" stroke="#000000" stroke-width="2" fill="none"></path></g><g transform="translate(1044.0288235202431 484.3880615234373) rotate(0 42.41997528076172 12.5)"><text x="0" y="0" font-family="Virgil, Segoe UI Emoji" font-size="20px" fill="#000000" text-anchor="start" style="white-space: pre;" direction="ltr" dominant-baseline="text-before-edge">IAM IdP</text></g><g stroke-linecap="round"><g transform="translate(1041.3022610202431 520.60498046875) rotate(0 -80.68549583740537 80.27926073260602)"><path d="M-0.73 0.22 C-27.45 27.08, -133.89 133.68, -160.64 160.34" stroke="#364fc7" stroke-width="1.5" fill="none" stroke-dasharray="8 9"></path></g><g transform="translate(1041.3022610202431 520.60498046875) rotate(0 -80.68549583740537 80.27926073260602)"><path d="M-147.59 134.98 C-152.69 141.44, -156.48 149.37, -162.55 159.48" stroke="#364fc7" stroke-width="1.5" fill="none"></path></g><g transform="translate(1041.3022610202431 520.60498046875) rotate(0 -80.68549583740537 80.27926073260602)"><path d="M-133.08 149.5 C-142.09 151.86, -149.89 155.78, -162.55 159.48" stroke="#364fc7" stroke-width="1.5" fill="none"></path></g></g><mask></mask><g stroke-linecap="round"><g transform="translate(1059.7436672702431 417.89404296875) rotate(0 -83.82531953640284 -41.692310450598626)"><path d="M0.83 -1.08 C-27.11 -14.67, -140.07 -68.97, -168.48 -82.3" stroke="#364fc7" stroke-width="1.5" fill="none" stroke-dasharray="8 9"></path></g><g transform="translate(1059.7436672702431 417.89404296875) rotate(0 -83.82531953640284 -41.692310450598626)"><path d="M-140.42 -77.47 C-145.61 -79.88, -150.48 -81.86, -168.22 -84.07" stroke="#364fc7" stroke-width="1.5" fill="none"></path></g><g transform="translate(1059.7436672702431 417.89404296875) rotate(0 -83.82531953640284 -41.692310450598626)"><path d="M-149.24 -58.94 C-152.28 -65.67, -155.13 -71.92, -168.22 -84.07" stroke="#364fc7" stroke-width="1.5" fill="none"></path></g></g><mask></mask></svg>